<?xml version="1.0" encoding="UTF-8" standalone="no"?>
<svg
   xmlns:osb="http://www.openswatchbook.org/uri/2009/osb"
   xmlns:dc="http://purl.org/dc/elements/1.1/"
   xmlns:cc="http://creativecommons.org/ns#"
   xmlns:rdf="http://www.w3.org/1999/02/22-rdf-syntax-ns#"
   xmlns:svg="http://www.w3.org/2000/svg"
   xmlns="http://www.w3.org/2000/svg"
   xmlns:xlink="http://www.w3.org/1999/xlink"
   xmlns:sodipodi="http://sodipodi.sourceforge.net/DTD/sodipodi-0.dtd"
   xmlns:inkscape="http://www.inkscape.org/namespaces/inkscape"
   width="128.02142mm"
   height="94.466599mm"
   viewBox="0 0 128.02142 94.466599"
   version="1.1"
   id="svg8"
   sodipodi:docname="error_pig.svg"
   inkscape:version="1.0.2-2 (e86c870879, 2021-01-15)">
  <defs
     id="defs2">
    <linearGradient
       id="linearGradient3250"
       osb:paint="solid">
      <stop
         style="stop-color:#dbdee3;stop-opacity:1;"
         offset="0"
         id="stop3248" />
    </linearGradient>
    <clipPath
       clipPathUnits="userSpaceOnUse"
       id="clipPath1093">
      <path
         id="path1095"
         style="fill:#ff0000;fill-opacity:1;fill-rule:nonzero;stroke:none;stroke-width:0.264583"
         d="m 114.12585,74.060079 v 23.038387 c 0.0665,-0.03832 0.13351,-0.07984 0.19947,-0.117305 0.10427,-0.05924 0.60638,-0.01918 1.09657,0.03256 0.0109,-0.02215 0.0202,-0.04486 0.032,-0.06667 0.11136,-0.205163 0.55263,-0.269004 1.00924,-0.279569 0.45662,-0.01056 0.92856,0.03204 1.10019,0.03928 0.0279,0.160057 2.26162,0.0173 2.35232,0.05839 0.5265,0.238403 1.01447,0.552974 1.5136,0.845429 V 74.060079 Z m 0.55345,23.656954 c -0.0166,0.0068 0.12243,0.07579 0.37569,0.1788 h 0.0331 c -0.17608,-0.10382 -0.33374,-0.167272 -0.39067,-0.177768 -0.009,-0.0016 -0.0153,-0.0021 -0.0181,-0.0011 z m -0.0222,60.241797 c -0.28506,0.29115 -0.44915,0.4845 0.0238,0.0419 -0.008,-0.014 -0.0159,-0.0279 -0.0238,-0.0419 z m 6.77219,18.66915 c -0.0841,0.18306 -0.3405,0.26308 -0.5333,0.34054 -0.37085,0.14904 -0.62092,0.24019 -0.83561,0.30799 -0.0402,0.0229 -0.0806,0.0472 -0.12195,0.0729 0.0106,0.0999 0.0211,0.19983 0.0341,0.2992 -0.14812,0.002 -0.29628,-5.2e-4 -0.44441,-5.2e-4 -0.19486,0.16551 -0.38634,0.36479 -0.55552,0.61081 -0.21096,0.30675 0.082,0.73997 0.12298,1.11001 0.29698,2.6835 1.41476,-1.40449 2.33371,-2.52181 z m 0,3.96668 c -0.24984,0.0872 -0.53359,0.078 -0.92294,0.078 h -2.97914 -3.18947 c -0.0729,0 -0.14186,-0.004 -0.21188,-0.007 v 23.91792 h 7.30343 z" />
    </clipPath>
    <linearGradient
       inkscape:collect="always"
       xlink:href="#linearGradient3250"
       id="linearGradient1278"
       x1="-18.201948"
       y1="149.36227"
       x2="235.30147"
       y2="149.36227"
       gradientUnits="userSpaceOnUse" />
    <linearGradient
       inkscape:collect="always"
       xlink:href="#linearGradient3250"
       id="linearGradient3252"
       x1="79.935051"
       y1="72.532066"
       x2="111.14774"
       y2="72.532066"
       gradientUnits="userSpaceOnUse" />
  </defs>
  <sodipodi:namedview
     id="base"
     pagecolor="#ffffff"
     bordercolor="#666666"
     borderopacity="1.0"
     inkscape:pageopacity="0.0"
     inkscape:pageshadow="2"
     inkscape:zoom="1"
     inkscape:cx="281.25801"
     inkscape:cy="148.70928"
     inkscape:document-units="mm"
     inkscape:current-layer="g1014"
     inkscape:document-rotation="0"
     showgrid="false"
     inkscape:window-width="1920"
     inkscape:window-height="1009"
     inkscape:window-x="-8"
     inkscape:window-y="-8"
     inkscape:window-maximized="1"
     fit-margin-top="0"
     fit-margin-left="0"
     fit-margin-right="0"
     fit-margin-bottom="0" />
  <metadata
     id="metadata5">
    <rdf:RDF>
      <cc:Work
         rdf:about="">
        <dc:format>image/svg+xml</dc:format>
        <dc:type
           rdf:resource="http://purl.org/dc/dcmitype/StillImage" />
        <dc:title></dc:title>
      </cc:Work>
    </rdf:RDF>
  </metadata>
  <g
     inkscape:label="Layer 1"
     inkscape:groupmode="layer"
     id="layer1"
     transform="translate(-28.197273,-67.15806)">
    <g
       transform="matrix(1.0000088,0,0,1.0000088,23.858094,75.518226)"
       id="g1024">
      <g
         transform="matrix(0.51668,0,0,0.39095,23.657,21.307)"
         fill-opacity="0.42105"
         id="g1014">
        <g
           fill="#ea7e00"
           id="g1004"
           style="fill:#ea000d;fill-opacity:0.204453">
          <path
             d="m 36.659,160.67 c -4.2205,-1.9171 -4.4027,-2.3722 -7.5885,-18.953 -2.3116,-12.031 -2.3116,-12.031 -4.3967,-13.257 -23.289,-13.691 -37.27,-39.519 -35.454,-65.498 0.27999,-4.0057 -1.0549,-4.5983 -2.9126,-1.2929 -4.6849,8.3356 -19.175,15.117 -22.707,10.627 -2.2231,-2.8262 -0.56937,-5.5422 3.6811,-6.0455 3.558,-0.42142 7.9229,-2.6106 10.57,-5.3016 2.6093,-2.6523 2.6588,-2.4621 -0.88096,-3.3864 -11.759,-3.0707 -15.145,-11.709 -7.3503,-18.751 6.8828,-6.2183 17.884,0.24204 19.267,11.315 0.32864,2.6303 0.97153,3.3265 1.3607,1.4734 4.2585,-20.278 12.065,-33.214 26.567,-44.025 7.8565,-5.8568 10.991,-6.6643 12.227,-3.15 0.80358,2.285 0.07203,3.4128 -3.8098,5.8717 -40.175,25.45 -38.94,86.226 2.2662,111.55 5.9064,3.6296 5.4973,2.7332 8.5082,18.646 2.957,15.628 1.4972,13.967 12.272,13.967 10.657,0 9.5687,0.84127 11.386,-8.8017 2.1943,-11.644 1.8646,-11.403 14.512,-10.628 9.7471,0.59678 14.873,0.44903 26.021,-0.74999 10.066,-1.0827 10.356,-0.83812 12.499,10.534 2.0386,10.822 0.63254,9.6462 11.534,9.6462 5.8887,0 9.3249,-0.17825 9.52,-0.49409 0.16808,-0.27173 1.351,-6.0775 2.6289,-12.902 3.5918,-19.18 3.2542,-17.019 10.581,-21.285 9.7016,-5.6481 17.741,-13.083 23.497,-21.729 4.1255,-6.197 3.9264,-6.5053 14.388,-9.8792 13.912,-4.4866 12.809,-3.0176 12.809,-17.047 0,-13.405 0.46202,-12.623 -9.3906,-15.907 -8.8435,-2.9473 -9.8216,-3.8223 -12.807,-11.457 -5.3337,-13.639 -9.7374,-18.616 -12.098,-13.675 -3.502,7.3315 -8.7458,10.411 -17.673,10.378 -19.342,-0.07205 -31.397,-16.041 -27.695,-36.686 0.65889,-3.6744 0.65889,-3.6744 -1.0299,-4.1139 -4.7474,-1.2354 -4.9066,-1.2107 -6.5051,1.0083 -2.7199,3.7754 -5.3923,6.4946 -9.2103,9.3716 -2.1144,1.5933 -3.5166,2.9453 -3.1686,3.0552 7.6607,2.4207 7.9628,2.6246 7.9628,5.3749 0,1.3696 -0.93495,2.5462 -2.448,3.0807 -0.43494,0.1537 -2.9916,-0.35678 -5.6815,-1.1342 -17.259,-4.9885 -37.38,-4.7942 -54.279,0.52412 -4.122,1.2972 -6.2428,0.26706 -6.2428,-3.0325 0,-1.5686 1.7665,-2.9362 4.9713,-3.8488 1.5624,-0.44488 3.0089,-0.90704 3.2144,-1.027 0.2055,-0.11992 -0.96631,-1.2386 -2.604,-2.4859 -21.849,-16.64 -25.672,-47.5 -8.5104,-68.7 20.74,-25.621 60.965,-23.064 78.26,4.9744 5.5939,9.0688 -0.2024,12.448 -6.1145,3.5648 -21.017,-31.58 -67.953,-22.751 -75.165,14.138 -4.5388,23.214 12.74,47.074 32.936,45.482 5.5948,-0.44102 8.855,-0.44032 14.68,0.0038 16.458,1.2526 31.33,-13.716 33.583,-33.8 0.58879,-5.2505 3.4257,-7.266 6.2509,-4.4408 1.7255,1.7255 0.43022,11.483 -2.4012,18.088 -0.93452,2.1801 -0.93452,2.1801 1.0556,2.6962 1.0946,0.28385 2.6898,0.70036 3.5451,0.92552 1.3001,0.34236 2.076,0.15226 4.7346,-1.1595 37.364,-18.437 48.788,-12.599 42.485,21.708 -0.77371,4.2107 -0.77371,4.2107 0.69008,5.9182 6.1027,7.1192 10.607,14.526 13.036,21.437 1.6329,4.6459 2.2006,5.1168 8.7556,7.263 12.942,4.2373 14.214,6.2717 14.188,22.688 -0.0258,16.751 -0.95289,18.013 -16.989,23.136 -8.8873,2.8393 -9.2325,2.9966 -10.416,4.7486 -8.2741,12.247 -16.159,19.829 -27.546,26.487 -4.0691,2.3793 -4.0691,2.3793 -6.5443,15.684 -3.7989,20.42 -3.2815,19.86 -18.562,20.084 -15.472,0.22703 -16.118,-0.21734 -18.615,-12.809 -0.83995,-4.2355 -1.7227,-7.6699 -1.9615,-7.6319 -4.7662,0.75773 -14.567,1.1734 -24.544,1.0409 l -12.273,-0.16284 -1.46,7.4368 c -2.2832,11.629 -3.1553,12.218 -18.081,12.201 -8.1084,-0.008 -9.6797,-0.13101 -11.328,-0.87953 z M -19.172,47.69 c -2.0939,-4.2798 -4.9964,-5.5084 -7.1019,-3.0061 -2.272,2.7001 -0.51502,4.7135 5.4583,6.2549 3.2082,0.82783 3.4268,0.39586 1.6436,-3.2488 z m 171.41,-15.35 c 8.3529,-3.6949 14.844,-44.063 7.0858,-44.063 -5.3131,0 -30.073,9.0319 -32.841,11.98 -2.8606,3.0465 -2.598,16.735 0.43514,22.681 4.3029,8.4345 16.918,13.119 25.32,9.4022 z"
             color="#000000"
             color-rendering="auto"
             dominant-baseline="auto"
             fill-opacity="0.90283"
             image-rendering="auto"
             shape-rendering="auto"
             solid-color="#000000"
             stop-color="#000000"
             style="font-variant-ligatures:normal;font-variant-position:normal;font-variant-caps:normal;font-variant-numeric:normal;font-variant-alternates:normal;font-variant-east-asian:normal;font-feature-settings:normal;font-variation-settings:normal;text-indent:0;text-decoration:none;text-decoration-line:none;text-decoration-style:solid;text-decoration-color:#000000;text-transform:none;text-orientation:mixed;white-space:normal;shape-padding:0;shape-margin:0;inline-size:0;isolation:auto;mix-blend-mode:normal;fill:#ea000d;fill-opacity:0.204453"
             id="path992" />
          <path
             d="m 74.712,-71.662 c -12.985,0.64831 -25.792,6.4653 -34.868,17.678 -17.166,21.207 -13.342,52.078 8.5131,68.723 0.81852,0.6234 1.5211,1.2138 1.9924,1.6638 0.23568,0.22498 0.41351,0.41466 0.51911,0.55461 0.05275,0.0703 0.0861,0.12825 0.10085,0.16991 0.007,0.02089 0.0085,0.03691 0.0074,0.04833 -0.0017,0.0114 -0.0059,0.01688 -0.01511,0.02191 -0.04843,0.02809 -0.1773,0.08083 -0.36598,0.14752 -0.18869,0.06677 -0.43709,0.14969 -0.7283,0.24273 -0.58237,0.18607 -1.3346,0.4144 -2.1157,0.63676 -1.6036,0.45657 -2.849,1.0267 -3.6936,1.6806 -0.84461,0.65388 -1.2885,1.3929 -1.2885,2.1829 0,1.653 0.53219,2.7422 1.5835,3.2529 1.0513,0.51066 2.6148,0.44187 4.6776,-0.20726 16.896,-5.3173 37.016,-5.5104 54.272,-0.52282 1.3453,0.38886 2.6558,0.71116 3.6861,0.91685 0.51518,0.10286 0.96167,0.17632 1.3052,0.2147 0.3436,0.03877 0.58273,0.04305 0.69834,0.0019 1.5178,-0.53617 2.4593,-1.7194 2.4593,-3.096 0,-0.68789 -0.0194,-1.217 -0.16805,-1.6638 -0.1491,-0.44682 -0.43014,-0.80965 -0.94859,-1.1596 -1.037,-0.69992 -3.0264,-1.3553 -6.8568,-2.5657 -0.0194,-0.0059 -0.0307,-0.01393 -0.0377,-0.02636 -0.007,-0.01245 -0.007,-0.03075 -0.004,-0.05447 0.009,-0.04653 0.042,-0.11335 0.099,-0.19608 0.11436,-0.16543 0.32347,-0.3934 0.60873,-0.66847 0.5706,-0.55022 1.4491,-1.2876 2.5059,-2.0839 3.8192,-2.8777 6.4929,-5.5975 9.2136,-9.374 0.39955,-0.55461 0.70915,-0.97247 1.0214,-1.266 0.31231,-0.2936 0.62647,-0.46246 1.0401,-0.52659 0.82722,-0.12819 2.0538,0.17219 4.4274,0.78988 0.42222,0.10989 0.73892,0.19213 0.96353,0.30994 0.22454,0.11782 0.35669,0.26927 0.42011,0.52281 0.12697,0.50708 -0.0343,1.4269 -0.36414,3.2641 -1.8518,10.326 0.23632,19.484 5.208,26.07 4.9716,6.5857 12.826,10.598 22.501,10.634 4.4653,0.01688 8.0114,-0.74552 10.879,-2.4294 2.8676,-1.6839 5.0564,-4.289 6.8082,-7.9566 0.58878,-1.2327 1.3006,-1.843 2.1213,-1.858 0.82063,-0.01519 1.7561,0.56674 2.786,1.731 2.0599,2.3286 4.4946,6.9829 7.1612,13.801 1.493,3.8177 2.4846,5.9475 4.2108,7.4917 1.7262,1.5442 4.1845,2.4999 8.6065,3.9737 2.4633,0.82098 4.2817,1.3877 5.6225,1.985 1.3408,0.59722 2.2039,1.2243 2.7599,2.1661 1.1121,1.8837 0.99716,5.0388 0.99716,11.742 0,3.5076 0.0694,6.0451 -0.0448,7.9492 -0.11385,1.9041 -0.41018,3.1735 -1.1391,4.1436 -0.72891,0.9701 -1.892,1.6445 -3.744,2.3566 -1.8518,0.71204 -4.3905,1.4608 -7.8688,2.5825 -5.231,1.687 -7.7991,2.6085 -9.5756,3.884 -1.7765,1.2755 -2.7588,2.9033 -4.8214,6.0016 -5.7546,8.644 -13.793,16.077 -23.493,21.724 -1.8314,1.0662 -3.1827,1.7297 -4.2388,2.4275 -1.0561,0.69782 -1.816,1.43 -2.4574,2.6273 -1.2828,2.3947 -2.0956,6.6498 -3.8915,16.24 -0.63895,3.412 -1.2546,6.5688 -1.731,8.9071 -0.23826,1.1692 -0.44119,2.1344 -0.59564,2.8234 -0.0773,0.34446 -0.14338,0.62006 -0.19413,0.81791 -0.0255,0.0989 -0.0474,0.17842 -0.065,0.23712 -0.0184,0.0589 -0.0325,0.0967 -0.0413,0.11017 -0.0194,0.0317 -0.0918,0.072 -0.2147,0.10645 -0.123,0.035 -0.29501,0.0668 -0.51535,0.0971 -0.44075,0.0606 -1.0727,0.11297 -1.8822,0.15497 -1.619,0.0843 -3.9499,0.12888 -6.8941,0.12888 -2.7257,0 -4.6835,0.0738 -6.1155,0.0152 -1.432,-0.0589 -2.3364,-0.25094 -2.9653,-0.77681 -0.62885,-0.52595 -0.98403,-1.3885 -1.309,-2.7991 -0.32497,-1.4106 -0.62006,-3.3667 -1.1297,-6.0725 -0.53555,-2.843 -0.95546,-4.9908 -1.4416,-6.5972 -0.48608,-1.6064 -1.0385,-2.6716 -1.8412,-3.3481 -0.8027,-0.67655 -1.8552,-0.96181 -3.3332,-1.0102 -1.478,-0.0484 -3.3822,0.13825 -5.8989,0.40894 -11.148,1.199 -16.273,1.3474 -26.019,0.75069 -3.1618,-0.19365 -5.5124,-0.35485 -7.2956,-0.30442 -1.7832,0.05 -2.9994,0.31161 -3.8896,0.96353 -0.8902,0.65196 -1.4514,1.6936 -1.9271,3.2977 -0.47573,1.6041 -0.86684,3.7722 -1.4154,6.6831 -0.45436,2.411 -0.72786,4.1673 -1.0476,5.4432 -0.31969,1.276 -0.68622,2.0713 -1.3258,2.5657 -0.63957,0.49446 -1.5544,0.69017 -2.9784,0.76185 -1.4239,0.072 -3.3558,0.0184 -6.0202,0.0184 -2.694,0 -4.6234,0.10334 -6.0464,0.0152 -1.423,-0.0884 -2.3358,-0.36628 -3.0083,-1.1316 -0.67243,-0.76528 -1.1046,-2.022 -1.5517,-4.0633 -0.44715,-2.0413 -0.91143,-4.8672 -1.6507,-8.7745 -1.5054,-7.9566 -2.1548,-11.712 -3.1688,-13.934 -0.507,-1.1112 -1.1051,-1.8391 -1.9457,-2.5153 -0.84066,-0.67611 -1.924,-1.2999 -3.4004,-2.2072 -41.197,-25.316 -42.43,-86.078 -2.2647,-111.52 1.9414,-1.2298 3.0953,-2.1275 3.6655,-3.0064 C 34.87189,10.604 34.85362,9.74438 34.451,8.59978 34.1413,7.71913 33.71242,7.10668 33.1177,6.77728 32.52303,6.44792 31.7646,6.40233 30.8022,6.65032 c -1.9247,0.49584 -4.6721,2.1634 -8.6009,5.0922 -14.505,10.813 -22.313,23.753 -26.572,44.033 -0.097099,0.46222 -0.2116,0.76476 -0.32864,0.91498 -0.058901,0.07464 -0.11529,0.11077 -0.17172,0.11394 -0.056242,0.0027 -0.11658,-0.02528 -0.17742,-0.09142 -0.12158,-0.13171 -0.24442,-0.40722 -0.35669,-0.81228 -0.11227,-0.40517 -0.2148,-0.94138 -0.29695,-1.5984 -0.69227,-5.5408 -3.7896,-9.9281 -7.5776,-12.153 -3.788,-2.2244 -8.2692,-2.2845 -11.716,0.82906 -3.9005,3.5239 -5.0045,7.4527 -3.66,10.883 1.3445,3.4301 5.1347,6.3589 11.017,7.895 0.88506,0.23111 1.5469,0.39209 1.998,0.54521 0.22561,0.07642 0.39876,0.15216 0.52094,0.2316 0.12221,0.07908 0.19188,0.16261 0.21664,0.2577 0.02471,0.09516 0.0038,0.2034 -0.06325,0.33611 -0.06679,0.13272 -0.18025,0.28806 -0.33793,0.47245 -0.31548,0.36862 -0.8078,0.85498 -1.4602,1.5181 -2.6444,2.6879 -7.0082,4.8767 -10.562,5.2976 -2.1282,0.25205 -3.6077,1.0577 -4.278,2.1586 -0.67031,1.1009 -0.52599,2.4937 0.58817,3.9102 0.88728,1.128 2.4609,1.5465 4.3919,1.4117 1.9311,-0.13476 4.2208,-0.82168 6.5468,-1.9103 4.652,-2.1772 9.4473,-5.9581 11.792,-10.13 0.46394,-0.82546 0.89543,-1.4067 1.2754,-1.7516 0.18996,-0.1724 0.36724,-0.28456 0.52842,-0.33983 0.16119,-0.05533 0.3062,-0.05382 0.43504,0.0038 0.25791,0.11447 0.45517,0.45452 0.56955,1.0196 0.11436,0.56506 0.14655,1.3523 0.076396,2.3528 -1.8164,25.985 12.166,51.819 35.46,65.513 1.0426,0.61295 1.5593,0.91267 2.1082,2.5676 0.5489,1.6549 1.1261,4.6637 2.2819,10.679 1.5929,8.2905 2.4354,12.549 3.4079,14.978 0.97067,2.4244 2.078,3.0237 4.1809,3.9793 v 0.004 l 0.0096,0.004 c 0.82537,0.37487 1.632,0.59362 3.2454,0.7189 1.6133,0.12538 4.0331,0.15813 8.0874,0.16246 7.463,0.008 11.415,-0.1337 13.79,-1.7366 1.1877,-0.80148 1.9794,-1.9679 2.6161,-3.66 0.63667,-1.692 1.1191,-3.9101 1.6899,-6.8176 l 1.4584,-7.4245 12.259,0.16244 c 9.9775,0.13243 19.777004,-0.28202 24.546004,-1.0401 0.003,-4.6e-4 0.009,-4.7e-4 0.0152,0.004 0.007,0.004 0.0152,0.0114 0.0248,0.0221 0.0181,0.0224 0.0393,0.0598 0.0632,0.10833 0.0484,0.0974 0.10533,0.24409 0.16991,0.43504 0.12924,0.38213 0.28912,0.94061 0.46685,1.632 0.35543,1.3829 0.78443,3.2996 1.2044,5.4171 0.62427,3.148 1.133,5.5374 1.787,7.3479 0.65406,1.8105 1.4558,3.0423 2.6628,3.8728 2.414,1.6611 6.446,1.7138 14.182,1.6003 3.8201,-0.0562 6.6522,-0.0624 8.8138,-0.36039 2.1615,-0.29834 3.6534,-0.88852 4.7841,-2.1119 2.2614,-2.4468 3.0788,-7.4138 4.9783,-17.624 1.2376,-6.6524 1.8573,-9.9785 2.674,-11.936 0.81668,-1.9574 1.8289,-2.5487 3.8635,-3.7384 11.389,-6.6592 19.275,-14.243 27.55,-26.492 0.59151,-0.87562 0.97018,-1.3482 2.3136,-1.9607 1.3434,-0.61251 3.6512,-1.3627 8.0948,-2.7823 8.0176,-2.5617 12.261,-4.1584 14.505,-7.2136 2.2434,-3.0552 2.4799,-7.5619 2.4929,-15.938 0.0129,-8.2084 -0.29738,-12.823 -2.2332,-15.919 -1.9358,-3.0955 -5.4945,-4.6651 -11.966,-6.784 -3.2773,-1.073 -5.056,-1.7268 -6.2182,-2.6908 -1.1621,-0.96402 -1.7102,-2.2393 -2.5265,-4.5618 -2.4298,-6.9133 -6.9358,-14.322 -13.039,-21.442 -0.36591,-0.42688 -0.64001,-0.74683 -0.83284,-1.0513 -0.19285,-0.3045 -0.30439,-0.59204 -0.3473,-0.9598 -0.0861,-0.7355 0.10797,-1.788 0.49488,-3.8934 1.5761,-8.5777 2.0442,-15.377 1.2754,-20.464 -0.76889,-5.0866 -2.7766,-8.4621 -6.151,-10.186 -3.3743,-1.7242 -8.1124,-1.7974 -14.341,-0.28755 -6.2286,1.5098 -13.95,4.6038 -23.291,9.2134 -1.329,0.65573 -2.1872,1.0307 -2.8738,1.1988 -0.68656,0.16814 -1.2018,0.12975 -1.8505,-0.041279 -0.85525,-0.22526 -2.4496,-0.64237 -3.5442,-0.92619 -0.4975,-0.12905 -0.86982,-0.22454 -1.1335,-0.3305 -0.26365,-0.10594 -0.41607,-0.22165 -0.47985,-0.38462 -0.0641,-0.16305 -0.0404,-0.37943 0.0597,-0.6928 0.0999,-0.31337 0.27428,-0.72101 0.50788,-1.266 1.4165,-3.3045 2.4489,-7.3969 2.9112,-10.879 0.23114,-1.741 0.31978,-3.3296 0.24273,-4.5917 -0.0773,-1.2621 -0.31908,-2.1976 -0.75623,-2.6348 -0.70782,-0.70782 -1.4169,-1.1147 -2.0933,-1.2418 -0.67638,-0.12702 -1.3188,0.02543 -1.8897,0.43136 -1.1419,0.81123 -1.9984,2.6325 -2.2931,5.2602 -2.2516,20.078 -17.119,35.039 -33.567004,33.787 -5.8255,-0.44418 -9.0875,-0.44664 -14.683,-0.0059 -10.092,0.7949 -19.455,-4.7677 -25.73,-13.432 -6.2745,-8.6647 -9.4577,-20.43 -7.1892,-32.032 3.6051,-18.439 17.137,-29.863 32.394,-32.732 15.257,-2.8697 32.238004,2.8155 42.743004,18.6 1.4789,2.2222 2.9506,3.678 4.2407,4.4704 1.2901,0.79234 2.4008,0.92161 3.152,0.48363 0.75122,-0.43795 1.1372,-1.4395 0.98595,-2.8962 -0.15119,-1.4567 -0.8396,-3.3707 -2.2389,-5.6393 -9.7314,-15.777 -26.720004,-23.488 -43.415004,-22.654 z m 0.0019,0.02986 c 16.684,-0.83307 33.662,6.8745 43.387,22.641 1.3976,2.2658 2.0847,4.1744 2.2352,5.6244 0.15049,1.4499 -0.23343,2.4382 -0.971,2.8682 -0.73761,0.43004 -1.8356,0.30538 -3.1203,-0.48362 -1.2847,-0.789 -2.7542,-2.2415 -4.2313,-4.461 -10.512,-15.795 -27.506,-21.485 -42.775,-18.613 -15.268,2.8718 -28.811,14.306 -32.419,32.757 -2.2703,11.612 0.91549,23.385 7.1948,32.056 6.2793,8.6712 15.653,14.241 25.758,13.445 5.5943,-0.44102 8.8525,-0.4404 14.677,0.0038 16.468,1.2534 31.346,-13.723 33.599,-33.813 0.29413,-2.6228 1.1499,-4.435 2.28,-5.2378 0.56507,-0.4014 1.1988,-0.55127 1.8673,-0.42573 0.66855,0.12555 1.3736,0.52579 2.0783,1.2306 0.42564,0.42564 0.66821,1.357 0.74508,2.6161 0.0764,1.2591 -0.01,2.8465 -0.24089,4.5861 -0.46184,3.4793 -1.4943,7.5686 -2.9093,10.87 -0.23359,0.54503 -0.40903,0.95388 -0.50981,1.2698 -0.10075,0.31592 -0.12791,0.53933 -0.0597,0.71327 0.0677,0.17394 0.23167,0.29422 0.49856,0.40149 0.26689,0.10725 0.63965,0.20338 1.1372,0.33234 1.0945,0.28385 2.689,0.70097 3.5442,0.92618 0.65151,0.17155 1.1744,0.21032 1.8655,0.041279 0.69104,-0.1693 1.5517,-0.54653 2.8813,-1.2026 9.3403,-4.609 17.059,-7.7007 23.284,-9.2096 6.225,-1.5089 10.954,-1.4333 14.319,0.2857 3.3643,1.719 5.3662,5.083 6.1341,10.164 0.76801,5.0808 0.30037,11.877 -1.2754,20.453 -0.38682,2.1053 -0.57974,3.1568 -0.49294,3.9008 0.0431,0.37205 0.15635,0.66742 0.35105,0.97474 0.1947,0.30737 0.47062,0.62815 0.83653,1.055 6.1017,7.1181 10.604,14.523 13.032,21.431 0.8166,2.3233 1.369,3.6073 2.5377,4.5768 1.1687,0.96948 2.9498,1.6232 6.2275,2.6964 6.4702,2.1185 10.02,3.6858 11.949,6.7709 1.9293,3.0851 2.2423,7.6943 2.2296,15.902 -0.0129,8.3751 -0.25179,12.876 -2.4873,15.921 -2.2355,3.0444 -6.4728,4.6408 -14.49,7.2023 -4.4437,1.419601 -6.7517,2.168301 -8.0986,2.782301 -1.3469,0.614 -1.7346,1.0955 -2.3267,1.9719 -8.2732,12.246 -16.154,19.825 -27.539,26.482 -2.0345,1.1896 -3.0572,1.7878 -3.8766,3.7514 -0.81932,1.9637 -1.4383,5.2909 -2.6759,11.943 -1.8995,10.21 -2.7209,15.174 -4.9708,17.609 -1.1249,1.2172 -2.6074,1.8048 -4.7654,2.1026 -2.158,0.2979 -4.9916,0.30443 -8.8119,0.36038 -7.736,0.11348 -11.762,0.058 -14.164,-1.5947 -1.2006,-0.82608 -1.9969,-2.0507 -2.6497,-3.8579 -0.65283,-1.8072 -1.1609,-4.1964 -1.7852,-7.3442 -0.42002,-2.118 -0.85067,-4.0353 -1.2063,-5.419 -0.17783,-0.69184 -0.3372,-1.2504 -0.46685,-1.6339 -0.065,-0.1918 -0.12255,-0.33915 -0.17185,-0.43881 -0.0248,-0.0501 -0.0484,-0.0881 -0.0694,-0.11392 -0.0108,-0.0129 -0.0209,-0.0224 -0.0317,-0.0295 -0.0108,-0.007 -0.0209,-0.0114 -0.0333,-0.01 -4.7638,0.75738 -14.566,1.1745 -24.542,1.042 l -12.285,-0.16426 -1.4621,7.4506 c -0.57077,2.9072 -1.0527,5.1234 -1.6881,6.812 -0.63535,1.6886 -1.4234,2.8477 -2.6049,3.645 -2.363,1.5946 -6.3107,1.7392 -13.773,1.731 -4.0541,-0.004 -6.4741,-0.0371 -8.0855,-0.16246 -1.6085,-0.12491 -2.4094,-0.34084 -3.2305,-0.71327 l -0.0055,-0.004 c -2.1099,-0.95845 -3.2033,-1.545 -4.1734,-3.9681 -0.97017,-2.4231 -1.8131,-6.6836 -3.406,-14.974 -1.1558,-6.0155 -1.7334,-9.0218 -2.2837,-10.681 -0.55031,-1.6593 -1.0768,-1.9715 -2.1194,-2.5844 -23.284,-13.687 -37.263,-39.512001 -35.448,-65.484001 0.070297,-1.0023 0.038726,-1.7909 -0.076396,-2.3603 -0.11529,-0.56937 -0.31331,-0.92076 -0.58633,-1.042 -0.13652,-0.06061 -0.29068,-0.06325 -0.45754,-0.0059 -0.16683,0.05711 -0.34763,0.1731 -0.53967,0.34726 -0.38407,0.3485 -0.81606,0.93182 -1.281,1.759 -2.34,4.1635 -7.132,7.9423 -11.779,10.117 -2.3235,1.0874 -4.6101,1.774 -6.5356,1.9084 -1.9255,0.13435 -3.489,-0.28342 -4.3677,-1.4005 -1.1089,-1.4098 -1.2478,-2.7871 -0.58448,-3.8766 0.66337,-1.0895 2.1333,-1.8923 4.2556,-2.1437 3.5627,-0.42196 7.9299,-2.6129 10.58,-5.3069 0.65222,-0.66302 1.145,-1.1476 1.4621,-1.5181 0.15858,-0.18525 0.27273,-0.34155 0.34176,-0.47799 0.06945,-0.13654 0.09256,-0.25388 0.06502,-0.35851 -0.02727,-0.10463 -0.1056,-0.19452 -0.2316,-0.27637 -0.12588,-0.08169 -0.29982,-0.15646 -0.52659,-0.23342 -0.45356,-0.15397 -1.1151,-0.3161 -1.9999,-0.54715 -5.8764,-1.5345 -9.6571,-4.459 -10.997,-7.8764 -1.3396,-3.4174 -0.24176,-7.3309 3.6525,-10.849 3.4365,-3.1046 7.8991,-3.0427 11.678,-0.82344 3.7791,2.2192 6.8734,6.5966 7.5645,12.128 0.08258,0.6581 0.18407,1.1968 0.29695,1.604 0.11286,0.40727 0.23524,0.68393 0.36414,0.82353 0.064156,0.06943 0.13336,0.10647 0.20173,0.10269 0.068524,-0.0038 0.13255,-0.04843 0.19426,-0.12698 0.12327,-0.15824 0.23675,-0.46378 0.33428,-0.92806 4.258,-20.276 12.061,-33.206 26.561,-44.015 3.9277,-2.928 6.6742,-4.5931 8.5897,-5.0866 0.95774,-0.24678 1.707,-0.20135 2.2931,0.12325 0.58606,0.32462 1.0119,0.92921 1.3202,1.8057 0.40103,1.1404 0.41949,1.986 -0.14563,2.857 -0.56515,0.87097 -1.7178,1.7679 -3.6581,2.997 -40.184,25.456 -38.948,86.246001 2.2669,111.570001 1.4768,0.90751 2.5588,1.5314 3.3967,2.2053 0.83785,0.67392 1.431,1.3965 1.9364,2.5041 1.0107,2.2151 1.6615,5.9698 3.167,13.926 0.73919,3.9069 1.2032,6.7337 1.6507,8.7764 0.44753,2.0427 0.87826,3.3016 1.5573,4.0745 0.6791,0.77292 1.6045,1.0561 3.0307,1.1447 1.4261,0.0885 3.355,-0.0165 6.0482,-0.0165 2.664,0 4.5942,0.0538 6.0202,-0.0184 1.4261,-0.072 2.3494,-0.26679 2.997,-0.76748 0.64765,-0.50064 1.0167,-1.3041 1.337,-2.5825 0.32028,-1.2784 0.59327,-3.0346 1.0476,-5.4451 0.54855,-2.9111 0.93869,-5.0781 1.4136,-6.6794 0.47482,-1.6013 1.0332,-2.6345 1.9159,-3.2809 0.88262,-0.64642 2.0922,-0.90756 3.8728,-0.95794 1.7807,-0.0501 4.1318,0.10892 7.2937,0.30247 9.7475,0.59678 14.874,0.45027 26.022996,-0.74877 2.5165,-0.27066 4.4225,-0.45909 5.897,-0.41082 1.4745,0.0484 2.5167,0.33197 3.3126,1.0028 0.79586,0.67076 1.3465,1.7311 1.8318,3.335 0.4853,1.6039 0.90605,3.7506 1.4416,6.5935 0.50963,2.7053 0.80429,4.6599 1.1297,6.0725 0.3254,1.4127 0.68121,2.2849 1.3183,2.8178 0.63719,0.53283 1.5516,0.72346 2.9858,0.78241 1.4342,0.0589 3.3903,-0.0152 6.1155,-0.0152 2.9445,0 5.276,-0.043 6.896,-0.12698 0.80999,-0.042 1.4417,-0.0956 1.8841,-0.15682 0.22121,-0.0306 0.39384,-0.0633 0.51912,-0.0991 0.12528,-0.035 0.20391,-0.0703 0.23343,-0.11766 0.0125,-0.0203 0.0263,-0.058 0.0448,-0.11765 0.0184,-0.0598 0.0395,-0.1399 0.065,-0.23908 0.051,-0.1984 0.11693,-0.47509 0.19415,-0.81975 0.15453,-0.68929 0.35738,-1.6522 0.59564,-2.8215 0.47651,-2.3386 1.092,-5.4968 1.731,-8.909 1.7959,-9.5902 2.6096,-13.845 3.8878,-16.231 0.63912,-1.1931 1.3945,-1.92 2.448,-2.6161 1.0536,-0.69615 2.4066,-1.3608 4.2388,-2.4275 9.7035,-5.6492 17.745,-13.085 23.502,-21.734 2.0628,-3.098601 3.0431,-4.722601 4.8139,-5.994001 1.7708,-1.2714 4.3355,-2.1915 9.5663,-3.8784 3.4779,-1.1216 6.0168,-1.8716 7.8708,-2.5844 1.854,-0.71284 3.0228,-1.3887 3.757,-2.3659 0.73419,-0.97715 1.0326,-2.2539 1.1465,-4.1604 0.11392,-1.9065 0.0448,-4.4439 0.0448,-7.951 0,-6.7026 0.11736,-9.8593 -1.0027,-11.757 -0.56009,-0.94888 -1.4294,-1.5809 -2.773,-2.1794 -1.3436,-0.59845 -3.1632,-1.1641 -5.6262,-1.985 -4.4215,-1.4736 -6.8751,-2.4293 -8.5953,-3.9681 -1.7202,-1.5388 -2.7106,-3.6635 -4.2033,-7.4805 -2.6672,-6.82 -5.1014,-11.476 -7.1668,-13.811 -1.0327,-1.1674 -1.973,-1.7555 -2.8084,-1.7403 -0.83547,0.01519 -1.558,0.63692 -2.1493,1.8748 -1.7501,3.6638 -3.9355,6.2632 -6.797,7.9436 -2.8616,1.6803 -6.4004,2.4422 -10.862,2.4256 -9.6667,-0.03605 -17.511,-4.045 -22.477,-10.623 -4.9659,-6.5781 -7.0529,-15.726 -5.2024,-26.045 0.32945,-1.8372 0.4947,-2.7558 0.36415,-3.2771 -0.065,-0.26066 -0.20715,-0.4209 -0.43697,-0.54152 -0.22983,-0.12061 -0.54697,-0.20382 -0.96915,-0.31372 -2.3738,-0.61769 -3.5998,-0.92177 -4.4386,-0.79173 -0.4194,0.065 -0.74138,0.2394 -1.0569,0.5359 -0.31548,0.29659 -0.62543,0.71494 -1.0252,1.2698 -2.7191,3.7744 -5.3906,6.4921 -9.2077,9.3683 -1.0576,0.79691 -1.9376,1.5342 -2.5097,2.0858 -0.28607,0.27577 -0.49393,0.50533 -0.61058,0.67409 -0.058,0.08435 -0.0946,0.15243 -0.10453,0.20724 -0.005,0.02724 -0.003,0.0527 0.007,0.07293 0.0108,0.02026 0.0296,0.03512 0.0545,0.04305 3.8303,1.2103 5.8201,1.8672 6.8493,2.562 0.51464,0.34737 0.78856,0.7022 0.93552,1.1428 0.14699,0.44058 0.16619,0.96717 0.16619,1.6544 0,1.3627 -0.92862,2.5352 -2.4368,3.068 -0.10183,0.03605 -0.345,0.03229 -0.68718,-0.0059 -0.3422,-0.03873 -0.78505,-0.11014 -1.2997,-0.21286 -1.0292,-0.20549 -2.3415,-0.52826 -3.6861,-0.91686 -17.261996,-4.9894 -37.385996,-4.7946 -54.288996,0.52476 -2.0592,0.64809 -3.6156,0.71222 -4.6552,0.20726 -1.0396,-0.50495 -1.5667,-1.5784 -1.5667,-3.2249 0,-0.77854 0.4373,-1.5084 1.2772,-2.1586 0.83986,-0.6502 2.0812,-1.2209 3.6824,-1.6769 0.78136,-0.22244 1.5347,-0.44866 2.1175,-0.63491 0.29138,-0.09311 0.53906,-0.17552 0.7283,-0.24274 0.18913,-0.06766 0.31899,-0.11947 0.37347,-0.15129 0.01659,-0.0097 0.02728,-0.02636 0.02949,-0.04478 0.0029,-0.01836 -0.0011,-0.03955 -0.0096,-0.06325 -0.01659,-0.0474 -0.05275,-0.10611 -0.10645,-0.17736 -0.10752,-0.14249 -0.28659,-0.3327 -0.52282,-0.5583 -0.47233,-0.45109 -1.1747,-1.0416 -1.994,-1.6655 -21.842,-16.635 -25.664,-47.484 -8.5078,-68.678 9.0708,-11.206 21.869,-17.021 34.846,-17.669 z m 90.01,64.07 c -1.3326,0 -3.8754,0.56542 -6.9875,1.4584 -3.1121,0.89294 -6.7931,2.1132 -10.393,3.4265 -3.6004,1.3133 -7.1214,2.7196 -9.9155,3.9811 -1.397,0.63078 -2.6118,1.2259 -3.5647,1.7553 -0.95288,0.5294 -1.6439,0.99194 -1.9924,1.3632 -0.71916,0.7659 -1.238,2.1956 -1.5686,4.0017 -0.33051,1.806 -0.47124,3.9891 -0.42758,6.263 0.087,4.5479 0.91072,9.4577 2.4294,12.434 2.1537,4.2216 6.3862,7.5018 11.131,9.2638 4.7449,1.7619 10.003,2.0042 14.208,0.1438 2.097,-0.9276 4.0683,-4.146 5.7308,-8.4515 1.6625,-4.3055 3.0148,-9.6981 3.8635,-14.976 0.84874,-5.2778 1.1943,-10.441 0.84215,-14.285 -0.17602,-1.9222 -0.52729,-3.5152 -1.0774,-4.6291 -0.55013,-1.1139 -1.3017,-1.7497 -2.2781,-1.7497 z m 0,0.029862 c 0.9632,0 1.7047,0.62656 2.252,1.7347 0.54732,1.1081 0.89782,2.6978 1.0737,4.6179 0.35175,3.8401 0.007,8.9996 -0.84216,14.276 -0.84848,5.276 -2.2002,10.668 -3.8616,14.97 -1.6614,4.3027 -3.6345,7.5149 -5.714,8.4347 -4.1963,1.8562 -9.4472,1.6159 -14.186,-0.1438 -4.7389,-1.7597 -8.965,-5.0378 -11.114,-9.2507 -1.5145,-2.9687 -2.3384,-7.8768 -2.4256,-12.421 -0.0439,-2.2723 0.0958,-4.4541 0.42573,-6.2574 0.32997,-1.8033 0.84988,-3.2275 1.5611,-3.9849 0.34342,-0.36573 1.0332,-0.8288 1.985,-1.3575 0.95173,-0.52878 2.1663,-1.1229 3.5628,-1.7534 2.793,-1.261 6.3138,-2.6661 9.9136,-3.9792 3.5998,-1.3131 7.2786,-2.5357 10.39,-3.4284 3.1112,-0.89266 5.6561,-1.4565 6.98,-1.4565 z m -183.9,55.191 c -0.60425,0.17073 -1.1844,0.56401 -1.7123,1.1914 -0.5692,0.67646 -0.88671,1.3116 -0.9486,1.9084 -0.06152,0.59679 0.13325,1.1558 0.58632,1.675 0.90616,1.0384 2.8419,1.9254 5.8298,2.6964 0.80244,0.20705 1.4175,0.33568 1.8636,0.35474 0.22305,0.0097 0.40431,-0.0074 0.54521,-0.05797 0.14091,-0.05006 0.24247,-0.13344 0.30248,-0.25205 0.12,-0.23719 0.07821,-0.61066 -0.10269,-1.1521 -0.18061,-0.54143 -0.50269,-1.251 -0.9486,-2.1624 -1.0479,-2.1419 -2.2976,-3.5223 -3.5535,-4.054 -0.62797,-0.26582 -1.2574,-0.3182 -1.8617,-0.14754 z m 0.0074,0.02796 c 0.59757,-0.16896 1.2186,-0.11597 1.8412,0.14754 1.2451,0.52702 2.4945,1.9011 3.5404,4.039 0.4457,0.91094 0.7652,1.6217 0.94487,2.1605 0.17966,0.53871 0.21734,0.90495 0.10453,1.1279 -0.05624,0.11147 -0.15043,0.18913 -0.2857,0.23714 -0.13532,0.04843 -0.31143,0.06587 -0.53219,0.05624 -0.44145,-0.01815 -1.0563,-0.14796 -1.858,-0.35485 -2.9855,-0.77038 -4.9153,-1.6584 -5.813,-2.6871 -0.44882,-0.51426 -0.64176,-1.0624 -0.58071,-1.6507 0.06059,-0.58826 0.37627,-1.218 0.943,-1.8916 0.52482,-0.62375 1.098,-1.0149 1.6955,-1.1839 z"
             color="#000000"
             color-rendering="auto"
             dominant-baseline="auto"
             fill-opacity="0.90283"
             image-rendering="auto"
             shape-rendering="auto"
             solid-color="#000000"
             stop-color="#000000"
             style="font-variant-ligatures:normal;font-variant-position:normal;font-variant-caps:normal;font-variant-numeric:normal;font-variant-alternates:normal;font-variant-east-asian:normal;font-feature-settings:normal;font-variation-settings:normal;text-indent:0;text-decoration:none;text-decoration-line:none;text-decoration-style:solid;text-decoration-color:#000000;text-transform:none;text-orientation:mixed;white-space:normal;shape-padding:0;shape-margin:0;inline-size:0;isolation:auto;mix-blend-mode:normal;fill:#ea000d;fill-opacity:0.204453"
             id="path994" />
          <path
             d="m 40.644,153.93 c -1.6556,-0.61209 -2.3509,-2.7378 -4.4508,-13.608 -2.3372,-12.098 -2.6369,-13.274 -3.8114,-14.947 -0.46349,-0.66048 -3.0192,-2.6454 -5.6794,-4.4111 -15.483,-10.276 -25.006,-24.089 -29.189,-42.337 -0.96792,-4.2223 -1.0542,-5.3074 -1.0745,-13.517 -0.019323,-7.7986 0.090724,-9.4744 0.87093,-13.262 1.9568,-9.5001 6.1025,-18.686 11.855,-26.268 4.4159,-5.8202 8.2124,-9.3826 15.243,-14.303 3.0736,-2.1512 6.6326,-4.8933 7.9088,-6.0937 l 2.3203,-2.1825 1.3463,1.5321 c 0.74047,0.84265 3.1398,3.0818 5.332,4.9759 l 3.9856,3.4438 -1.3501,0.33473 c -6.0873,1.5093 -8.2089,4.1176 -5.8668,7.2129 1.2279,1.6228 2.1331,1.5987 9.2806,-0.24752 9.4323,-2.4364 12.978,-2.8389 24.702,-2.8043 11.498,0.03393 15.654,0.5415 24.974,3.05 5.6755,1.5276 6.8589,1.5561 8.1667,0.19664 1.1982,-1.2456 1.3587,-3.4768 0.33801,-4.6976 -0.37341,-0.44662 -2.0668,-1.3116 -3.7631,-1.9221 -1.6963,-0.61054 -3.1378,-1.1741 -3.2033,-1.2523 -0.06549,-0.07821 0.97658,-1.0075 2.3158,-2.0651 3.5024,-2.7658 7.1886,-6.4302 9.1731,-9.1186 1.4887,-2.0167 1.9311,-2.3294 3.2807,-2.3189 1.5259,0.011854 4.3502,0.69984 4.6839,1.1409 0.0924,0.12216 -0.11892,2.467 -0.46967,5.2108 -0.52962,4.1429 -0.56406,5.6911 -0.2032,9.1316 1.2284,11.712 8.1026,20.808 18.391,24.336 3.9036,1.3385 12.102,1.8698 15.783,1.0227 5.0942,-1.1724 6.6596,-2.2783 10.359,-7.3188 3.3297,-4.5362 3.3842,-4.584 4.5203,-3.962 2.3083,1.2636 4.8431,5.5316 8.5205,14.347 2.2425,5.3753 3.7537,7.7374 5.8747,9.1821 0.79411,0.5409 4.0941,1.9139 7.3333,3.051 6.369,2.2359 7.943,3.158 8.6811,5.0856 0.66471,1.7358 0.66543,19.636 7.7e-4,21.35 -0.72889,1.8793 -2.6481,2.9155 -9.5659,5.1647 -3.4922,1.1355 -7.7388,2.6581 -9.4371,3.3836 -3.0466,1.3017 -3.1493,1.4023 -7.7192,7.5707 -7.8895,10.649 -14.399,16.499 -25.088,22.545 -3.462,1.9582 -4.5631,3.1075 -5.6423,5.8889 -0.40846,1.0527 -1.8426,7.5422 -3.1871,14.421 -1.3444,6.8788 -2.567,12.669 -2.7168,12.867 -0.14981,0.19798 -4.164,0.3652 -8.9204,0.37161 -8.2277,0.0114 -8.6869,-0.0396 -9.4465,-1.0409 -0.51822,-0.68315 -1.2584,-3.3985 -2.1091,-7.7367 -2.4442,-12.465 -2.3664,-12.408 -15.065,-11.091 -5.993,0.6216 -11.541,0.79582 -21.291,0.66858 l -13.186,-0.17212 -1.0321,1.2752 c -1.3201,1.6311 -1.7551,3.0584 -3.0624,10.048 -0.5876,3.1415 -1.2725,6.0808 -1.522,6.5317 -0.24949,0.45092 -1.1437,1.0313 -1.9871,1.2897 -1.7419,0.53372 -13.784,0.57227 -15.2,0.0487 z m 120.77,-83.974 c 0,-1.6478 0.0901,-1.7853 1.1703,-1.7853 1.6896,0 3.5883,-1.187 4.3473,-2.718 0.88565,-1.7864 0.85811,-5.797 -0.0523,-7.6218 -0.81252,-1.6285 -2.6974,-3.5716 -4.3336,-4.4673 -1.1314,-0.61934 -1.1316,-0.62055 -1.1316,-5.1484 0,-4.6367 0.14222,-5.0102 1.5332,-4.0263 0.56953,0.40283 0.66958,0.90665 0.504,2.5382 -0.18801,1.8525 -0.11308,2.0826 0.83316,2.558 1.4859,0.7466 2.5331,-0.1155 2.5331,-2.0853 0,-2.0336 -1.6939,-4.273 -3.7986,-5.022 -1.3308,-0.47359 -1.6048,-0.78553 -1.6048,-1.8267 0,-0.9155 -0.20907,-1.2556 -0.77193,-1.2556 -0.55499,0 -0.77193,0.34006 -0.77193,1.21 0,1.0225 -0.24565,1.2619 -1.5846,1.5449 -0.99632,0.21056 -1.9994,0.883 -2.7017,1.8113 -0.93863,1.2405 -1.1171,1.8899 -1.1171,4.0646 0,2.2343 0.18207,2.8546 1.3314,4.5359 0.73227,1.0712 1.948,2.3865 2.7017,2.923 l 1.3703,0.97531 v 10.08 l -1.0614,-0.34644 c -1.4359,-0.46869 -1.908,-1.1447 -1.3316,-1.9065 0.988,-1.3058 0.41181,-3.2102 -1.1256,-3.7201 -1.1437,-0.37938 -2.2709,0.75687 -2.2709,2.2892 0,1.6095 1.8931,4.0242 3.8895,4.9613 1.7502,0.82156 1.8999,1.023 1.8999,2.5574 0,1.3255 0.15761,1.6656 0.77193,1.6656 0.62489,0 0.77193,-0.34005 0.77193,-1.7853 z"
             fill-opacity="0.44939"
             id="path996"
             style="fill:#ea000d;fill-opacity:0.204453" />
          <path
             d="m 161.44,61.642 v -4.7772 l 0.46054,0.33612 c 1.6815,1.2272 2.5545,2.4407 2.8182,3.9175 0.0487,0.27277 0.0863,0.82605 0.0836,1.2295 -0.009,1.2743 -0.33552,2.3674 -0.94217,3.1501 -0.52355,0.67554 -0.80804,0.82339 -1.6868,0.87663 l -0.73346,0.04443 z"
             fill-opacity="0.45344"
             id="path998"
             style="fill:#ea000d;fill-opacity:0.204453" />
          <path
             d="m 159.54,51.62 c -1.1504,-0.86795 -1.813,-1.745 -2.1399,-2.8325 -0.13547,-0.45069 -0.15595,-0.68161 -0.15788,-1.7803 -0.002,-1.1232 0.0157,-1.3211 0.15983,-1.7949 0.22134,-0.72744 0.76003,-1.4598 1.1336,-1.5412 0.26972,-0.05876 1.0907,-0.32709 1.3748,-0.44935 l 0.14664,-0.0631 -0.01,4.4265 c -0.005,2.4346 -0.01,4.4227 -0.01,4.4181 0,-0.0046 -0.22349,-0.17703 -0.49665,-0.38312 z"
             fill-opacity="0.49393"
             id="path1000"
             style="fill:#ea000d;fill-opacity:0.204453" />
          <path
             d="m 140.21,32.58 c -3.5401,-1.0317 -6.5821,-2.7048 -9.2014,-5.0608 -4.2716,-3.8422 -6.1434,-9.1 -6.1916,-17.392 -0.0309,-5.3176 0.52434,-7.8864 2.0783,-9.6145 2.7812,-3.0929 30.027,-12.841 33.069,-11.832 2.4942,0.82732 3.2348,9.4905 1.6758,19.601 -1.45,9.4034 -4.1653,17.616 -7.0645,21.368 -1.2202,1.5789 -2.2059,2.3056 -3.9292,2.8968 -2.7566,0.94564 -7.2562,0.95993 -10.436,0.03314 z"
             fill-opacity="0.5081"
             id="path1002"
             style="fill:#ea000d;fill-opacity:0.204453" />
        </g>
        <g
           fill="#ea7e00"
           id="g1012"
           style="fill:#ea000d;fill-opacity:0.204453">
          <path
             d="m 56.271,8.8884 c -15.358,-4.0741 -27.379,-23.945 -24.946,-41.235 2.2663,-16.106 12.348,-28.696 27.404,-34.22 2.7407,-1.0056 5.5932,-1.3071 12.553,-1.3267 10.285,-0.02891 13.683,0.83845 21.109,5.3882 5.7378,3.5153 8.4438,5.6863 13.057,12.064 2.9535,4.0834 5.7241,6.1846 6.7762,11.116 0.45925,2.1525 0.66459,4.8928 0.5846,8.6848 -0.12976,6.1508 -2.3022,10.061 -1.8299,10.813 0.54416,0.8668 0.31057,2.0584 -1.2439,6.3452 -2.3696,6.5347 -8.2084,14.476 -13.173,17.917 C 90.171,8.8644 86.408,9.6352 71.604,9.5462 64.372,9.502724 57.472,9.20653 56.272,8.88799 Z m 18.285,-11.157 c 0,-3.197 0.02637,-3.2432 2.0961,-3.6807 3.3901,-0.71644 7.2726,-3.9098 8.6914,-7.1485 1.0438,-2.3828 1.2341,-3.7164 1.0924,-7.6541 -0.22928,-6.3729 -1.6685,-8.8426 -7.4824,-12.84 l -4.3975,-3.0236 v -17.961 h 1.3041 c 0.71726,0 1.8818,0.61828 2.588,1.3739 1.2273,1.3134 1.242,1.4351 0.33338,2.762 -1.914,2.7951 -0.40725,6.6847 2.5894,6.6847 5.0523,0 4.7445,-8.8839 -0.42232,-12.19 -1.3038,-0.83415 -2.887,-1.5166 -3.5182,-1.5166 -2.1915,0 -2.8744,-0.78952 -2.8744,-3.3234 0,-2.2275 -0.1443,-2.4476 -1.6046,-2.4476 -1.4583,0 -1.62,0.24518 -1.774,2.6891 -0.16182,2.5688 -0.27723,2.7132 -2.5789,3.2288 -4.9796,1.1154 -8.2342,5.8856 -8.2342,12.068 0,6.0887 2.7929,10.925 8.0417,13.925 l 2.8563,1.6327 0.0097,10.374 0.0097,10.374 -2.0091,-0.43088 c -2.5058,-0.53741 -3.9722,-2.2408 -3.0165,-3.5039 0.36239,-0.47894 0.6589,-1.9346 0.6589,-3.2347 0,-4.5869 -4.36,-6.0045 -6.3184,-2.0543 -1.9604,3.9541 1.0903,9.4412 6.4098,11.529 1.5598,0.61217 3.1598,1.113 3.5556,1.113 0.48907,0 0.71968,1.0402 0.71968,3.2462 0,3.126 0.06063,3.2462 1.6375,3.2462 1.5762,0 1.6375,-0.12117 1.6375,-3.2377 z"
             fill-opacity="0.53239"
             id="path1006"
             style="fill:#ea000d;fill-opacity:0.204453" />
          <path
             d="m 74.347,-18.319 c 0,-6.5091 0.04625,-9.7529 0.13918,-9.7529 0.2399,0 2.623,1.6398 3.4087,2.3456 0.8992,0.80767 1.8647,2.1387 2.3575,3.2501 0.99239,2.238 1.0039,5.8255 0.02734,8.5535 -0.43618,1.2185 -1.5925,2.9171 -2.5232,3.7064 -0.65621,0.55652 -2.0608,1.2804 -2.9661,1.5286 l -0.44348,0.12159 z"
             fill-opacity="0.50202"
             id="path1008"
             style="fill:#ea000d;fill-opacity:0.204453" />
          <path
             d="m 70.359,-38.343 c -2.0064,-1.3426 -3.262,-2.8282 -3.86,-4.5671 -0.96474,-2.8051 -0.71888,-6.8969 0.55222,-9.1905 0.78125,-1.4097 2.35,-2.5588 3.9942,-2.926 l 0.57236,-0.1278 v 8.7625 c 0,4.8194 -0.04604,8.7607 -0.10234,8.7584 -0.0563,-0.0023 -0.57668,-0.3216 -1.1564,-0.70955 z"
             fill-opacity="0.48785"
             id="path1010"
             style="fill:#ea000d;fill-opacity:0.204453" />
        </g>
        <path
           style="fill:#ea000d;fill-opacity:0.204453;stroke-width:0"
           d="m 492.38375,469.03779 c 0,-1.40041 -1.39646,-2.67155 -4.57774,-4.16693 -4.81474,-2.26319 -7.07946,-5.08143 -6.11116,-7.60479 0.33662,-0.87721 1.53019,-1.37155 2.8557,-1.18273 1.83904,0.26198 2.23514,0.89996 2.05797,3.31472 -0.22904,3.1218 1.01693,4.54215 4.00747,4.56832 1.52753,0.0134 1.76776,-1.01216 1.76776,-7.54634 v -7.56181 l -3.96568,-2.62437 c -2.18112,-1.4434 -4.69429,-4.1598 -5.58482,-6.03645 -1.97965,-4.1718 -1.17206,-8.54044 1.57879,-8.54044 1.51033,0 1.9108,0.74097 1.9108,3.53553 0,3.42271 2.76895,7.57615 5.05076,7.57615 0.56807,0 1.01015,-2.8256 1.01015,-6.45649 0,-6.05038 0.15939,-6.49648 2.5341,-7.0925 5.23268,-1.31332 12.03901,5.44085 8.77355,8.70631 -1.82376,1.82377 -4.08454,0.0681 -4.4208,-3.43316 -0.24729,-2.57487 -0.842,-3.41493 -2.5937,-3.66371 -2.15876,-0.3066 -2.27284,0.01 -2.27284,6.30078 0,6.59346 0.0178,6.63481 3.91478,9.09487 6.22545,3.92995 8.49539,7.4411 7.86516,12.16582 -0.56175,4.21129 -2.53018,6.32761 -6.72918,7.23475 -4.57977,0.9894 -5.05076,1.30418 -5.05076,3.37559 0,1.1286 -0.45457,2.05201 -1.01015,2.05201 -0.55559,0 -1.01016,-0.90681 -1.01016,-2.01513 z m 7.82868,-6.31341 c 0.69448,-0.55562 1.2627,-2.73983 1.2627,-4.85382 0,-2.94914 -0.6194,-4.33082 -2.66161,-5.93722 -1.46389,-1.1515 -3.05488,-2.09363 -3.53554,-2.09363 -0.48066,0 -0.87392,3.4399 -0.87392,7.64422 0,7.46035 0.0547,7.62746 2.27284,6.94744 1.25006,-0.38323 2.84105,-1.15138 3.53553,-1.70699 z"
           id="path1049"
           transform="matrix(0.51207905,0,0,0.6767643,-91.961919,-247.66482)" />
        <path
           style="fill:#ea000d;fill-opacity:0.204453;stroke-width:0"
           d="m 483.27964,430.71759 c 1.58709,-1.61571 3.26894,-2.49209 5.58036,-2.90783 1.7982,-0.32343 2.48458,-0.6096 2.76561,-1.15307 0.0752,-0.14535 0.17019,-0.6578 0.21117,-1.13877 0.11833,-1.38901 0.4016,-1.72301 1.46075,-1.72238 0.67184,4e-4 1.09325,0.21521 1.27306,0.64894 0.0657,0.15853 0.14835,0.64983 0.18364,1.0918 0.1014,1.2702 0.32418,1.65125 1.23534,2.11301 0.28734,0.14561 0.50832,0.2776 0.49107,0.29331 -0.0959,0.0873 -2.12221,0.92439 -2.96946,1.22665 -2.91415,1.03963 -6.89265,1.90409 -10.41011,2.26192 l -0.58036,0.059 z"
           id="path1051"
           transform="matrix(0.51207905,0,0,0.6767643,-91.961919,-247.66482)" />
        <path
           style="fill:#ea000d;fill-opacity:0.204453;stroke-width:0"
           d="m 491.85107,456.01451 v -7.09618 l -1.39981,-0.74805 c -0.76989,-0.41142 -1.74422,-0.97436 -2.16517,-1.25096 -2.47858,-1.62865 -5.44848,-4.59437 -6.29698,-6.28811 -0.57937,-1.15651 -0.62942,-1.49578 -0.62651,-4.24672 0.003,-2.40797 0.007,-2.4687 0.23588,-3.14678 0.12831,-0.38028 0.36105,-0.89053 0.51721,-1.13388 0.25076,-0.39078 0.3275,-0.44798 0.65697,-0.48974 0.20518,-0.026 0.89538,-0.11066 1.53377,-0.18811 1.05502,-0.128 3.47376,-0.51654 3.93961,-0.63284 0.13194,-0.0329 0.0284,0.11842 -0.34038,0.49765 -1.06263,1.09271 -1.37208,2.17749 -1.30025,4.55799 0.0486,1.60898 -0.079,1.27595 -0.20521,-0.53572 -0.15735,-2.25902 -0.17575,-2.38289 -0.42655,-2.87135 -0.3066,-0.59713 -0.65538,-0.78936 -1.43226,-0.78936 -0.76769,0 -1.19589,0.14273 -1.6638,0.55461 -1.74951,1.53998 -1.50283,5.92831 0.50648,9.00979 1.03712,1.59053 2.72312,3.35959 4.36398,4.57898 0.46878,0.34837 1.68601,1.17582 2.70495,1.83876 l 1.85261,1.20536 -0.0352,6.42857 c -0.0303,5.51885 -0.0558,6.522 -0.18061,7.08876 -0.08,0.3631 -0.16637,0.68118 -0.19203,0.70684 -0.0257,0.0257 -0.0467,-3.14662 -0.0467,-7.04951 z"
           id="path1053"
           transform="matrix(0.51207905,0,0,0.6767643,-91.961919,-247.66482)" />
        <path
           style="fill:#ea000d;fill-opacity:0.204453;stroke-width:0"
           d="m 492.19355,434.91128 c 0.0165,-2.79911 0.0567,-5.11299 0.0893,-5.14197 0.0326,-0.029 0.56155,-0.22512 1.17538,-0.43588 0.61384,-0.21077 1.61272,-0.59948 2.21972,-0.8638 l 1.10365,-0.48059 1.08385,0.3194 c 3.8531,1.13547 6.7675,3.75624 7.34921,6.60876 0.34019,1.6682 -0.32325,3.3425 -1.55633,3.92764 -0.61624,0.29242 -1.28586,0.35014 -2.13239,0.18381 -0.97545,-0.19166 -2.00187,-0.61293 -2.39363,-0.98241 -0.49542,-0.46724 -0.5451,-0.82719 -0.36492,-2.64389 0.23496,-2.36896 0.26041,-2.459 0.3912,-1.38393 0.16042,1.31867 0.34972,2.05761 0.73459,2.86758 0.91865,1.93331 2.59858,2.36564 3.89208,1.00163 1.11249,-1.17313 1.01806,-3.0261 -0.24798,-4.86623 -0.46311,-0.67311 -1.43936,-1.64834 -2.1939,-2.19162 -2.34644,-1.68945 -4.86586,-2.20982 -7.07705,-1.46172 -1.0637,0.35988 -1.47912,0.82013 -1.70325,1.8871 -0.0511,0.24301 -0.13323,1.96862 -0.18264,3.83469 -0.143,5.40105 -0.21931,5.32813 -0.18687,-0.17857 z"
           id="path1055"
           transform="matrix(0.51207905,0,0,0.6767643,-91.961919,-247.66482)" />
        <path
           style="fill:#e97c00;fill-opacity:0.45098;stroke-width:0"
           d=""
           id="path1057"
           transform="matrix(0.51207905,0,0,0.6767643,-91.961919,-247.66482)" />
        <path
           style="fill:#ea000d;fill-opacity:0.204453;stroke-width:0"
           d="m 494.90465,443.12912 c -0.0552,-0.12123 -0.17225,-0.55332 -0.26004,-0.9602 -0.1408,-0.65259 -0.15961,-1.2449 -0.15961,-5.0255 0,-4.58212 0.0531,-5.30309 0.4319,-5.86201 0.26297,-0.38804 0.48237,-0.46222 0.29491,-0.0997 -0.32752,0.63336 -0.36967,1.35884 -0.36967,6.36351 0,3.69965 0.0277,4.97033 0.11563,5.30104 0.12817,0.48216 0.10176,0.6228 -0.0531,0.28287 z"
           id="path1059"
           transform="matrix(0.51207905,0,0,0.6767643,-91.961919,-247.66482)" />
        <path
           style="fill:#ea000d;fill-opacity:0.204453;stroke-width:0"
           d="m 490.58164,442.55076 c -0.82564,-0.32278 -1.81117,-1.21248 -2.51104,-2.26688 -0.55627,-0.83806 -0.48103,-0.84712 0.32675,-0.0393 0.68802,0.68802 1.94226,1.61064 2.91404,2.14357 0.58777,0.32235 0.009,0.45137 -0.72975,0.16264 z"
           id="path1061"
           transform="matrix(0.51207905,0,0,0.6767643,-91.961919,-247.66482)" />
        <path
           style="fill:#ea000d;fill-opacity:0.204453;stroke-width:0"
           d="m 495.69036,466.69667 c 0,-0.0768 1.44872,-0.48871 2.99107,-0.85035 2.0121,-0.47177 2.73849,-0.71145 3.74173,-1.23461 1.92118,-1.00182 3.06796,-2.66157 3.64869,-5.28079 0.28124,-1.26844 0.27559,-3.58292 -0.0113,-4.64286 -0.82958,-3.06454 -3.06771,-5.5159 -7.82985,-8.57581 -1.45138,-0.93259 -2.49114,-1.68168 -2.42542,-1.7474 0.0592,-0.0592 2.53964,1.09236 3.2268,1.49802 3.35185,1.97875 6.15159,4.64557 6.93252,6.60341 1.11463,2.79441 1.06348,7.24441 -0.11003,9.57255 -0.64691,1.28342 -1.8033,2.35902 -3.45092,3.20983 -1.66081,0.85762 -3.17792,1.279 -4.90571,1.36256 -0.52763,0.0255 -1.15018,0.0634 -1.38344,0.0842 -0.23325,0.0208 -0.4241,0.0213 -0.4241,10e-4 z"
           id="path1063"
           transform="matrix(0.51207905,0,0,0.6767643,-91.961919,-247.66482)" />
        <path
           style="fill:#ea000d;fill-opacity:0.204453;stroke-width:0"
           d="m 501.1941,455.91102 c -0.0953,-0.48169 -0.6709,-1.55621 -1.18332,-2.20901 -0.76798,-0.97839 -2.58941,-2.37943 -4.2981,-3.3061 -0.30692,-0.16645 -0.55804,-0.33117 -0.55804,-0.36604 0,-0.30859 0.90411,0.0733 2.2204,0.93782 1.84015,1.20862 2.86351,2.20067 3.39499,3.29116 0.29716,0.60969 0.57731,1.59218 0.52425,1.83855 -0.0181,0.0842 -0.0632,3.7e-4 -0.10018,-0.18638 z"
           id="path1065"
           transform="matrix(0.51207905,0,0,0.6767643,-91.961919,-247.66482)" />
        <path
           style="fill:#ea000d;fill-opacity:0.204453;stroke-width:0"
           d="m 490.82429,466.86223 c -0.26583,-0.21077 -1.18941,-0.62177 -2.38633,-1.06195 -1.35127,-0.49694 -2.47569,-1.06224 -3.55117,-1.78535 -2.424,-1.62979 -4.15496,-3.77682 -4.34611,-5.39074 -0.10815,-0.91312 0.31557,-1.94847 1.10166,-2.69192 0.60704,-0.57412 1.27594,-0.88214 2.0578,-0.94762 1.57575,-0.13196 3.31178,0.78643 4.01144,2.12211 0.22015,0.42026 0.25306,0.58179 0.25306,1.24202 0,0.87888 -0.1783,1.30866 -0.88276,2.12782 l -0.40938,0.47605 -0.005,-0.38676 c -0.0395,-3.22885 -0.0339,-3.14313 -0.22625,-3.51175 -0.33943,-0.65057 -0.92106,-0.91667 -2.18466,-0.9995 -1.84803,-0.12115 -2.81485,0.71802 -2.79742,2.42807 0.0121,1.18491 0.60492,2.30731 1.84912,3.50082 1.17693,1.12898 2.46456,1.95684 4.84491,3.11495 1.16828,0.5684 2.64281,1.46956 2.88264,1.76173 0.15436,0.18805 0.0244,0.18929 -0.21182,0.002 z"
           id="path1067"
           transform="matrix(0.51207905,0,0,0.6767643,-91.961919,-247.66482)" />
        <path
           style="fill:#ea000d;fill-opacity:0.204453;stroke-width:0"
           d="m 489.1056,463.74653 c -0.70228,-0.1891 -1.18502,-0.46322 -1.60841,-0.91331 -0.20936,-0.22256 -0.37007,-0.41514 -0.35714,-0.42794 0.0129,-0.0128 0.34639,0.13334 0.741,0.32477 0.42858,0.2079 1.26357,0.48732 2.07366,0.69395 0.74591,0.19025 1.33041,0.37169 1.29889,0.4032 -0.10578,0.10578 -1.67435,0.0469 -2.148,-0.0807 z"
           id="path1069"
           transform="matrix(0.51207905,0,0,0.6767643,-91.961919,-247.66482)" />
        <path
           style="fill:#ea000d;fill-opacity:0.204453;stroke-width:0"
           d="m 492.56839,471.76382 c -0.53959,-0.27221 -0.64133,-0.57189 -0.7234,-2.1309 -0.0783,-1.48805 -0.16256,-1.88062 -0.50058,-2.33325 -0.35762,-0.47885 -0.0623,-0.32693 0.33058,0.17004 0.48223,0.61008 0.58024,0.86924 0.69465,1.8368 0.0922,0.77984 0.30888,1.39202 0.56916,1.60803 0.27204,0.22578 0.573,0.2206 0.85259,-0.0146 0.39474,-0.33215 0.56452,-0.85098 0.65018,-1.98688 0.0461,-0.61114 0.13448,-1.12611 0.22661,-1.32025 0.16067,-0.33859 0.39314,-0.56704 0.26772,-0.26309 -0.0388,0.094 -0.10414,0.79366 -0.14524,1.55482 -0.12389,2.29494 -0.21335,2.64016 -0.75016,2.89489 -0.39208,0.18605 -1.087,0.17871 -1.47211,-0.0156 z"
           id="path1071"
           transform="matrix(0.51207905,0,0,0.6767643,-91.961919,-247.66482)" />
        <path
           style="fill:#ea000d;fill-opacity:0.204453;stroke-width:0"
           d="m 495.28857,464.60004 c -0.0982,-0.0382 -0.25164,-0.15073 -0.34094,-0.25005 -0.16146,-0.17957 -0.15793,-0.1809 0.625,-0.23578 0.43305,-0.0303 1.07866,-0.0778 1.43469,-0.10543 0.35603,-0.0276 0.64732,-0.0286 0.64732,-0.002 0,0.0565 -1.53018,0.54746 -1.91964,0.61586 -0.14732,0.0259 -0.34821,0.0158 -0.44643,-0.0224 z"
           id="path1073"
           transform="matrix(0.51207905,0,0,0.6767643,-91.961919,-247.66482)" />
        <path
           style="fill:#ea000d;fill-opacity:0.204453;stroke-width:0"
           d="m 494.83986,457.58985 c 1e-5,-3.58482 0.0111,-5.03833 0.0246,-3.23003 0.0135,1.80831 0.0135,4.74134 -2e-5,6.51786 -0.0135,1.77651 -0.0246,0.29699 -0.0246,-3.28783 z"
           id="path1075"
           transform="matrix(0.51207905,0,0,0.6767643,-91.961919,-247.66482)" />
        <path
           style="fill:#ea000d;fill-opacity:0.204453;stroke-width:0"
           d="m 494.62144,463.41574 c -0.25485,-1.34351 -0.19424,-9.43695 0.0844,-11.27232 0.0373,-0.24553 0.0732,2.31585 0.0797,5.69197 0.007,3.37611 -0.004,6.13839 -0.0232,6.13839 -0.0193,0 -0.0827,-0.25112 -0.14096,-0.55804 z"
           id="path1081"
           transform="matrix(0.51207905,0,0,0.6767643,-91.961919,-247.66482)" />
        <path
           style="fill:#ea000d;fill-opacity:0.204453;stroke-width:0"
           d="m 499.6776,462.67346 c 0.50116,-0.51601 0.75057,-0.86882 1.05723,-1.49554 0.42673,-0.87211 0.49157,-0.89107 0.2566,-0.075 -0.30696,1.06605 -0.75223,1.65978 -1.55,2.06677 -0.1931,0.0985 -0.36654,0.17912 -0.38541,0.17912 -0.0189,0 0.26085,-0.3039 0.62158,-0.67532 z"
           id="path1083"
           transform="matrix(0.51207905,0,0,0.6767643,-91.961919,-247.66482)" />
        <path
           style="fill:#ea000d;fill-opacity:0.204453;stroke-width:0"
           d="m 495.27964,464.65279 c -0.53561,-0.14555 -0.73409,-0.80557 -0.8199,-2.72653 -0.0449,-1.00417 -0.0636,-4.47614 -0.0317,-5.86362 0.0426,-1.84918 0.1513,-3.41634 0.31656,-4.56147 0.0984,-0.68216 0.0908,-1.1796 0.0924,6.0254 l 0.001,6.56994 0.10654,-1.7e-4 c 0.0586,-9e-5 0.39774,-0.0142 0.75366,-0.0313 0.97747,-0.0471 0.97959,-0.0387 0.008,0.031 -0.77008,0.0553 -0.87129,0.0737 -0.84587,0.15375 0.0131,0.0414 0.19064,0.21571 0.28663,0.2815 0.12204,0.0836 0.21189,0.1078 0.4014,0.10792 0.13335,8e-5 0.20428,-0.01 0.36302,-0.0493 0.43416,-0.1087 1.43671,-0.42756 1.65454,-0.52623 0.16332,-0.074 0.12802,-0.0835 -0.27982,-0.0752 -0.19617,0.004 -0.33181,0.005 -0.30143,0.002 0.18373,-0.0164 0.47928,-0.0609 0.66786,-0.10042 0.65221,-0.13673 1.11076,-0.3911 1.72731,-0.95819 0.089,-0.0818 0.16178,-0.14386 0.16178,-0.13783 0,0.006 -0.0861,0.10086 -0.19127,0.21071 -0.22541,0.23537 -0.3063,0.33087 -0.29222,0.34496 0.0153,0.0153 0.50488,-0.23089 0.66644,-0.33511 0.53805,-0.34711 0.89026,-0.81673 1.15377,-1.53843 0.0683,-0.18709 0.21485,-0.69781 0.24149,-0.84163 0.0361,-0.19504 -0.0195,-0.16799 -0.15636,0.0761 -0.0438,0.0781 -0.0798,0.13495 -0.0799,0.12627 -1.4e-4,-0.009 0.0321,-0.0975 0.0716,-0.1973 0.21555,-0.54451 0.36203,-1.18041 0.4363,-1.89403 0.027,-0.25955 0.0268,-1.21109 -3.4e-4,-1.51523 -0.0394,-0.44136 -0.0923,-0.79644 -0.16929,-1.13642 -0.009,-0.0388 -0.008,-0.0387 0.0161,0.004 0.0339,0.0587 0.0521,0.0546 0.0652,-0.0149 0.0454,-0.24178 -0.22752,-1.19417 -0.5165,-1.80272 -0.44089,-0.92841 -1.28438,-1.82098 -2.63889,-2.79241 -0.9922,-0.71159 -2.06189,-1.34063 -2.56262,-1.50696 -0.27532,-0.0915 -0.43133,-0.0785 -0.43133,0.0358 0,0.0201 0.0124,0.0463 0.0276,0.0584 0.0976,0.0774 0.25388,0.17316 0.62324,0.38169 0.58689,0.33134 1.27149,0.7527 1.25299,0.77119 -0.004,0.004 -0.1271,-0.0662 -0.2731,-0.15644 -0.38203,-0.23612 -0.62512,-0.37701 -1.20749,-0.69982 l -0.51587,-0.28595 0.0454,-0.0795 c 0.025,-0.0437 0.0685,-0.0989 0.0968,-0.12272 0.0463,-0.0389 0.0593,-0.0422 0.13115,-0.0328 0.55686,0.0729 2.17789,1.0553 3.54424,2.1479 1.22007,0.97563 1.87446,1.84139 2.23046,2.9509 0.23917,0.74543 0.35722,1.69055 0.3578,2.86473 6.2e-4,1.26058 -0.19052,2.57102 -0.52029,3.5671 -0.22155,0.66918 -0.47675,1.12342 -0.75569,1.34509 -0.67847,0.53915 -2.14839,1.25421 -3.42729,1.66724 -0.78247,0.2527 -1.22368,0.3296 -1.48447,0.25874 z m -0.49062,-4.95992 c 0.002,-4.60775 -0.0269,-7.51684 -0.0766,-7.56648 -0.009,-0.009 -0.016,-0.01 -0.016,-9.8e-4 0,0.008 -0.014,0.13929 -0.0311,0.29121 -0.0728,0.64681 -0.12249,1.59642 -0.17747,3.39348 -0.0276,0.90205 -0.0278,5.15082 -2.3e-4,5.85573 0.0479,1.22544 0.0896,1.65848 0.20277,2.10612 0.0694,0.27449 0.0759,0.26456 0.0869,-0.13317 0.005,-0.19532 0.0107,-1.97098 0.0117,-3.94591 z"
           id="path1085"
           transform="matrix(0.51207905,0,0,0.6767643,-91.961919,-247.66482)" />
        <path
           style="fill:#e97c00;fill-opacity:0.45098;stroke-width:0"
           d=""
           id="path1087"
           transform="matrix(0.51207905,0,0,0.6767643,-91.961919,-247.66482)" />
        <text
           xml:space="preserve"
           style="font-size:57.3021px;line-height:1.25;font-family:'Frank Ruhl Hofshi';-inkscape-font-specification:'Frank Ruhl Hofshi, Normal';fill:#ea000d;fill-opacity:0.204453;stroke-width:3.58138"
           x="168.71951"
           y="66.29364"
           id="text1091"
           transform="scale(0.86986082,1.1496092)"><tspan
             sodipodi:role="line"
             id="tspan1089"
             x="168.71951"
             y="66.29364"
             style="fill:#ea000d;fill-opacity:0.204453;stroke-width:3.58138">x</tspan></text>
      </g>
      <text
         x="35.179825"
         y="210.8447"
         fill="#dbdee3"
         fill-opacity="0.42105"
         font-family="'Frank Ruhl Hofshi'"
         font-size="85.954px"
         stroke="#abb3be"
         stroke-opacity="0.31781"
         stroke-width="0.924"
         style="line-height:1.25"
         xml:space="preserve"
         id="text1018"><tspan
           x="35.179825"
           y="210.8447"
           fill="#dbdee3"
           fill-opacity="0.42105"
           stroke="#abb3be"
           stroke-opacity="0.31781"
           stroke-width="0.924"
           id="tspan1016" /></text>
      <text
         transform="scale(1.0774,0.92819)"
         x="38.962688"
         y="31.778767"
         fill="#999999"
         font-family="'Poor Richard'"
         font-size="4.1086px"
         stroke-opacity="0.19636"
         stroke-width="0.72317"
         style="line-height:1.25;font-variant-ligatures:normal;font-variant-caps:normal;font-variant-numeric:normal;font-variant-east-asian:normal"
         xml:space="preserve"
         id="text1022"><tspan
           x="38.962688"
           y="31.778767"
           fill="#999999"
           font-family="'Poor Richard'"
           font-size="4.1086px"
           style="font-variant-ligatures:normal;font-variant-caps:normal;font-variant-numeric:normal;font-variant-east-asian:normal"
           id="tspan1020" /></text>
    </g>
  </g>
</svg>
