<?xml version="1.0" encoding="UTF-8"?>
<svg width="483.86" height="357.04" version="1.1" viewBox="0 0 128.02 94.466" xmlns="http://www.w3.org/2000/svg" xmlns:cc="http://creativecommons.org/ns#" xmlns:dc="http://purl.org/dc/elements/1.1/" xmlns:osb="http://www.openswatchbook.org/uri/2009/osb" xmlns:rdf="http://www.w3.org/1999/02/22-rdf-syntax-ns#" xmlns:xlink="http://www.w3.org/1999/xlink">
 <metadata>
  <rdf:RDF>
   <cc:Work rdf:about="">
    <dc:format>image/svg+xml</dc:format>
    <dc:type rdf:resource="http://purl.org/dc/dcmitype/StillImage"/>
    <dc:title/>
   </cc:Work>
  </rdf:RDF>
 </metadata>
 <g transform="translate(-4.3388 8.3612)">
  <g transform="matrix(.51668 0 0 .39095 23.657 21.307)" fill-opacity=".42105">
   <g fill="#ea7e00">
    <path d="m36.659 160.67c-4.2205-1.9171-4.4027-2.3722-7.5885-18.953-2.3116-12.031-2.3116-12.031-4.3967-13.257-23.289-13.691-37.27-39.519-35.454-65.498 0.27999-4.0057-1.0549-4.5983-2.9126-1.2929-4.6849 8.3356-19.175 15.117-22.707 10.627-2.2231-2.8262-0.56937-5.5422 3.6811-6.0455 3.558-0.42142 7.9229-2.6106 10.57-5.3016 2.6093-2.6523 2.6588-2.4621-0.88096-3.3864-11.759-3.0707-15.145-11.709-7.3503-18.751 6.8828-6.2183 17.884 0.24204 19.267 11.315 0.32864 2.6303 0.97153 3.3265 1.3607 1.4734 4.2585-20.278 12.065-33.214 26.567-44.025 7.8565-5.8568 10.991-6.6643 12.227-3.15 0.80358 2.285 0.07203 3.4128-3.8098 5.8717-40.175 25.45-38.94 86.226 2.2662 111.55 5.9064 3.6296 5.4973 2.7332 8.5082 18.646 2.957 15.628 1.4972 13.967 12.272 13.967 10.657 0 9.5687 0.84127 11.386-8.8017 2.1943-11.644 1.8646-11.403 14.512-10.628 9.7471 0.59678 14.873 0.44903 26.021-0.74999 10.066-1.0827 10.356-0.83812 12.499 10.534 2.0386 10.822 0.63254 9.6462 11.534 9.6462 5.8887 0 9.3249-0.17825 9.52-0.49409 0.16808-0.27173 1.351-6.0775 2.6289-12.902 3.5918-19.18 3.2542-17.019 10.581-21.285 9.7016-5.6481 17.741-13.083 23.497-21.729 4.1255-6.197 3.9264-6.5053 14.388-9.8792 13.912-4.4866 12.809-3.0176 12.809-17.047 0-13.405 0.46202-12.623-9.3906-15.907-8.8435-2.9473-9.8216-3.8223-12.807-11.457-5.3337-13.639-9.7374-18.616-12.098-13.675-3.502 7.3315-8.7458 10.411-17.673 10.378-19.342-0.07205-31.397-16.041-27.695-36.686 0.65889-3.6744 0.65889-3.6744-1.0299-4.1139-4.7474-1.2354-4.9066-1.2107-6.5051 1.0083-2.7199 3.7754-5.3923 6.4946-9.2103 9.3716-2.1144 1.5933-3.5166 2.9453-3.1686 3.0552 7.6607 2.4207 7.9628 2.6246 7.9628 5.3749 0 1.3696-0.93495 2.5462-2.448 3.0807-0.43494 0.1537-2.9916-0.35678-5.6815-1.1342-17.259-4.9885-37.38-4.7942-54.279 0.52412-4.122 1.2972-6.2428 0.26706-6.2428-3.0325 0-1.5686 1.7665-2.9362 4.9713-3.8488 1.5624-0.44488 3.0089-0.90704 3.2144-1.027 0.2055-0.11992-0.96631-1.2386-2.604-2.4859-21.849-16.64-25.672-47.5-8.5104-68.7 20.74-25.621 60.965-23.064 78.26 4.9744 5.5939 9.0688-0.2024 12.448-6.1145 3.5648-21.017-31.58-67.953-22.751-75.165 14.138-4.5388 23.214 12.74 47.074 32.936 45.482 5.5948-0.44102 8.855-0.44032 14.68 0.0038 16.458 1.2526 31.33-13.716 33.583-33.8 0.58879-5.2505 3.4257-7.266 6.2509-4.4408 1.7255 1.7255 0.43022 11.483-2.4012 18.088-0.93452 2.1801-0.93452 2.1801 1.0556 2.6962 1.0946 0.28385 2.6898 0.70036 3.5451 0.92552 1.3001 0.34236 2.076 0.15226 4.7346-1.1595 37.364-18.437 48.788-12.599 42.485 21.708-0.77371 4.2107-0.77371 4.2107 0.69008 5.9182 6.1027 7.1192 10.607 14.526 13.036 21.437 1.6329 4.6459 2.2006 5.1168 8.7556 7.263 12.942 4.2373 14.214 6.2717 14.188 22.688-0.0258 16.751-0.95289 18.013-16.989 23.136-8.8873 2.8393-9.2325 2.9966-10.416 4.7486-8.2741 12.247-16.159 19.829-27.546 26.487-4.0691 2.3793-4.0691 2.3793-6.5443 15.684-3.7989 20.42-3.2815 19.86-18.562 20.084-15.472 0.22703-16.118-0.21734-18.615-12.809-0.83995-4.2355-1.7227-7.6699-1.9615-7.6319-4.7662 0.75773-14.567 1.1734-24.544 1.0409l-12.273-0.16284-1.46 7.4368c-2.2832 11.629-3.1553 12.218-18.081 12.201-8.1084-8e-3 -9.6797-0.13101-11.328-0.87953zm-55.831-112.98c-2.0939-4.2798-4.9964-5.5084-7.1019-3.0061-2.272 2.7001-0.51502 4.7135 5.4583 6.2549 3.2082 0.82783 3.4268 0.39586 1.6436-3.2488zm171.41-15.35c8.3529-3.6949 14.844-44.063 7.0858-44.063-5.3131 0-30.073 9.0319-32.841 11.98-2.8606 3.0465-2.598 16.735 0.43514 22.681 4.3029 8.4345 16.918 13.119 25.32 9.4022z" color="#000000" color-rendering="auto" dominant-baseline="auto" fill-opacity=".90283" image-rendering="auto" shape-rendering="auto" solid-color="#000000" stop-color="#000000" style="font-feature-settings:normal;font-variant-alternates:normal;font-variant-caps:normal;font-variant-east-asian:normal;font-variant-ligatures:normal;font-variant-numeric:normal;font-variant-position:normal;font-variation-settings:normal;inline-size:0;isolation:auto;mix-blend-mode:normal;shape-margin:0;shape-padding:0;text-decoration-color:#000000;text-decoration-line:none;text-decoration-style:solid;text-indent:0;text-orientation:mixed;text-transform:none;white-space:normal"/>
    <path d="m74.712-71.662c-12.985 0.64831-25.792 6.4653-34.868 17.678-17.166 21.207-13.342 52.078 8.5131 68.723 0.81852 0.6234 1.5211 1.2138 1.9924 1.6638 0.23568 0.22498 0.41351 0.41466 0.51911 0.55461 0.05275 0.0703 0.0861 0.12825 0.10085 0.16991 7e-3 0.02089 0.0085 0.03691 0.0074 0.04833-0.0017 0.0114-0.0059 0.01688-0.01511 0.02191-0.04843 0.02809-0.1773 0.08083-0.36598 0.14752-0.18869 0.06677-0.43709 0.14969-0.7283 0.24273-0.58237 0.18607-1.3346 0.4144-2.1157 0.63676-1.6036 0.45657-2.849 1.0267-3.6936 1.6806-0.84461 0.65388-1.2885 1.3929-1.2885 2.1829 0 1.653 0.53219 2.7422 1.5835 3.2529 1.0513 0.51066 2.6148 0.44187 4.6776-0.20726 16.896-5.3173 37.016-5.5104 54.272-0.52282 1.3453 0.38886 2.6558 0.71116 3.6861 0.91685 0.51518 0.10286 0.96167 0.17632 1.3052 0.2147 0.3436 0.03877 0.58273 0.04305 0.69834 0.0019 1.5178-0.53617 2.4593-1.7194 2.4593-3.096 0-0.68789-0.0194-1.217-0.16805-1.6638-0.1491-0.44682-0.43014-0.80965-0.94859-1.1596-1.037-0.69992-3.0264-1.3553-6.8568-2.5657-0.0194-0.0059-0.0307-0.01393-0.0377-0.02636-7e-3 -0.01245-7e-3 -0.03075-4e-3 -0.05447 9e-3 -0.04653 0.042-0.11335 0.099-0.19608 0.11436-0.16543 0.32347-0.3934 0.60873-0.66847 0.5706-0.55022 1.4491-1.2876 2.5059-2.0839 3.8192-2.8777 6.4929-5.5975 9.2136-9.374 0.39955-0.55461 0.70915-0.97247 1.0214-1.266 0.31231-0.2936 0.62647-0.46246 1.0401-0.52659 0.82722-0.12819 2.0538 0.17219 4.4274 0.78988 0.42222 0.10989 0.73892 0.19213 0.96353 0.30994 0.22454 0.11782 0.35669 0.26927 0.42011 0.52281 0.12697 0.50708-0.0343 1.4269-0.36414 3.2641-1.8518 10.326 0.23632 19.484 5.208 26.07 4.9716 6.5857 12.826 10.598 22.501 10.634 4.4653 0.01688 8.0114-0.74552 10.879-2.4294 2.8676-1.6839 5.0564-4.289 6.8082-7.9566 0.58878-1.2327 1.3006-1.843 2.1213-1.858 0.82063-0.01519 1.7561 0.56674 2.786 1.731 2.0599 2.3286 4.4946 6.9829 7.1612 13.801 1.493 3.8177 2.4846 5.9475 4.2108 7.4917 1.7262 1.5442 4.1845 2.4999 8.6065 3.9737 2.4633 0.82098 4.2817 1.3877 5.6225 1.985 1.3408 0.59722 2.2039 1.2243 2.7599 2.1661 1.1121 1.8837 0.99716 5.0388 0.99716 11.742 0 3.5076 0.0694 6.0451-0.0448 7.9492-0.11385 1.9041-0.41018 3.1735-1.1391 4.1436-0.72891 0.9701-1.892 1.6445-3.744 2.3566-1.8518 0.71204-4.3905 1.4608-7.8688 2.5825-5.231 1.687-7.7991 2.6085-9.5756 3.884-1.7765 1.2755-2.7588 2.9033-4.8214 6.0016-5.7546 8.644-13.793 16.077-23.493 21.724-1.8314 1.0662-3.1827 1.7297-4.2388 2.4275-1.0561 0.69782-1.816 1.43-2.4574 2.6273-1.2828 2.3947-2.0956 6.6498-3.8915 16.24-0.63895 3.412-1.2546 6.5688-1.731 8.9071-0.23826 1.1692-0.44119 2.1344-0.59564 2.8234-0.0773 0.34446-0.14338 0.62006-0.19413 0.81791-0.0255 0.0989-0.0474 0.17842-0.065 0.23712-0.0184 0.0589-0.0325 0.0967-0.0413 0.11017-0.0194 0.0317-0.0918 0.072-0.2147 0.10645-0.123 0.035-0.29501 0.0668-0.51535 0.0971-0.44075 0.0606-1.0727 0.11297-1.8822 0.15497-1.619 0.0843-3.9499 0.12888-6.8941 0.12888-2.7257 0-4.6835 0.0738-6.1155 0.0152-1.432-0.0589-2.3364-0.25094-2.9653-0.77681-0.62885-0.52595-0.98403-1.3885-1.309-2.7991-0.32497-1.4106-0.62006-3.3667-1.1297-6.0725-0.53555-2.843-0.95546-4.9908-1.4416-6.5972-0.48608-1.6064-1.0385-2.6716-1.8412-3.3481-0.8027-0.67655-1.8552-0.96181-3.3332-1.0102-1.478-0.0484-3.3822 0.13825-5.8989 0.40894-11.148 1.199-16.273 1.3474-26.019 0.75069-3.1618-0.19365-5.5124-0.35485-7.2956-0.30442-1.7832 0.05-2.9994 0.31161-3.8896 0.96353-0.8902 0.65196-1.4514 1.6936-1.9271 3.2977-0.47573 1.6041-0.86684 3.7722-1.4154 6.6831-0.45436 2.411-0.72786 4.1673-1.0476 5.4432-0.31969 1.276-0.68622 2.0713-1.3258 2.5657-0.63957 0.49446-1.5544 0.69017-2.9784 0.76185-1.4239 0.072-3.3558 0.0184-6.0202 0.0184-2.694 0-4.6234 0.10334-6.0464 0.0152-1.423-0.0884-2.3358-0.36628-3.0083-1.1316-0.67243-0.76528-1.1046-2.022-1.5517-4.0633-0.44715-2.0413-0.91143-4.8672-1.6507-8.7745-1.5054-7.9566-2.1548-11.712-3.1688-13.934-0.507-1.1112-1.1051-1.8391-1.9457-2.5153-0.84066-0.67611-1.924-1.2999-3.4004-2.2072-41.197-25.316-42.43-86.078-2.2647-111.52 1.9414-1.2298 3.0953-2.1275 3.6655-3.0064 0.57025-0.87888 0.55198-1.7385 0.14936-2.8831-0.3097-0.88065-0.73858-1.4931-1.3333-1.8225-0.59467-0.32936-1.3531-0.37495-2.3155-0.12696-1.9247 0.49584-4.6721 2.1634-8.6009 5.0922-14.505 10.813-22.313 23.753-26.572 44.033-0.097099 0.46222-0.2116 0.76476-0.32864 0.91498-0.058901 0.07464-0.11529 0.11077-0.17172 0.11394-0.056242 0.0027-0.11658-0.02528-0.17742-0.09142-0.12158-0.13171-0.24442-0.40722-0.35669-0.81228-0.11227-0.40517-0.2148-0.94138-0.29695-1.5984-0.69227-5.5408-3.7896-9.9281-7.5776-12.153-3.788-2.2244-8.2692-2.2845-11.716 0.82906-3.9005 3.5239-5.0045 7.4527-3.66 10.883 1.3445 3.4301 5.1347 6.3589 11.017 7.895 0.88506 0.23111 1.5469 0.39209 1.998 0.54521 0.22561 0.07642 0.39876 0.15216 0.52094 0.2316 0.12221 0.07908 0.19188 0.16261 0.21664 0.2577 0.02471 0.09516 0.0038 0.2034-0.06325 0.33611-0.06679 0.13272-0.18025 0.28806-0.33793 0.47245-0.31548 0.36862-0.8078 0.85498-1.4602 1.5181-2.6444 2.6879-7.0082 4.8767-10.562 5.2976-2.1282 0.25205-3.6077 1.0577-4.278 2.1586-0.67031 1.1009-0.52599 2.4937 0.58817 3.9102 0.88728 1.128 2.4609 1.5465 4.3919 1.4117 1.9311-0.13476 4.2208-0.82168 6.5468-1.9103 4.652-2.1772 9.4473-5.9581 11.792-10.13 0.46394-0.82546 0.89543-1.4067 1.2754-1.7516 0.18996-0.1724 0.36724-0.28456 0.52842-0.33983 0.16119-0.05533 0.3062-0.05382 0.43504 0.0038 0.25791 0.11447 0.45517 0.45452 0.56955 1.0196 0.11436 0.56506 0.14655 1.3523 0.076396 2.3528-1.8164 25.985 12.166 51.819 35.46 65.513 1.0426 0.61295 1.5593 0.91267 2.1082 2.5676 0.5489 1.6549 1.1261 4.6637 2.2819 10.679 1.5929 8.2905 2.4354 12.549 3.4079 14.978 0.97067 2.4244 2.078 3.0237 4.1809 3.9793v4e-3l0.0096 4e-3c0.82537 0.37487 1.632 0.59362 3.2454 0.7189 1.6133 0.12538 4.0331 0.15813 8.0874 0.16246 7.463 8e-3 11.415-0.1337 13.79-1.7366 1.1877-0.80148 1.9794-1.9679 2.6161-3.66 0.63667-1.692 1.1191-3.9101 1.6899-6.8176l1.4584-7.4245 12.259 0.16244c9.9775 0.13243 19.777-0.28202 24.546-1.0401 3e-3 -4.6e-4 9e-3 -4.7e-4 0.0152 4e-3 7e-3 4e-3 0.0152 0.0114 0.0248 0.0221 0.0181 0.0224 0.0393 0.0598 0.0632 0.10833 0.0484 0.0974 0.10533 0.24409 0.16991 0.43504 0.12924 0.38213 0.28912 0.94061 0.46685 1.632 0.35543 1.3829 0.78443 3.2996 1.2044 5.4171 0.62427 3.148 1.133 5.5374 1.787 7.3479 0.65406 1.8105 1.4558 3.0423 2.6628 3.8728 2.414 1.6611 6.446 1.7138 14.182 1.6003 3.8201-0.0562 6.6522-0.0624 8.8138-0.36039 2.1615-0.29834 3.6534-0.88852 4.7841-2.1119 2.2614-2.4468 3.0788-7.4138 4.9783-17.624 1.2376-6.6524 1.8573-9.9785 2.674-11.936 0.81668-1.9574 1.8289-2.5487 3.8635-3.7384 11.389-6.6592 19.275-14.243 27.55-26.492 0.59151-0.87562 0.97018-1.3482 2.3136-1.9607 1.3434-0.61251 3.6512-1.3627 8.0948-2.7823 8.0176-2.5617 12.261-4.1584 14.505-7.2136 2.2434-3.0552 2.4799-7.5619 2.4929-15.938 0.0129-8.2084-0.29738-12.823-2.2332-15.919-1.9358-3.0955-5.4945-4.6651-11.966-6.784-3.2773-1.073-5.056-1.7268-6.2182-2.6908-1.1621-0.96402-1.7102-2.2393-2.5265-4.5618-2.4298-6.9133-6.9358-14.322-13.039-21.442-0.36591-0.42688-0.64001-0.74683-0.83284-1.0513-0.19285-0.3045-0.30439-0.59204-0.3473-0.9598-0.0861-0.7355 0.10797-1.788 0.49488-3.8934 1.5761-8.5777 2.0442-15.377 1.2754-20.464-0.76889-5.0866-2.7766-8.4621-6.151-10.186-3.3743-1.7242-8.1124-1.7974-14.341-0.28755-6.2286 1.5098-13.95 4.6038-23.291 9.2134-1.329 0.65573-2.1872 1.0307-2.8738 1.1988-0.68656 0.16814-1.2018 0.12975-1.8505-0.041279-0.85525-0.22526-2.4496-0.64237-3.5442-0.92619-0.4975-0.12905-0.86982-0.22454-1.1335-0.3305-0.26365-0.10594-0.41607-0.22165-0.47985-0.38462-0.0641-0.16305-0.0404-0.37943 0.0597-0.6928 0.0999-0.31337 0.27428-0.72101 0.50788-1.266 1.4165-3.3045 2.4489-7.3969 2.9112-10.879 0.23114-1.741 0.31978-3.3296 0.24273-4.5917-0.0773-1.2621-0.31908-2.1976-0.75623-2.6348-0.70782-0.70782-1.4169-1.1147-2.0933-1.2418-0.67638-0.12702-1.3188 0.02543-1.8897 0.43136-1.1419 0.81123-1.9984 2.6325-2.2931 5.2602-2.2516 20.078-17.119 35.039-33.567 33.787-5.8255-0.44418-9.0875-0.44664-14.683-0.0059-10.092 0.7949-19.455-4.7677-25.73-13.432-6.2745-8.6647-9.4577-20.43-7.1892-32.032 3.6051-18.439 17.137-29.863 32.394-32.732 15.257-2.8697 32.238 2.8155 42.743 18.6 1.4789 2.2222 2.9506 3.678 4.2407 4.4704 1.2901 0.79234 2.4008 0.92161 3.152 0.48363 0.75122-0.43795 1.1372-1.4395 0.98595-2.8962-0.15119-1.4567-0.8396-3.3707-2.2389-5.6393-9.7314-15.777-26.72-23.488-43.415-22.654zm0.0019 0.02986c16.684-0.83307 33.662 6.8745 43.387 22.641 1.3976 2.2658 2.0847 4.1744 2.2352 5.6244 0.15049 1.4499-0.23343 2.4382-0.971 2.8682-0.73761 0.43004-1.8356 0.30538-3.1203-0.48362-1.2847-0.789-2.7542-2.2415-4.2313-4.461-10.512-15.795-27.506-21.485-42.775-18.613-15.268 2.8718-28.811 14.306-32.419 32.757-2.2703 11.612 0.91549 23.385 7.1948 32.056 6.2793 8.6712 15.653 14.241 25.758 13.445 5.5943-0.44102 8.8525-0.4404 14.677 0.0038 16.468 1.2534 31.346-13.723 33.599-33.813 0.29413-2.6228 1.1499-4.435 2.28-5.2378 0.56507-0.4014 1.1988-0.55127 1.8673-0.42573 0.66855 0.12555 1.3736 0.52579 2.0783 1.2306 0.42564 0.42564 0.66821 1.357 0.74508 2.6161 0.0764 1.2591-0.01 2.8465-0.24089 4.5861-0.46184 3.4793-1.4943 7.5686-2.9093 10.87-0.23359 0.54503-0.40903 0.95388-0.50981 1.2698-0.10075 0.31592-0.12791 0.53933-0.0597 0.71327 0.0677 0.17394 0.23167 0.29422 0.49856 0.40149 0.26689 0.10725 0.63965 0.20338 1.1372 0.33234 1.0945 0.28385 2.689 0.70097 3.5442 0.92618 0.65151 0.17155 1.1744 0.21032 1.8655 0.041279 0.69104-0.1693 1.5517-0.54653 2.8813-1.2026 9.3403-4.609 17.059-7.7007 23.284-9.2096 6.225-1.5089 10.954-1.4333 14.319 0.2857 3.3643 1.719 5.3662 5.083 6.1341 10.164 0.76801 5.0808 0.30037 11.877-1.2754 20.453-0.38682 2.1053-0.57974 3.1568-0.49294 3.9008 0.0431 0.37205 0.15635 0.66742 0.35105 0.97474 0.1947 0.30737 0.47062 0.62815 0.83653 1.055 6.1017 7.1181 10.604 14.523 13.032 21.431 0.8166 2.3233 1.369 3.6073 2.5377 4.5768 1.1687 0.96948 2.9498 1.6232 6.2275 2.6964 6.4702 2.1185 10.02 3.6858 11.949 6.7709 1.9293 3.0851 2.2423 7.6943 2.2296 15.902-0.0129 8.3751-0.25179 12.876-2.4873 15.921-2.2355 3.0444-6.4728 4.6408-14.49 7.2023-4.4437 1.4196-6.7517 2.1683-8.0986 2.7823-1.3469 0.614-1.7346 1.0955-2.3267 1.9719-8.2732 12.246-16.154 19.825-27.539 26.482-2.0345 1.1896-3.0572 1.7878-3.8766 3.7514-0.81932 1.9637-1.4383 5.2909-2.6759 11.943-1.8995 10.21-2.7209 15.174-4.9708 17.609-1.1249 1.2172-2.6074 1.8048-4.7654 2.1026-2.158 0.2979-4.9916 0.30443-8.8119 0.36038-7.736 0.11348-11.762 0.058-14.164-1.5947-1.2006-0.82608-1.9969-2.0507-2.6497-3.8579-0.65283-1.8072-1.1609-4.1964-1.7852-7.3442-0.42002-2.118-0.85067-4.0353-1.2063-5.419-0.17783-0.69184-0.3372-1.2504-0.46685-1.6339-0.065-0.1918-0.12255-0.33915-0.17185-0.43881-0.0248-0.0501-0.0484-0.0881-0.0694-0.11392-0.0108-0.0129-0.0209-0.0224-0.0317-0.0295-0.0108-7e-3 -0.0209-0.0114-0.0333-0.01-4.7638 0.75738-14.566 1.1745-24.542 1.042l-12.285-0.16426-1.4621 7.4506c-0.57077 2.9072-1.0527 5.1234-1.6881 6.812-0.63535 1.6886-1.4234 2.8477-2.6049 3.645-2.363 1.5946-6.3107 1.7392-13.773 1.731-4.0541-4e-3 -6.4741-0.0371-8.0855-0.16246-1.6085-0.12491-2.4094-0.34084-3.2305-0.71327l-0.0055-4e-3c-2.1099-0.95845-3.2033-1.545-4.1734-3.9681-0.97017-2.4231-1.8131-6.6836-3.406-14.974-1.1558-6.0155-1.7334-9.0218-2.2837-10.681-0.55031-1.6593-1.0768-1.9715-2.1194-2.5844-23.284-13.687-37.263-39.512-35.448-65.484 0.070297-1.0023 0.038726-1.7909-0.076396-2.3603-0.11529-0.56937-0.31331-0.92076-0.58633-1.042-0.13652-0.06061-0.29068-0.06325-0.45754-0.0059-0.16683 0.05711-0.34763 0.1731-0.53967 0.34726-0.38407 0.3485-0.81606 0.93182-1.281 1.759-2.34 4.1635-7.132 7.9423-11.779 10.117-2.3235 1.0874-4.6101 1.774-6.5356 1.9084-1.9255 0.13435-3.489-0.28342-4.3677-1.4005-1.1089-1.4098-1.2478-2.7871-0.58448-3.8766 0.66337-1.0895 2.1333-1.8923 4.2556-2.1437 3.5627-0.42196 7.9299-2.6129 10.58-5.3069 0.65222-0.66302 1.145-1.1476 1.4621-1.5181 0.15858-0.18525 0.27273-0.34155 0.34176-0.47799 0.06945-0.13654 0.09256-0.25388 0.06502-0.35851-0.02727-0.10463-0.1056-0.19452-0.2316-0.27637-0.12588-0.08169-0.29982-0.15646-0.52659-0.23342-0.45356-0.15397-1.1151-0.3161-1.9999-0.54715-5.8764-1.5345-9.6571-4.459-10.997-7.8764-1.3396-3.4174-0.24176-7.3309 3.6525-10.849 3.4365-3.1046 7.8991-3.0427 11.678-0.82344 3.7791 2.2192 6.8734 6.5966 7.5645 12.128 0.08258 0.6581 0.18407 1.1968 0.29695 1.604 0.11286 0.40727 0.23524 0.68393 0.36414 0.82353 0.064156 0.06943 0.13336 0.10647 0.20173 0.10269 0.068524-0.0038 0.13255-0.04843 0.19426-0.12698 0.12327-0.15824 0.23675-0.46378 0.33428-0.92806 4.258-20.276 12.061-33.206 26.561-44.015 3.9277-2.928 6.6742-4.5931 8.5897-5.0866 0.95774-0.24678 1.707-0.20135 2.2931 0.12325 0.58606 0.32462 1.0119 0.92921 1.3202 1.8057 0.40103 1.1404 0.41949 1.986-0.14563 2.857-0.56515 0.87097-1.7178 1.7679-3.6581 2.997-40.184 25.456-38.948 86.246 2.2669 111.57 1.4768 0.90751 2.5588 1.5314 3.3967 2.2053 0.83785 0.67392 1.431 1.3965 1.9364 2.5041 1.0107 2.2151 1.6615 5.9698 3.167 13.926 0.73919 3.9069 1.2032 6.7337 1.6507 8.7764 0.44753 2.0427 0.87826 3.3016 1.5573 4.0745 0.6791 0.77292 1.6045 1.0561 3.0307 1.1447 1.4261 0.0885 3.355-0.0165 6.0482-0.0165 2.664 0 4.5942 0.0538 6.0202-0.0184 1.4261-0.072 2.3494-0.26679 2.997-0.76748 0.64765-0.50064 1.0167-1.3041 1.337-2.5825 0.32028-1.2784 0.59327-3.0346 1.0476-5.4451 0.54855-2.9111 0.93869-5.0781 1.4136-6.6794 0.47482-1.6013 1.0332-2.6345 1.9159-3.2809 0.88262-0.64642 2.0922-0.90756 3.8728-0.95794 1.7807-0.0501 4.1318 0.10892 7.2937 0.30247 9.7475 0.59678 14.874 0.45027 26.023-0.74877 2.5165-0.27066 4.4225-0.45909 5.897-0.41082 1.4745 0.0484 2.5167 0.33197 3.3126 1.0028 0.79586 0.67076 1.3465 1.7311 1.8318 3.335 0.4853 1.6039 0.90605 3.7506 1.4416 6.5935 0.50963 2.7053 0.80429 4.6599 1.1297 6.0725 0.3254 1.4127 0.68121 2.2849 1.3183 2.8178 0.63719 0.53283 1.5516 0.72346 2.9858 0.78241 1.4342 0.0589 3.3903-0.0152 6.1155-0.0152 2.9445 0 5.276-0.043 6.896-0.12698 0.80999-0.042 1.4417-0.0956 1.8841-0.15682 0.22121-0.0306 0.39384-0.0633 0.51912-0.0991 0.12528-0.035 0.20391-0.0703 0.23343-0.11766 0.0125-0.0203 0.0263-0.058 0.0448-0.11765 0.0184-0.0598 0.0395-0.1399 0.065-0.23908 0.051-0.1984 0.11693-0.47509 0.19415-0.81975 0.15453-0.68929 0.35738-1.6522 0.59564-2.8215 0.47651-2.3386 1.092-5.4968 1.731-8.909 1.7959-9.5902 2.6096-13.845 3.8878-16.231 0.63912-1.1931 1.3945-1.92 2.448-2.6161 1.0536-0.69615 2.4066-1.3608 4.2388-2.4275 9.7035-5.6492 17.745-13.085 23.502-21.734 2.0628-3.0986 3.0431-4.7226 4.8139-5.994 1.7708-1.2714 4.3355-2.1915 9.5663-3.8784 3.4779-1.1216 6.0168-1.8716 7.8708-2.5844 1.854-0.71284 3.0228-1.3887 3.757-2.3659 0.73419-0.97715 1.0326-2.2539 1.1465-4.1604 0.11392-1.9065 0.0448-4.4439 0.0448-7.951 0-6.7026 0.11736-9.8593-1.0027-11.757-0.56009-0.94888-1.4294-1.5809-2.773-2.1794-1.3436-0.59845-3.1632-1.1641-5.6262-1.985-4.4215-1.4736-6.8751-2.4293-8.5953-3.9681-1.7202-1.5388-2.7106-3.6635-4.2033-7.4805-2.6672-6.82-5.1014-11.476-7.1668-13.811-1.0327-1.1674-1.973-1.7555-2.8084-1.7403-0.83547 0.01519-1.558 0.63692-2.1493 1.8748-1.7501 3.6638-3.9355 6.2632-6.797 7.9436-2.8616 1.6803-6.4004 2.4422-10.862 2.4256-9.6667-0.03605-17.511-4.045-22.477-10.623-4.9659-6.5781-7.0529-15.726-5.2024-26.045 0.32945-1.8372 0.4947-2.7558 0.36415-3.2771-0.065-0.26066-0.20715-0.4209-0.43697-0.54152-0.22983-0.12061-0.54697-0.20382-0.96915-0.31372-2.3738-0.61769-3.5998-0.92177-4.4386-0.79173-0.4194 0.065-0.74138 0.2394-1.0569 0.5359-0.31548 0.29659-0.62543 0.71494-1.0252 1.2698-2.7191 3.7744-5.3906 6.4921-9.2077 9.3683-1.0576 0.79691-1.9376 1.5342-2.5097 2.0858-0.28607 0.27577-0.49393 0.50533-0.61058 0.67409-0.058 0.08435-0.0946 0.15243-0.10453 0.20724-5e-3 0.02724-3e-3 0.0527 7e-3 0.07293 0.0108 0.02026 0.0296 0.03512 0.0545 0.04305 3.8303 1.2103 5.8201 1.8672 6.8493 2.562 0.51464 0.34737 0.78856 0.7022 0.93552 1.1428 0.14699 0.44058 0.16619 0.96717 0.16619 1.6544 0 1.3627-0.92862 2.5352-2.4368 3.068-0.10183 0.03605-0.345 0.03229-0.68718-0.0059-0.3422-0.03873-0.78505-0.11014-1.2997-0.21286-1.0292-0.20549-2.3415-0.52826-3.6861-0.91686-17.262-4.9894-37.386-4.7946-54.289 0.52476-2.0592 0.64809-3.6156 0.71222-4.6552 0.20726-1.0396-0.50495-1.5667-1.5784-1.5667-3.2249 0-0.77854 0.4373-1.5084 1.2772-2.1586 0.83986-0.6502 2.0812-1.2209 3.6824-1.6769 0.78136-0.22244 1.5347-0.44866 2.1175-0.63491 0.29138-0.09311 0.53906-0.17552 0.7283-0.24274 0.18913-0.06766 0.31899-0.11947 0.37347-0.15129 0.01659-0.0097 0.02728-0.02636 0.02949-0.04478 0.0029-0.01836-0.0011-0.03955-0.0096-0.06325-0.01659-0.0474-0.05275-0.10611-0.10645-0.17736-0.10752-0.14249-0.28659-0.3327-0.52282-0.5583-0.47233-0.45109-1.1747-1.0416-1.994-1.6655-21.842-16.635-25.664-47.484-8.5078-68.678 9.0708-11.206 21.869-17.021 34.846-17.669zm90.01 64.07c-1.3326 0-3.8754 0.56542-6.9875 1.4584-3.1121 0.89294-6.7931 2.1132-10.393 3.4265-3.6004 1.3133-7.1214 2.7196-9.9155 3.9811-1.397 0.63078-2.6118 1.2259-3.5647 1.7553-0.95288 0.5294-1.6439 0.99194-1.9924 1.3632-0.71916 0.7659-1.238 2.1956-1.5686 4.0017-0.33051 1.806-0.47124 3.9891-0.42758 6.263 0.087 4.5479 0.91072 9.4577 2.4294 12.434 2.1537 4.2216 6.3862 7.5018 11.131 9.2638 4.7449 1.7619 10.003 2.0042 14.208 0.1438 2.097-0.9276 4.0683-4.146 5.7308-8.4515 1.6625-4.3055 3.0148-9.6981 3.8635-14.976 0.84874-5.2778 1.1943-10.441 0.84215-14.285-0.17602-1.9222-0.52729-3.5152-1.0774-4.6291-0.55013-1.1139-1.3017-1.7497-2.2781-1.7497zm0 0.029862c0.9632 0 1.7047 0.62656 2.252 1.7347 0.54732 1.1081 0.89782 2.6978 1.0737 4.6179 0.35175 3.8401 7e-3 8.9996-0.84216 14.276-0.84848 5.276-2.2002 10.668-3.8616 14.97-1.6614 4.3027-3.6345 7.5149-5.714 8.4347-4.1963 1.8562-9.4472 1.6159-14.186-0.1438-4.7389-1.7597-8.965-5.0378-11.114-9.2507-1.5145-2.9687-2.3384-7.8768-2.4256-12.421-0.0439-2.2723 0.0958-4.4541 0.42573-6.2574 0.32997-1.8033 0.84988-3.2275 1.5611-3.9849 0.34342-0.36573 1.0332-0.8288 1.985-1.3575 0.95173-0.52878 2.1663-1.1229 3.5628-1.7534 2.793-1.261 6.3138-2.6661 9.9136-3.9792 3.5998-1.3131 7.2786-2.5357 10.39-3.4284 3.1112-0.89266 5.6561-1.4565 6.98-1.4565zm-183.9 55.191c-0.60425 0.17073-1.1844 0.56401-1.7123 1.1914-0.5692 0.67646-0.88671 1.3116-0.9486 1.9084-0.06152 0.59679 0.13325 1.1558 0.58632 1.675 0.90616 1.0384 2.8419 1.9254 5.8298 2.6964 0.80244 0.20705 1.4175 0.33568 1.8636 0.35474 0.22305 0.0097 0.40431-0.0074 0.54521-0.05797 0.14091-0.05006 0.24247-0.13344 0.30248-0.25205 0.12-0.23719 0.07821-0.61066-0.10269-1.1521-0.18061-0.54143-0.50269-1.251-0.9486-2.1624-1.0479-2.1419-2.2976-3.5223-3.5535-4.054-0.62797-0.26582-1.2574-0.3182-1.8617-0.14754zm0.0074 0.02796c0.59757-0.16896 1.2186-0.11597 1.8412 0.14754 1.2451 0.52702 2.4945 1.9011 3.5404 4.039 0.4457 0.91094 0.7652 1.6217 0.94487 2.1605 0.17966 0.53871 0.21734 0.90495 0.10453 1.1279-0.05624 0.11147-0.15043 0.18913-0.2857 0.23714-0.13532 0.04843-0.31143 0.06587-0.53219 0.05624-0.44145-0.01815-1.0563-0.14796-1.858-0.35485-2.9855-0.77038-4.9153-1.6584-5.813-2.6871-0.44882-0.51426-0.64176-1.0624-0.58071-1.6507 0.06059-0.58826 0.37627-1.218 0.943-1.8916 0.52482-0.62375 1.098-1.0149 1.6955-1.1839z" color="#000000" color-rendering="auto" dominant-baseline="auto" fill-opacity=".90283" image-rendering="auto" shape-rendering="auto" solid-color="#000000" stop-color="#000000" style="font-feature-settings:normal;font-variant-alternates:normal;font-variant-caps:normal;font-variant-east-asian:normal;font-variant-ligatures:normal;font-variant-numeric:normal;font-variant-position:normal;font-variation-settings:normal;inline-size:0;isolation:auto;mix-blend-mode:normal;shape-margin:0;shape-padding:0;text-decoration-color:#000000;text-decoration-line:none;text-decoration-style:solid;text-indent:0;text-orientation:mixed;text-transform:none;white-space:normal"/>
    <path d="m40.644 153.93c-1.6556-0.61209-2.3509-2.7378-4.4508-13.608-2.3372-12.098-2.6369-13.274-3.8114-14.947-0.46349-0.66048-3.0192-2.6454-5.6794-4.4111-15.483-10.276-25.006-24.089-29.189-42.337-0.96792-4.2223-1.0542-5.3074-1.0745-13.517-0.019323-7.7986 0.090724-9.4744 0.87093-13.262 1.9568-9.5001 6.1025-18.686 11.855-26.268 4.4159-5.8202 8.2124-9.3826 15.243-14.303 3.0736-2.1512 6.6326-4.8933 7.9088-6.0937l2.3203-2.1825 1.3463 1.5321c0.74047 0.84265 3.1398 3.0818 5.332 4.9759l3.9856 3.4438-1.3501 0.33473c-6.0873 1.5093-8.2089 4.1176-5.8668 7.2129 1.2279 1.6228 2.1331 1.5987 9.2806-0.24752 9.4323-2.4364 12.978-2.8389 24.702-2.8043 11.498 0.03393 15.654 0.5415 24.974 3.05 5.6755 1.5276 6.8589 1.5561 8.1667 0.19664 1.1982-1.2456 1.3587-3.4768 0.33801-4.6976-0.37341-0.44662-2.0668-1.3116-3.7631-1.9221-1.6963-0.61054-3.1378-1.1741-3.2033-1.2523-0.06549-0.07821 0.97658-1.0075 2.3158-2.0651 3.5024-2.7658 7.1886-6.4302 9.1731-9.1186 1.4887-2.0167 1.9311-2.3294 3.2807-2.3189 1.5259 0.011854 4.3502 0.69984 4.6839 1.1409 0.0924 0.12216-0.11892 2.467-0.46967 5.2108-0.52962 4.1429-0.56406 5.6911-0.2032 9.1316 1.2284 11.712 8.1026 20.808 18.391 24.336 3.9036 1.3385 12.102 1.8698 15.783 1.0227 5.0942-1.1724 6.6596-2.2783 10.359-7.3188 3.3297-4.5362 3.3842-4.584 4.5203-3.962 2.3083 1.2636 4.8431 5.5316 8.5205 14.347 2.2425 5.3753 3.7537 7.7374 5.8747 9.1821 0.79411 0.5409 4.0941 1.9139 7.3333 3.051 6.369 2.2359 7.943 3.158 8.6811 5.0856 0.66471 1.7358 0.66543 19.636 7.7e-4 21.35-0.72889 1.8793-2.6481 2.9155-9.5659 5.1647-3.4922 1.1355-7.7388 2.6581-9.4371 3.3836-3.0466 1.3017-3.1493 1.4023-7.7192 7.5707-7.8895 10.649-14.399 16.499-25.088 22.545-3.462 1.9582-4.5631 3.1075-5.6423 5.8889-0.40846 1.0527-1.8426 7.5422-3.1871 14.421-1.3444 6.8788-2.567 12.669-2.7168 12.867-0.14981 0.19798-4.164 0.3652-8.9204 0.37161-8.2277 0.0114-8.6869-0.0396-9.4465-1.0409-0.51822-0.68315-1.2584-3.3985-2.1091-7.7367-2.4442-12.465-2.3664-12.408-15.065-11.091-5.993 0.6216-11.541 0.79582-21.291 0.66858l-13.186-0.17212-1.0321 1.2752c-1.3201 1.6311-1.7551 3.0584-3.0624 10.048-0.5876 3.1415-1.2725 6.0808-1.522 6.5317-0.24949 0.45092-1.1437 1.0313-1.9871 1.2897-1.7419 0.53372-13.784 0.57227-15.2 0.0487zm120.77-83.974c0-1.6478 0.0901-1.7853 1.1703-1.7853 1.6896 0 3.5883-1.187 4.3473-2.718 0.88565-1.7864 0.85811-5.797-0.0523-7.6218-0.81252-1.6285-2.6974-3.5716-4.3336-4.4673-1.1314-0.61934-1.1316-0.62055-1.1316-5.1484 0-4.6367 0.14222-5.0102 1.5332-4.0263 0.56953 0.40283 0.66958 0.90665 0.504 2.5382-0.18801 1.8525-0.11308 2.0826 0.83316 2.558 1.4859 0.7466 2.5331-0.1155 2.5331-2.0853 0-2.0336-1.6939-4.273-3.7986-5.022-1.3308-0.47359-1.6048-0.78553-1.6048-1.8267 0-0.9155-0.20907-1.2556-0.77193-1.2556-0.55499 0-0.77193 0.34006-0.77193 1.21 0 1.0225-0.24565 1.2619-1.5846 1.5449-0.99632 0.21056-1.9994 0.883-2.7017 1.8113-0.93863 1.2405-1.1171 1.8899-1.1171 4.0646 0 2.2343 0.18207 2.8546 1.3314 4.5359 0.73227 1.0712 1.948 2.3865 2.7017 2.923l1.3703 0.97531v10.08l-1.0614-0.34644c-1.4359-0.46869-1.908-1.1447-1.3316-1.9065 0.988-1.3058 0.41181-3.2102-1.1256-3.7201-1.1437-0.37938-2.2709 0.75687-2.2709 2.2892 0 1.6095 1.8931 4.0242 3.8895 4.9613 1.7502 0.82156 1.8999 1.023 1.8999 2.5574 0 1.3255 0.15761 1.6656 0.77193 1.6656 0.62489 0 0.77193-0.34005 0.77193-1.7853z" fill-opacity=".44939"/>
    <path d="m161.44 61.642v-4.7772l0.46054 0.33612c1.6815 1.2272 2.5545 2.4407 2.8182 3.9175 0.0487 0.27277 0.0863 0.82605 0.0836 1.2295-9e-3 1.2743-0.33552 2.3674-0.94217 3.1501-0.52355 0.67554-0.80804 0.82339-1.6868 0.87663l-0.73346 0.04443z" fill-opacity=".45344"/>
    <path d="m159.54 51.62c-1.1504-0.86795-1.813-1.745-2.1399-2.8325-0.13547-0.45069-0.15595-0.68161-0.15788-1.7803-2e-3 -1.1232 0.0157-1.3211 0.15983-1.7949 0.22134-0.72744 0.76003-1.4598 1.1336-1.5412 0.26972-0.05876 1.0907-0.32709 1.3748-0.44935l0.14664-0.0631-0.01 4.4265c-5e-3 2.4346-0.01 4.4227-0.01 4.4181 0-0.0046-0.22349-0.17703-0.49665-0.38312z" fill-opacity=".49393"/>
    <path d="m140.21 32.58c-3.5401-1.0317-6.5821-2.7048-9.2014-5.0608-4.2716-3.8422-6.1434-9.1-6.1916-17.392-0.0309-5.3176 0.52434-7.8864 2.0783-9.6145 2.7812-3.0929 30.027-12.841 33.069-11.832 2.4942 0.82732 3.2348 9.4905 1.6758 19.601-1.45 9.4034-4.1653 17.616-7.0645 21.368-1.2202 1.5789-2.2059 2.3056-3.9292 2.8968-2.7566 0.94564-7.2562 0.95993-10.436 0.03314z" fill-opacity=".5081"/>
   </g>
   <g fill="#ea7e00">
    <path d="m56.271 8.8884c-15.358-4.0741-27.379-23.945-24.946-41.235 2.2663-16.106 12.348-28.696 27.404-34.22 2.7407-1.0056 5.5932-1.3071 12.553-1.3267 10.285-0.02891 13.683 0.83845 21.109 5.3882 5.7378 3.5153 8.4438 5.6863 13.057 12.064 2.9535 4.0834 5.7241 6.1846 6.7762 11.116 0.45925 2.1525 0.66459 4.8928 0.5846 8.6848-0.12976 6.1508-2.3022 10.061-1.8299 10.813 0.54416 0.8668 0.31057 2.0584-1.2439 6.3452-2.3696 6.5347-8.2084 14.476-13.173 17.917-6.391 4.4295-10.154 5.2003-24.958 5.1113-7.232-0.043476-14.132-0.33967-15.332-0.65821zm18.285-11.157c0-3.197 0.02637-3.2432 2.0961-3.6807 3.3901-0.71644 7.2726-3.9098 8.6914-7.1485 1.0438-2.3828 1.2341-3.7164 1.0924-7.6541-0.22928-6.3729-1.6685-8.8426-7.4824-12.84l-4.3975-3.0236v-17.961h1.3041c0.71726 0 1.8818 0.61828 2.588 1.3739 1.2273 1.3134 1.242 1.4351 0.33338 2.762-1.914 2.7951-0.40725 6.6847 2.5894 6.6847 5.0523 0 4.7445-8.8839-0.42232-12.19-1.3038-0.83415-2.887-1.5166-3.5182-1.5166-2.1915 0-2.8744-0.78952-2.8744-3.3234 0-2.2275-0.1443-2.4476-1.6046-2.4476-1.4583 0-1.62 0.24518-1.774 2.6891-0.16182 2.5688-0.27723 2.7132-2.5789 3.2288-4.9796 1.1154-8.2342 5.8856-8.2342 12.068 0 6.0887 2.7929 10.925 8.0417 13.925l2.8563 1.6327 0.0097 10.374 0.0097 10.374-2.0091-0.43088c-2.5058-0.53741-3.9722-2.2408-3.0165-3.5039 0.36239-0.47894 0.6589-1.9346 0.6589-3.2347 0-4.5869-4.36-6.0045-6.3184-2.0543-1.9604 3.9541 1.0903 9.4412 6.4098 11.529 1.5598 0.61217 3.1598 1.113 3.5556 1.113 0.48907 0 0.71968 1.0402 0.71968 3.2462 0 3.126 0.06063 3.2462 1.6375 3.2462 1.5762 0 1.6375-0.12117 1.6375-3.2377z" fill-opacity=".53239"/>
    <path d="m74.347-18.319c0-6.5091 0.04625-9.7529 0.13918-9.7529 0.2399 0 2.623 1.6398 3.4087 2.3456 0.8992 0.80767 1.8647 2.1387 2.3575 3.2501 0.99239 2.238 1.0039 5.8255 0.02734 8.5535-0.43618 1.2185-1.5925 2.9171-2.5232 3.7064-0.65621 0.55652-2.0608 1.2804-2.9661 1.5286l-0.44348 0.12159z" fill-opacity=".50202"/>
    <path d="m70.359-38.343c-2.0064-1.3426-3.262-2.8282-3.86-4.5671-0.96474-2.8051-0.71888-6.8969 0.55222-9.1905 0.78125-1.4097 2.35-2.5588 3.9942-2.926l0.57236-0.1278v8.7625c0 4.8194-0.04604 8.7607-0.10234 8.7584-0.0563-0.0023-0.57668-0.3216-1.1564-0.70955z" fill-opacity=".48785"/>
   </g>
  </g>
  <text x="35.179825" y="210.8447" fill="#dbdee3" fill-opacity=".42105" font-family="'Frank Ruhl Hofshi'" font-size="85.954px" stroke="#abb3be" stroke-opacity=".31781" stroke-width=".924" style="line-height:1.25" xml:space="preserve"><tspan x="35.179825" y="210.8447" fill="#dbdee3" fill-opacity=".42105" stroke="#abb3be" stroke-opacity=".31781" stroke-width=".924"/></text>
  <text transform="scale(1.0774 .92819)" x="38.962688" y="31.778767" fill="#999999" font-family="'Poor Richard'" font-size="4.1086px" stroke-opacity=".19636" stroke-width=".72317" style="font-variant-caps:normal;font-variant-east-asian:normal;font-variant-ligatures:normal;font-variant-numeric:normal;line-height:1.25" xml:space="preserve"><tspan x="38.962688" y="31.778767" fill="#999999" font-family="'Poor Richard'" font-size="4.1086px" style="font-variant-caps:normal;font-variant-east-asian:normal;font-variant-ligatures:normal;font-variant-numeric:normal"/></text>
 </g>

    <animate attributeName="opacity"
             values="0;1;0" dur="1s"
             repeatCount="indefinite"/>

</svg>
