<?xml version="1.0" encoding="UTF-8"?>
<svg width="224.3" height="166.27" version="1.1" viewBox="0 0 59.345 43.991" xmlns="http://www.w3.org/2000/svg" xmlns:cc="http://creativecommons.org/ns#" xmlns:dc="http://purl.org/dc/elements/1.1/" xmlns:osb="http://www.openswatchbook.org/uri/2009/osb" xmlns:rdf="http://www.w3.org/1999/02/22-rdf-syntax-ns#" xmlns:xlink="http://www.w3.org/1999/xlink">
 <metadata>
  <rdf:RDF>
   <cc:Work rdf:about="">
    <dc:format>image/svg+xml</dc:format>
    <dc:type rdf:resource="http://purl.org/dc/dcmitype/StillImage"/>
    <dc:title/>
   </cc:Work>
  </rdf:RDF>
 </metadata>
 <g transform="translate(-4.3385 8.3613)">
  <text transform="scale(1.025 .97559)" x="26.799435" y="-13.623567" fill="#000000" font-family="'Frank Ruhl Hofshi'" font-size="14.588px" stroke-opacity=".19636" stroke-width="2.5677" style="line-height:1.25" xml:space="preserve"><tspan x="26.799435" y="-13.623567"/><tspan x="26.799435" y="4.611434" stroke-opacity=".19636" stroke-width="2.5677">$</tspan></text>
  <g transform="matrix(.51668 0 0 .39095 23.657 21.307)" shape-rendering="auto">
   <path d="m-2.3012 36.203c-1.9999-0.90842-2.0862-1.124-3.5958-8.9809-1.0953-5.7008-1.0953-5.7008-2.0834-6.2817-11.035-6.4874-17.66-18.726-16.8-31.036 0.13267-1.8981-0.49986-2.1789-1.3801-0.61263-2.2199 3.9498-9.0858 7.163-10.759 5.0354-1.0534-1.3392-0.26979-2.6261 1.7443-2.8647 1.686-0.19969 3.7542-1.237 5.0087-2.5121 1.2364-1.2568 1.2599-1.1666-0.41744-1.6046-5.5719-1.455-7.1764-5.5483-3.4829-8.8852 3.2614-2.9465 8.4742 0.11469 9.1297 5.3613 0.15573 1.2464 0.46036 1.5762 0.64476 0.69816 2.0178-9.6086 5.7168-15.738 12.588-20.861 3.7228-2.7752 5.2079-3.1578 5.7935-1.4926 0.38077 1.0828 0.034129 1.6171-1.8053 2.7823-19.037 12.059-18.451 40.858 1.0738 52.857 2.7987 1.7199 2.6049 1.2951 4.0316 8.8355 1.4011 7.4054 0.70946 6.6182 5.815 6.6182 5.0498 0 4.5341 0.39863 5.3951-4.1707 1.0397-5.5174 0.88354-5.4031 6.8765-5.0361 4.6186 0.28278 7.0473 0.21277 12.33-0.35538 4.7699-0.51302 4.9074-0.39714 5.9224 4.9913 0.96597 5.128 0.29972 4.5708 5.4655 4.5708 2.7903 0 4.4185-0.08446 4.511-0.23412 0.07964-0.12876 0.64014-2.8798 1.2457-6.1134 1.702-9.0886 1.542-8.0644 5.014-10.086 4.5971-2.6763 8.4066-6.1991 11.134-10.296 1.9548-2.9364 1.8605-3.0825 6.8178-4.6812 6.5923-2.126 6.0692-1.4299 6.0692-8.0777 0-6.3521 0.21892-5.9813-4.4497-7.5372-4.1904-1.3966-4.6539-1.8112-6.0687-5.4289-2.5274-6.4625-4.614-8.8213-5.7324-6.48-1.6594 3.474-4.1442 4.9331-8.3742 4.9174-9.165-0.03414-14.877-7.601-13.123-17.384 0.31221-1.7411 0.31221-1.7411-0.48802-1.9493-2.2495-0.58539-2.3249-0.57369-3.0824 0.47778-1.2888 1.789-2.5551 3.0774-4.3643 4.4407-1.0019 0.75497-1.6663 1.3956-1.5014 1.4477 3.63 1.1471 3.7731 1.2437 3.7731 2.5469 0 0.64898-0.44302 1.2065-1.16 1.4598-0.20609 0.07283-1.4176-0.16906-2.6922-0.53744-8.1781-2.3638-17.712-2.2717-25.72 0.24835-1.9532 0.61469-2.9581 0.12654-2.9581-1.4369 0-0.74327 0.83706-1.3913 2.3556-1.8237 0.74034-0.21081 1.4258-0.4298 1.5231-0.48665 0.097373-0.056821-0.45788-0.58693-1.2339-1.1779-10.353-7.8847-12.164-22.508-4.0326-32.553 9.8274-12.14 28.888-10.929 37.083 2.3571 2.6506 4.2972-0.09591 5.8985-2.8973 1.6892-9.9588-14.964-32.199-10.781-35.617 6.6992-2.1507 11 6.0367 22.306 15.607 21.552 2.6511-0.20898 4.1959-0.20864 6.9561 0.0018 7.7985 0.59355 14.846-6.4993 15.913-16.016 0.27899-2.4879 1.6233-3.4429 2.9619-2.1043 0.81763 0.81763 0.20385 5.4411-1.1378 8.5711-0.44282 1.033-0.44282 1.033 0.50018 1.2776 0.51865 0.1345 1.2746 0.33186 1.6798 0.43855 0.61607 0.16222 0.98372 0.07215 2.2435-0.54943 17.705-8.7363 23.118-5.9702 20.131 10.286-0.36662 1.9952-0.36662 1.9952 0.32699 2.8043 2.8917 3.3734 5.026 6.8832 6.177 10.158 0.77373 2.2014 1.0428 2.4246 4.1488 3.4415 6.1323 2.0078 6.7351 2.9718 6.7231 10.751-0.01223 7.9373-0.45152 8.5354-8.0499 10.963-4.2112 1.3454-4.3748 1.4199-4.9356 2.2501-3.9206 5.8034-7.6568 9.396-13.052 12.551-1.9281 1.1274-1.9281 1.1274-3.101 7.4319-1.8001 9.676-1.5549 9.4107-8.7957 9.5169-7.3314 0.10758-7.6374-0.10298-8.8207-6.0695-0.39801-2.007-0.81628-3.6343-0.92946-3.6163-2.2584 0.35905-6.9023 0.556-11.63 0.49322l-5.8154-0.07716-0.69182 3.5239c-1.0819 5.5105-1.4951 5.7894-8.5676 5.7816-3.8421-4e-3 -4.5867-0.06208-5.3676-0.41676zm-26.455-53.536c-0.99219-2.028-2.3675-2.6101-3.3652-1.4244-1.0766 1.2794-0.24404 2.2335 2.5864 2.9639 1.5202 0.39226 1.6238 0.18758 0.77884-1.5394zm81.224-7.2737c3.958-1.7508 7.034-20.879 3.3576-20.879-2.5176 0-14.25 4.2797-15.562 5.6765-1.3555 1.4436-1.2311 7.93 0.20619 10.747 2.0389 3.9966 8.0165 6.2163 11.998 4.4552z" color="#000000" color-rendering="auto" dominant-baseline="auto" image-rendering="auto" solid-color="#000000" stop-color="#000000" style="font-feature-settings:normal;font-variant-alternates:normal;font-variant-caps:normal;font-variant-east-asian:normal;font-variant-ligatures:normal;font-variant-numeric:normal;font-variant-position:normal;font-variation-settings:normal;inline-size:0;isolation:auto;mix-blend-mode:normal;shape-margin:0;shape-padding:0;text-decoration-color:#000000;text-decoration-line:none;text-decoration-style:solid;text-indent:0;text-orientation:mixed;text-transform:none;white-space:normal"/>
   <path d="m13.18-75.858c-6.1529 0.3072-12.221 3.0636-16.522 8.3766-8.1342 10.049-6.3221 24.677 4.0339 32.564 0.38785 0.2954 0.72077 0.57516 0.9441 0.78838 0.11168 0.10661 0.19594 0.19649 0.24598 0.2628 0.024994 0.03331 0.0408 0.06077 0.047786 0.08051 0.00331 0.0099 0.00402 0.01749 0.00349 0.0229-8.14e-4 0.0054-0.00279 8e-3 -0.00716 0.01038-0.02295 0.01331-0.084011 0.0383-0.17342 0.0699-0.089408 0.03164-0.20711 0.07093-0.3451 0.11502-0.27595 0.08817-0.6324 0.19636-1.0025 0.30172-0.75987 0.21634-1.35 0.4865-1.7502 0.79633-0.40021 0.30984-0.61053 0.66-0.61053 1.0344 0 0.78328 0.25218 1.2994 0.75033 1.5414 0.49816 0.24197 1.239 0.20938 2.2165-0.09821 8.006-2.5196 17.54-2.6111 25.716-0.24774 0.63747 0.18426 1.2584 0.33698 1.7466 0.43444 0.24412 0.04874 0.45568 0.08355 0.61849 0.10174 0.16281 0.01837 0.27612 0.0204 0.3309 9.03e-4 0.7192-0.25406 1.1653-0.81474 1.1653-1.467 0-0.32595-0.0092-0.57667-0.07963-0.78838-0.07065-0.21172-0.20382-0.38365-0.44949-0.54947-0.49137-0.33165-1.434-0.6422-3.2491-1.2157-0.0092-0.0028-0.01453-0.0066-0.01786-0.01249-0.0031-0.0059-0.0035-0.01457-0.0018-0.02581 0.0041-0.02205 0.01989-0.05371 0.04692-0.09291 0.05419-0.07839 0.15327-0.18641 0.28844-0.31675 0.27038-0.26072 0.68664-0.61011 1.1874-0.98746 1.8097-1.3636 3.0766-2.6523 4.3658-4.4418 0.18932-0.2628 0.33602-0.4608 0.484-0.5999 0.14799-0.13912 0.29685-0.21913 0.49285-0.24952 0.39197-0.06074 0.97318 0.08159 2.0979 0.37428 0.20007 0.05207 0.35014 0.09104 0.45657 0.14686 0.1064 0.05583 0.16901 0.12759 0.19907 0.24773 0.06016 0.24028-0.01625 0.67612-0.17255 1.5467-0.87747 4.893 0.11198 9.2324 2.4678 12.353 2.3558 3.1206 6.0776 5.022 10.662 5.0391 2.1158 8e-3 3.7962-0.35326 5.155-1.1512 1.3588-0.7979 2.3959-2.0323 3.2261-3.7702 0.279-0.58412 0.61628-0.87332 1.0052-0.8804 0.38885-0.0072 0.83211 0.26854 1.3202 0.82023 0.97607 1.1034 2.1297 3.3088 3.3933 6.5397 0.70747 1.809 1.1773 2.8182 1.9953 3.5499 0.81796 0.73173 1.9828 1.1846 4.0781 1.8829 1.1672 0.38902 2.0289 0.65756 2.6642 0.94056 0.63534 0.28299 1.0443 0.58011 1.3078 1.0264 0.52694 0.89257 0.47249 2.3876 0.47249 5.5637 0 1.6621 0.03289 2.8644-0.02122 3.7667-0.05395 0.90226-0.19436 1.5037-0.53974 1.9634-0.34539 0.45968-0.89654 0.77925-1.7741 1.1166-0.87747 0.3374-2.0804 0.69218-3.7286 1.2237-2.4787 0.79937-3.6956 1.236-4.5374 1.8404-0.84177 0.60438-1.3072 1.3757-2.2846 2.8438-2.7268 4.0959-6.5357 7.6182-11.132 10.294-0.86778 0.50521-1.5081 0.81962-2.0085 1.1503-0.50045 0.33066-0.8605 0.67758-1.1644 1.2449-0.60783 1.1347-0.99298 3.151-1.844 7.6953-0.30276 1.6168-0.59447 3.1126-0.82023 4.2206-0.1129 0.554-0.20906 1.0114-0.28224 1.3378-0.03663 0.16322-0.06794 0.29381-0.09199 0.38756-0.01207 0.04688-0.02247 0.08454-0.0308 0.11236-0.0087 0.0279-0.01541 0.0458-0.01956 0.0522-0.0092 0.01502-0.0435 0.03412-0.10174 0.05044-0.05828 0.01659-0.13979 0.03165-0.24419 0.04601-0.20885 0.02871-0.50831 0.05353-0.8919 0.07343-0.76717 0.03996-1.8717 0.06107-3.2668 0.06107-1.2916 0-2.2192 0.03496-2.8978 0.0072-0.67855-0.02791-1.1071-0.1189-1.4051-0.36809-0.29798-0.24922-0.46628-0.65795-0.62026-1.3263-0.15398-0.66839-0.29381-1.5953-0.53532-2.8774-0.25376-1.3471-0.45274-2.3649-0.68308-3.1261-0.23033-0.76121-0.49207-1.2659-0.87243-1.5865-0.38036-0.32058-0.87907-0.45575-1.5794-0.47869-0.70033-0.02295-1.6026 0.06551-2.7951 0.19377-5.2825 0.56814-7.7107 0.63846-12.329 0.35572-1.4982-0.09176-2.612-0.16814-3.457-0.14425-0.84498 0.02372-1.4213 0.14766-1.8431 0.45657-0.42182 0.30892-0.68773 0.80249-0.91313 1.5626-0.22542 0.76011-0.41075 1.7874-0.6707 3.1668-0.2153 1.1424-0.34489 1.9746-0.49638 2.5793-0.15148 0.60461-0.32516 0.98147-0.62822 1.2157-0.30306 0.2343-0.73657 0.32703-1.4113 0.361-0.67472 0.03413-1.5901 0.0087-2.8527 0.0087-1.2766 0-2.1908 0.04897-2.865 0.0072-0.67426-0.041906-1.1068-0.17356-1.4254-0.53622-0.31863-0.36262-0.5234-0.95812-0.73529-1.9254-0.21188-0.96724-0.43188-2.3063-0.78218-4.1578-0.71333-3.7702-1.021-5.5494-1.5015-6.6025-0.24024-0.52655-0.52362-0.87146-0.92198-1.1919-0.39834-0.32037-0.91166-0.61594-1.6113-1.0459-19.521-11.996-20.105-40.788-1.0732-52.844 0.91991-0.58274 1.4667-1.0081 1.7369-1.4246 0.27021-0.41645 0.26155-0.82378 0.070772-1.3662-0.14675-0.41729-0.34997-0.70752-0.63176-0.86358-0.28178-0.15607-0.64117-0.17767-1.0972-0.06016-0.91203 0.23495-2.2139 1.0251-4.0755 2.4129-6.8729 5.1235-10.573 11.255-12.591 20.865-0.04601 0.21902-0.10027 0.36238-0.15573 0.43356-0.02791 0.03537-0.05463 0.05249-0.08137 0.05399-0.02665 0.0013-0.05524-0.01198-0.08407-0.04332-0.05761-0.06241-0.11582-0.19296-0.16902-0.3849-0.0532-0.19199-0.10178-0.44607-0.14071-0.75741-0.32803-2.6255-1.7957-4.7044-3.5906-5.7584-1.7949-1.054-3.9183-1.0825-5.5514 0.39285-1.8483 1.6698-2.3714 3.5314-1.7342 5.1567 0.6371 1.6253 2.433 3.0131 5.2204 3.741 0.41938 0.10951 0.73298 0.18579 0.94676 0.25835 0.1069 0.03621 0.18895 0.0721 0.24684 0.10974 0.05791 0.03747 0.09092 0.07705 0.10265 0.12211 0.01171 0.04509 0.0018 0.09638-0.02997 0.15927-0.03165 0.06289-0.08541 0.13649-0.16013 0.22387-0.14949 0.17467-0.38277 0.40513-0.69193 0.71936-1.253 1.2737-3.3208 2.3108-5.0045 2.5102-1.0084 0.11943-1.7095 0.50119-2.0271 1.0229-0.31762 0.52166-0.24924 1.1816 0.2787 1.8528 0.42043 0.5345 1.1661 0.73278 2.0811 0.66893 0.91502-0.063855 2-0.38935 3.1022-0.90517 2.2043-1.0316 4.4765-2.8232 5.5876-4.8001 0.21984-0.39114 0.4243-0.66658 0.60433-0.82996 0.09001-0.08169 0.17401-0.13484 0.25039-0.16103 0.07638-0.02622 0.14509-0.0255 0.20614 0.0018 0.12221 0.05424 0.21568 0.21537 0.26988 0.48312 0.05419 0.26775 0.06944 0.64076 0.0362 1.1149-0.86071 12.313 5.7649 24.554 16.803 31.043 0.49403 0.29044 0.73889 0.43246 0.99896 1.2166 0.26009 0.78416 0.53359 2.2099 1.0813 5.0603 0.75478 3.9284 1.154 5.9462 1.6148 7.0971 0.45995 1.1488 0.98466 1.4328 1.9811 1.8855v0.0018l0.00454 0.0018c0.3911 0.17763 0.77334 0.28128 1.5378 0.34064 0.76448 0.05941 1.9111 0.07493 3.8322 0.07698 3.5363 4e-3 5.4089-0.06335 6.5344-0.82288 0.56277-0.37978 0.93794-0.93249 1.2396-1.7342 0.30168-0.80176 0.53028-1.8528 0.80076-3.2305l0.69104-3.518 5.8088 0.07697c4.7278 0.06275 9.3714-0.13363 11.631-0.49284 0.0013-2.17e-4 0.0041-2.19e-4 0.0072 0.0018 0.0031 0.0018 0.0072 0.0054 0.01174 0.01049 0.0086 0.0106 0.01862 0.02832 0.02996 0.05133 0.02295 0.04613 0.04991 0.11566 0.08051 0.20614 0.06124 0.18107 0.137 0.4457 0.22122 0.77333 0.16842 0.65526 0.3717 1.5635 0.57071 2.5669 0.29581 1.4917 0.53686 2.6239 0.84678 3.4818 0.30992 0.85788 0.68981 1.4416 1.2617 1.8351 1.1439 0.7871 3.0544 0.81206 6.7202 0.75829 1.8101-0.02665 3.1521-0.02955 4.1763-0.17076 1.0242-0.14137 1.7311-0.42102 2.2669-1.0007 1.0716-1.1594 1.4589-3.513 2.3589-8.3509 0.58642-3.1522 0.88006-4.7283 1.2671-5.6558 0.38698-0.9275 0.86663-1.2077 1.8307-1.7714 5.3965-3.1554 9.1336-6.7489 13.055-12.553 0.28028-0.41491 0.45971-0.63885 1.0963-0.92906 0.63658-0.29023 1.7301-0.6457 3.8357-1.3184 3.7991-1.2139 5.81-1.9704 6.8731-3.4181 1.063-1.4477 1.1751-3.5832 1.1812-7.5519 0.0061-3.8895-0.14091-6.0762-1.0582-7.543-0.91727-1.4668-2.6035-2.2106-5.6699-3.2146-1.5529-0.50845-2.3958-0.81822-2.9464-1.275-0.55067-0.4568-0.81036-1.0611-1.1972-2.1616-1.1514-3.2758-3.2865-6.7864-6.1787-10.16-0.17338-0.20227-0.30326-0.35388-0.39464-0.49816-0.09138-0.14428-0.14423-0.28053-0.16456-0.45479-0.0408-0.34851 0.05116-0.84725 0.23449-1.8449 0.74682-4.0645 0.96865-7.2865 0.60433-9.6967-0.36433-2.4102-1.3157-4.0097-2.9146-4.8267-1.5989-0.81698-3.844-0.85169-6.7954-0.13625-2.9514 0.71543-6.61 2.1815-11.036 4.3657-0.62975 0.31072-1.0364 0.48838-1.3617 0.56805-0.32532 0.07967-0.56948 0.06148-0.87685-0.01956-0.40525-0.10674-1.1607-0.30439-1.6794-0.43887-0.23574-0.06115-0.41216-0.1064-0.53709-0.15661-0.12493-0.0502-0.19715-0.10503-0.22738-0.18225-0.03039-0.07726-0.01915-0.17979 0.02831-0.32828 0.04733-0.14849 0.12996-0.34164 0.24066-0.59991 0.67119-1.5658 1.1604-3.505 1.3794-5.155 0.10952-0.82499 0.15153-1.5777 0.11502-2.1758-0.03663-0.59804-0.1512-1.0413-0.35834-1.2485-0.3354-0.3354-0.6714-0.52821-0.99189-0.5884-0.3205-0.06019-0.6249 0.01205-0.89544 0.2044-0.54106 0.3844-0.94692 1.2474-1.0866 2.4925-1.0669 9.5136-8.1117 16.603-15.906 16.01-2.7604-0.21047-4.3061-0.21164-6.9573-0.0028-4.782 0.37694-9.2188-2.2589-12.192-6.3645-2.9731-4.1057-4.4815-9.6805-3.4066-15.178 1.7083-8.7371 8.1204-14.15 15.35-15.51 7.2295-1.3598 15.276 1.3341 20.254 8.8137 0.70077 1.053 1.3981 1.7428 2.0094 2.1183 0.6113 0.37545 1.1376 0.4367 1.4936 0.22916 0.35596-0.20752 0.53884-0.68212 0.46719-1.3724-0.07164-0.69024-0.39784-1.5972-1.0609-2.6722-4.6112-7.4757-12.661-11.13-20.572-10.735zm9.05e-4 0.01415c7.9058-0.39475 15.951 3.2574 20.559 10.728 0.66226 1.0737 0.98781 1.978 1.0591 2.6651 0.07131 0.68705-0.1106 1.1553-0.4601 1.3591-0.34951 0.20377-0.8698 0.1447-1.4785-0.22916-0.60874-0.37386-1.3051-1.0621-2.005-2.1138-4.981-7.4842-13.034-10.181-20.269-8.8199-7.2348 1.3608-13.652 6.7788-15.361 15.522-1.0758 5.5021 0.4338 11.081 3.4092 15.19 2.9754 4.1088 7.4172 6.7481 12.205 6.3707 2.6508-0.20898 4.1947-0.20868 6.9547 0.0018 7.8032 0.59391 14.853-6.5025 15.921-16.022 0.13937-1.2428 0.54487-2.1015 1.0804-2.4819 0.26775-0.1902 0.56804-0.26122 0.88482-0.20173 0.31679 0.05949 0.65086 0.24914 0.9848 0.5831 0.20169 0.20169 0.31662 0.64301 0.35305 1.2396 0.03621 0.59663-0.0046 1.3488-0.11414 2.1731-0.21884 1.6487-0.70807 3.5863-1.3786 5.1505-0.11069 0.25826-0.19382 0.45199-0.24157 0.60168-0.04774 0.1497-0.06061 0.25556-0.02831 0.33798 0.03206 0.08242 0.10978 0.13941 0.23624 0.19024 0.12647 0.05082 0.3031 0.09637 0.53886 0.15748 0.51864 0.1345 1.2742 0.33215 1.6794 0.43887 0.30872 0.08129 0.55648 0.09966 0.88394 0.01956 0.32745-0.08022 0.73528-0.25897 1.3653-0.56983 4.4259-2.1839 8.0831-3.6489 11.033-4.3639 2.9497-0.71501 5.1906-0.67918 6.7848 0.13538 1.5942 0.81455 2.5427 2.4086 2.9066 4.8161 0.36392 2.4075 0.14233 5.6277-0.60433 9.6914-0.18329 0.9976-0.27471 1.4958-0.23358 1.8484 0.0204 0.1763 0.07409 0.31625 0.16634 0.46188 0.09226 0.14565 0.223 0.29764 0.39639 0.49993 2.8912 3.3729 5.0246 6.8815 6.1752 10.155 0.38694 1.1009 0.64869 1.7093 1.2025 2.1687 0.55378 0.45938 1.3978 0.76917 2.9509 1.2777 3.0659 1.0038 4.7478 1.7465 5.662 3.2084 0.91421 1.4619 1.0625 3.6459 1.0565 7.5351-0.0061 3.9685-0.11931 6.1014-1.1786 7.544-1.0593 1.4426-3.0671 2.199-6.8662 3.4128-2.1056 0.67268-3.1992 1.0274-3.8375 1.3184-0.63822 0.29094-0.82194 0.5191-1.1025 0.93437-3.9202 5.8028-7.6544 9.394-13.049 12.549-0.96406 0.5637-1.4486 0.84713-1.8369 1.7776-0.38823 0.93047-0.68152 2.5071-1.2679 5.6593-0.90005 4.838-1.2893 7.1903-2.3554 8.3438-0.53304 0.57675-1.2355 0.85517-2.2581 0.99631-1.0225 0.14116-2.3652 0.14425-4.1755 0.17076-3.6657 0.05377-5.5736 0.02748-6.7114-0.75563-0.56889-0.39143-0.94621-0.97173-1.2556-1.828-0.30934-0.85631-0.55008-1.9884-0.84589-3.48-0.19903-1.0036-0.40309-1.9121-0.57159-2.5677-0.08426-0.32783-0.15978-0.59251-0.22121-0.77421-0.03081-0.09088-0.05807-0.1607-0.08143-0.20793-0.01174-0.02372-0.02295-0.04175-0.0329-0.05398-0.0051-0.0061-0.0099-0.0106-0.01504-0.01397-0.0051-0.0031-0.0099-0.0054-0.0158-0.0045-2.2573 0.35888-6.9019 0.55651-11.629 0.49373l-5.8212-0.07783-0.69281 3.5304c-0.27046 1.3776-0.4988 2.4277-0.79988 3.2278-0.30106 0.80012-0.67449 1.3494-1.2343 1.7272-1.1197 0.75558-2.9903 0.82414-6.5264 0.82023-1.921-0.0018-3.0677-0.0176-3.8313-0.07698-0.7622-0.05919-1.1417-0.16151-1.5307-0.33798l-0.00262-0.0018c-0.99977-0.45416-1.5179-0.73208-1.9776-1.8803-0.45971-1.1482-0.85914-3.167-1.6139-7.0954-0.54766-2.8504-0.82137-4.2749-1.0821-5.0612-0.26076-0.78626-0.51025-0.93417-1.0043-1.2246-11.033-6.486-17.657-18.723-16.797-31.03 0.03331-0.47493 0.01835-0.84861-0.0362-1.1184-0.05463-0.2698-0.14846-0.4363-0.27783-0.49372-0.06469-0.02872-0.13774-0.02997-0.2168-0.0028-0.07905 0.02706-0.16472 0.08202-0.25572 0.16455-0.18199 0.16513-0.38669 0.44154-0.60698 0.8335-1.1088 1.9728-3.3795 3.7634-5.5814 4.794-1.101 0.51526-2.1845 0.84061-3.0969 0.90429-0.9124 0.063663-1.6532-0.1343-2.0696-0.66362-0.52547-0.66802-0.59128-1.3207-0.27695-1.8369 0.31434-0.51624 1.0109-0.89667 2.0165-1.0158 1.6882-0.19994 3.7575-1.2381 5.0134-2.5147 0.30905-0.31417 0.54258-0.54379 0.69281-0.71936 0.07514-0.08778 0.12923-0.16184 0.16194-0.22649 0.03291-0.0647 0.04386-0.1203 0.03081-0.16988-0.01292-0.04958-0.05004-0.09217-0.10974-0.13096-0.05965-0.03871-0.14207-0.07414-0.24952-0.11061-0.21492-0.07296-0.52837-0.14978-0.94764-0.25926-2.7845-0.72713-4.576-2.1129-5.2107-3.7322-0.63475-1.6193-0.11456-3.4737 1.7307-5.1408 1.6283-1.4711 3.7429-1.4418 5.5337-0.39018 1.7907 1.0516 3.2569 3.1257 3.5844 5.7469 0.03913 0.31184 0.08722 0.56709 0.14071 0.76006 0.05348 0.19298 0.11147 0.32408 0.17255 0.39022 0.0304 0.0329 0.06319 0.05045 0.09559 0.04866 0.03247-0.0018 0.06281-0.02295 0.09205-0.06017 0.05841-0.07498 0.11218-0.21976 0.1584-0.43976 2.0176-9.6074 5.7152-15.734 12.586-20.856 1.8611-1.3874 3.1625-2.1764 4.0702-2.4103 0.45382-0.11693 0.80884-0.09541 1.0866 0.0584 0.2777 0.15382 0.4795 0.4403 0.62557 0.85562 0.19002 0.54038 0.19877 0.94105-0.069008 1.3538-0.26779 0.4127-0.81395 0.83771-1.7334 1.4201-19.041 12.062-18.455 40.867 1.0742 52.869 0.69976 0.43002 1.2125 0.72566 1.6095 1.045 0.39701 0.31933 0.6781 0.66174 0.91756 1.1865 0.47893 1.0496 0.78731 2.8287 1.5007 6.599 0.35026 1.8513 0.57014 3.1907 0.78218 4.1587 0.21206 0.96793 0.41616 1.5644 0.73794 1.9307 0.32179 0.36624 0.7603 0.50044 1.4361 0.5424 0.67576 0.04196 1.5897-0.0078 2.8659-0.0078 1.2623 0 2.1769 0.0255 2.8527-0.0087 0.67573-0.03412 1.1133-0.12642 1.4201-0.36366 0.30689-0.23723 0.48174-0.61794 0.63353-1.2237 0.15176-0.60576 0.28112-1.4379 0.49639-2.5801 0.25993-1.3794 0.44479-2.4062 0.66981-3.165 0.22499-0.75876 0.4896-1.2483 0.90782-1.5546 0.41822-0.3063 0.99136-0.43004 1.8351-0.45391 0.84375-0.02372 1.9578 0.05161 3.4561 0.14333 4.6188 0.28278 7.048 0.21336 12.331-0.3548 1.1924-0.12825 2.0956-0.21754 2.7943-0.19467 0.6987 0.02295 1.1925 0.1573 1.5697 0.47515 0.37711 0.31783 0.63804 0.82029 0.86801 1.5803 0.22996 0.75999 0.42933 1.7772 0.68308 3.1243 0.24149 1.2819 0.38111 2.2081 0.53532 2.8774 0.15419 0.66939 0.32279 1.0827 0.62468 1.3352 0.30193 0.25248 0.73524 0.34281 1.4148 0.37074 0.67958 0.02791 1.6065-0.0072 2.8978-0.0072 1.3952 0 2.5-0.0204 3.2676-0.06017 0.38381-0.01989 0.68316-0.04529 0.89278-0.07431 0.10482-0.0145 0.18662-0.02997 0.24598-0.04694 0.05936-0.01659 0.09662-0.03331 0.11061-0.05575 0.0059-0.0096 0.01249-0.02748 0.02121-0.05575 0.0087-0.02832 0.01874-0.06629 0.0308-0.11328 0.02415-0.09401 0.05541-0.22512 0.092-0.38843 0.07322-0.32662 0.16934-0.78291 0.28224-1.337 0.22579-1.1081 0.51745-2.6046 0.82023-4.2215 0.85098-4.5443 1.2365-6.5602 1.8422-7.6909 0.30285-0.56533 0.66077-0.90979 1.16-1.2396 0.49923-0.32987 1.1403-0.64481 2.0085-1.1503 4.598-2.6768 8.4082-6.2005 11.136-10.298 0.97747-1.4683 1.442-2.2378 2.2811-2.8402 0.83908-0.60244 2.0544-1.0384 4.5329-1.8378 1.648-0.53147 2.851-0.88683 3.7295-1.2246 0.87849-0.33777 1.4324-0.65805 1.7803-1.1211 0.34789-0.46302 0.48928-1.068 0.54328-1.9714 0.05398-0.90336 0.02123-2.1057 0.02123-3.7676 0-3.176 0.05561-4.6718-0.47514-5.5708-0.2654-0.44962-0.6773-0.7491-1.314-1.0327-0.63666-0.28357-1.4989-0.5516-2.666-0.94056-2.0951-0.69824-3.2577-1.1511-4.0728-1.8802-0.81508-0.72914-1.2844-1.7359-1.9917-3.5446-1.2638-3.2316-2.4173-5.4378-3.3959-6.5441-0.48934-0.55315-0.93488-0.83185-1.3308-0.82465-0.39589 0.0072-0.73826 0.3018-1.0184 0.88836-0.82926 1.7361-1.8648 2.9678-3.2207 3.764-1.3559 0.79622-3.0328 1.1572-5.147 1.1494-4.5805-0.01708-8.2975-1.9167-10.651-5.0337-2.3531-3.117-3.342-7.4518-2.4651-12.341 0.15611-0.87055 0.23441-1.3058 0.17255-1.5529-0.0308-0.12351-0.09816-0.19944-0.20706-0.2566-0.1089-0.05715-0.25918-0.09658-0.45922-0.14866-1.1248-0.29269-1.7057-0.43678-2.1032-0.37516-0.19873 0.0308-0.3513 0.11344-0.5008 0.25393-0.14949 0.14054-0.29635 0.33877-0.48577 0.60168-1.2884 1.7885-2.5543 3.0762-4.363 4.4391-0.50113 0.37761-0.91812 0.72697-1.1892 0.98835-0.13555 0.13067-0.23404 0.23945-0.28932 0.31942-0.02746 0.03997-0.04484 0.07223-0.04953 0.0982-0.0023 0.01291-0.0013 0.02497 0.0035 0.03456 0.0051 0.0096 0.01403 0.01664 0.02581 0.0204 1.815 0.57352 2.7578 0.88477 3.2455 1.214 0.24386 0.1646 0.37366 0.33274 0.44329 0.54151 0.06965 0.20877 0.07875 0.45829 0.07875 0.78395 0 0.64569-0.44003 1.2013-1.1547 1.4538-0.04825 0.01708-0.16348 0.0153-0.32562-0.0028-0.16215-0.01835-0.37199-0.05219-0.61584-0.10086-0.48768-0.09737-1.1095-0.25031-1.7466-0.43445-8.1796-2.3642-17.715-2.2719-25.724 0.24866-0.97573 0.30709-1.7132 0.33748-2.2059 0.09821-0.49261-0.23927-0.74236-0.74791-0.74236-1.5281 0-0.36891 0.20721-0.71474 0.60522-1.0228 0.39796-0.30809 0.98616-0.57854 1.7449-0.79457 0.37024-0.1054 0.72722-0.2126 1.0034-0.30085 0.13807-0.04412 0.25543-0.08317 0.3451-0.11502 0.089618-0.03206 0.15115-0.05661 0.17696-0.07169 0.00786-0.0046 0.012925-0.01249 0.013973-0.02122 0.00136-0.0087-4.996e-4 -0.01874-0.00454-0.02997-0.00786-0.02246-0.024993-0.05028-0.050441-0.08404-0.050948-0.06752-0.1358-0.15765-0.24774-0.26455-0.22397-0.2138-0.55681-0.49362-0.94499-0.78926-10.35-7.8823-12.161-22.5-4.0314-32.543 4.2982-5.3097 10.363-8.0651 16.512-8.3722zm42.651 30.359c-0.63146 0-1.8363 0.26792-3.311 0.69104-1.4747 0.42312-3.2189 1.0013-4.9249 1.6236-1.706 0.62231-3.3745 1.2887-4.6984 1.8864-0.66197 0.29889-1.2376 0.58088-1.6891 0.83173-0.45152 0.25085-0.77894 0.47003-0.9441 0.64592-0.34077 0.36292-0.58664 1.0404-0.74325 1.8962-0.15661 0.85578-0.2233 1.8902-0.2026 2.9677 0.04122 2.155 0.43154 4.4815 1.1511 5.892 1.0205 2.0004 3.0261 3.5547 5.2744 4.3896 2.2484 0.83489 4.7397 0.9497 6.7326 0.06814 0.99364-0.43954 1.9277-1.9646 2.7155-4.0047 0.78778-2.0401 1.4285-4.5954 1.8307-7.0963 0.40217-2.5009 0.56593-4.9472 0.39905-6.7689-0.08341-0.91081-0.24986-1.6656-0.51054-2.1935-0.26068-0.52782-0.61679-0.82908-1.0795-0.82908zm0 0.01415c0.45641 0 0.80777 0.29689 1.0671 0.822 0.25935 0.52509 0.42543 1.2784 0.50877 2.1882 0.16668 1.8196 0.0031 4.2644-0.39905 6.7644-0.40205 2.5-1.0425 5.0548-1.8298 7.0936-0.78726 2.0388-1.7222 3.5609-2.7075 3.9967-1.9884 0.87957-4.4765 0.76569-6.722-0.06814-2.2455-0.83382-4.248-2.3872-5.2664-4.3834-0.71764-1.4067-1.1081-3.7324-1.1494-5.8858-0.02081-1.0767 0.04538-2.1106 0.20173-2.965 0.15636-0.85446 0.40271-1.5293 0.73971-1.8882 0.16272-0.1733 0.48959-0.39272 0.94056-0.64326 0.45097-0.25056 1.0265-0.53207 1.6882-0.83085 1.3235-0.59754 2.9918-1.2633 4.6975-1.8855 1.7057-0.62222 3.4489-1.2015 4.9231-1.6245 1.4742-0.42298 2.6801-0.69016 3.3075-0.69016zm-87.141 26.152c-0.28632 0.0809-0.56124 0.26726-0.81138 0.56452-0.26971 0.32054-0.42016 0.6215-0.44949 0.90428-0.02915 0.28278 0.06314 0.54766 0.27783 0.79368 0.42938 0.49205 1.3466 0.91234 2.7624 1.2777 0.38023 0.09811 0.67166 0.15906 0.88305 0.16809 0.10569 0.0046 0.19158-0.0035 0.25835-0.02747 0.06677-0.02372 0.11489-0.06323 0.14333-0.11943 0.05686-0.11239 0.03706-0.28936-0.04866-0.54594-0.08558-0.25656-0.2382-0.59277-0.44949-1.0246-0.49655-1.0149-1.0887-1.669-1.6838-1.9209-0.29756-0.12596-0.59583-0.15078-0.88216-0.06991zm0.0035 0.01325c0.28316-0.08006 0.57743-0.05495 0.87243 0.06991 0.59001 0.24973 1.182 0.90083 1.6776 1.9139 0.21119 0.43164 0.36258 0.76845 0.44772 1.0237 0.08513 0.25527 0.10298 0.42881 0.04953 0.53444-0.02665 0.05282-0.07128 0.08962-0.13538 0.11237-0.06412 0.02295-0.14757 0.03121-0.25218 0.02665-0.20918-0.0086-0.50051-0.07011-0.88039-0.16814-1.4146-0.36504-2.3291-0.78584-2.7544-1.2733-0.21267-0.24368-0.3041-0.50342-0.27516-0.78218 0.02871-0.27874 0.17829-0.57715 0.44684-0.89633 0.24868-0.29556 0.52027-0.48092 0.80342-0.56097z" color="#000000" color-rendering="auto" dominant-baseline="auto" image-rendering="auto" solid-color="#000000" stop-color="#000000" style="font-feature-settings:normal;font-variant-alternates:normal;font-variant-caps:normal;font-variant-east-asian:normal;font-variant-ligatures:normal;font-variant-numeric:normal;font-variant-position:normal;font-variation-settings:normal;inline-size:0;isolation:auto;mix-blend-mode:normal;shape-margin:0;shape-padding:0;text-decoration-color:#000000;text-decoration-line:none;text-decoration-style:solid;text-indent:0;text-orientation:mixed;text-transform:none;white-space:normal"/>
  </g>
  <g>
   <text x="35.179825" y="210.8447" fill="#dbdee3" fill-opacity=".42105" font-family="'Frank Ruhl Hofshi'" font-size="85.954px" stroke="#abb3be" stroke-opacity=".31781" stroke-width=".924" style="line-height:1.25" xml:space="preserve"><tspan x="35.179825" y="210.8447" fill="#dbdee3" fill-opacity=".42105" stroke="#abb3be" stroke-opacity=".31781" stroke-width=".924"/></text>
   <text transform="matrix(1.025 .088027 0 .97559 0 0)" x="49.645138" y="4.8510132" fill="#000000" font-family="'Frank Ruhl Hofshi'" font-size="7.3656px" stroke-opacity=".19636" stroke-width="1.2964" style="line-height:1.25" xml:space="preserve"><tspan x="49.645138" y="4.8510132"/><tspan x="49.645138" y="14.058039" stroke-opacity=".19636" stroke-width="1.2964">$</tspan></text>
   <text transform="scale(1.0774 .92819)" x="38.962688" y="31.778767" fill="#999999" font-family="'Poor Richard'" font-size="4.1086px" stroke-opacity=".19636" stroke-width=".72317" style="font-variant-caps:normal;font-variant-east-asian:normal;font-variant-ligatures:normal;font-variant-numeric:normal;line-height:1.25" xml:space="preserve"><tspan x="38.962688" y="31.778767" fill="#999999" font-family="'Poor Richard'" font-size="4.1086px" style="font-variant-caps:normal;font-variant-east-asian:normal;font-variant-ligatures:normal;font-variant-numeric:normal"/></text>
  </g>
    <animate attributeName="opacity"
             values="0;1;0" dur="2s"
             repeatCount="indefinite"/>
 </g>

</svg>
