<?xml version="1.0" encoding="UTF-8" standalone="no"?>
<svg
   xmlns:osb="http://www.openswatchbook.org/uri/2009/osb"
   xmlns:dc="http://purl.org/dc/elements/1.1/"
   xmlns:cc="http://creativecommons.org/ns#"
   xmlns:rdf="http://www.w3.org/1999/02/22-rdf-syntax-ns#"
   xmlns:svg="http://www.w3.org/2000/svg"
   xmlns="http://www.w3.org/2000/svg"
   xmlns:xlink="http://www.w3.org/1999/xlink"
   xmlns:sodipodi="http://sodipodi.sourceforge.net/DTD/sodipodi-0.dtd"
   xmlns:inkscape="http://www.inkscape.org/namespaces/inkscape"
   width="350"
   height="350"
   viewBox="0 0 92.604142 92.604151"
   version="1.1"
   id="svg8"
   inkscape:version="1.0.2-2 (e86c870879, 2021-01-15)"
   sodipodi:docname="projeto_icone.svg"
   inkscape:export-filename="C:\Projetos\R\Shiny\controleFinanceiroFamiliar\www\logo_icone.png"
   inkscape:export-xdpi="97"
   inkscape:export-ydpi="97">
  <defs
     id="defs2">
    <linearGradient
       id="linearGradient3250"
       osb:paint="solid">
      <stop
         style="stop-color:#dbdee3;stop-opacity:1;"
         offset="0"
         id="stop3248" />
    </linearGradient>
    <linearGradient
       id="linearGradient3244"
       osb:paint="solid">
      <stop
         style="stop-color:#dbdee3;stop-opacity:1;"
         offset="0"
         id="stop3242" />
    </linearGradient>
    <linearGradient
       id="linearGradient3238"
       osb:paint="solid">
      <stop
         style="stop-color:#dbdee3;stop-opacity:1;"
         offset="0"
         id="stop3236" />
    </linearGradient>
    <linearGradient
       id="linearGradient1276"
       osb:paint="solid">
      <stop
         style="stop-color:#dbdee3;stop-opacity:1;"
         offset="0"
         id="stop1274" />
    </linearGradient>
    <clipPath
       clipPathUnits="userSpaceOnUse"
       id="clipPath1093">
      <path
         id="path1095"
         style="fill:#ff0000;fill-opacity:1;fill-rule:nonzero;stroke:none;stroke-width:0.264583"
         d="m 114.12585,74.060079 v 23.038387 c 0.0665,-0.03832 0.13351,-0.07984 0.19947,-0.117305 0.10427,-0.05924 0.60638,-0.01918 1.09657,0.03256 0.0109,-0.02215 0.0202,-0.04486 0.032,-0.06667 0.11136,-0.205163 0.55263,-0.269004 1.00924,-0.279569 0.45662,-0.01056 0.92856,0.03204 1.10019,0.03928 0.0279,0.160057 2.26162,0.0173 2.35232,0.05839 0.5265,0.238403 1.01447,0.552974 1.5136,0.845429 V 74.060079 Z m 0.55345,23.656954 c -0.0166,0.0068 0.12243,0.07579 0.37569,0.1788 h 0.0331 c -0.17608,-0.10382 -0.33374,-0.167272 -0.39067,-0.177768 -0.009,-0.0016 -0.0153,-0.0021 -0.0181,-0.0011 z m -0.0222,60.241797 c -0.28506,0.29115 -0.44915,0.4845 0.0238,0.0419 -0.008,-0.014 -0.0159,-0.0279 -0.0238,-0.0419 z m 6.77219,18.66915 c -0.0841,0.18306 -0.3405,0.26308 -0.5333,0.34054 -0.37085,0.14904 -0.62092,0.24019 -0.83561,0.30799 -0.0402,0.0229 -0.0806,0.0472 -0.12195,0.0729 0.0106,0.0999 0.0211,0.19983 0.0341,0.2992 -0.14812,0.002 -0.29628,-5.2e-4 -0.44441,-5.2e-4 -0.19486,0.16551 -0.38634,0.36479 -0.55552,0.61081 -0.21096,0.30675 0.082,0.73997 0.12298,1.11001 0.29698,2.6835 1.41476,-1.40449 2.33371,-2.52181 z m 0,3.96668 c -0.24984,0.0872 -0.53359,0.078 -0.92294,0.078 h -2.97914 -3.18947 c -0.0729,0 -0.14186,-0.004 -0.21188,-0.007 v 23.91792 h 7.30343 z" />
    </clipPath>
    <linearGradient
       inkscape:collect="always"
       xlink:href="#linearGradient1276"
       id="linearGradient1278"
       x1="-18.201948"
       y1="149.36227"
       x2="235.30147"
       y2="149.36227"
       gradientUnits="userSpaceOnUse" />
    <linearGradient
       inkscape:collect="always"
       xlink:href="#linearGradient3250"
       id="linearGradient3252"
       x1="79.935051"
       y1="72.532066"
       x2="111.14774"
       y2="72.532066"
       gradientUnits="userSpaceOnUse" />
  </defs>
  <sodipodi:namedview
     id="base"
     pagecolor="#ffffff"
     bordercolor="#666666"
     borderopacity="1.0"
     inkscape:pageopacity="0"
     inkscape:pageshadow="2"
     inkscape:zoom="1.4"
     inkscape:cx="116.44743"
     inkscape:cy="140.80141"
     inkscape:document-units="mm"
     inkscape:current-layer="layer1"
     inkscape:document-rotation="0"
     showgrid="false"
     inkscape:window-width="1920"
     inkscape:window-height="1009"
     inkscape:window-x="-8"
     inkscape:window-y="-8"
     inkscape:window-maximized="1"
     fit-margin-top="0"
     fit-margin-left="0"
     fit-margin-right="0"
     fit-margin-bottom="0"
     showguides="true"
     inkscape:guide-bbox="true"
     units="px" />
  <metadata
     id="metadata5">
    <rdf:RDF>
      <cc:Work
         rdf:about="">
        <dc:format>image/svg+xml</dc:format>
        <dc:type
           rdf:resource="http://purl.org/dc/dcmitype/StillImage" />
        <dc:title></dc:title>
      </cc:Work>
    </rdf:RDF>
  </metadata>
  <g
     inkscape:label="Layer 1"
     inkscape:groupmode="layer"
     id="layer1"
     transform="translate(25.258958,1.5082358)">
    <g
       id="path1111"
       style="opacity:1;fill:#ff6600;fill-opacity:0.421053;stroke:none;stroke-width:1.3724;stroke-miterlimit:4;stroke-dasharray:none;stroke-opacity:0.196356"
       transform="matrix(3.3378578,0,0,3.3984083,99.544138,-34.144)"
       inkscape:export-xdpi="97"
       inkscape:export-ydpi="97">
      <path
         style="color:#000000;font-style:normal;font-variant:normal;font-weight:normal;font-stretch:normal;font-size:medium;line-height:normal;font-family:sans-serif;font-variant-ligatures:normal;font-variant-position:normal;font-variant-caps:normal;font-variant-numeric:normal;font-variant-alternates:normal;font-variant-east-asian:normal;font-feature-settings:normal;font-variation-settings:normal;text-indent:0;text-align:start;text-decoration:none;text-decoration-line:none;text-decoration-style:solid;text-decoration-color:#000000;letter-spacing:normal;word-spacing:normal;text-transform:none;writing-mode:lr-tb;direction:ltr;text-orientation:mixed;dominant-baseline:auto;baseline-shift:baseline;text-anchor:start;white-space:normal;shape-padding:0;shape-margin:0;inline-size:0;clip-rule:nonzero;display:inline;overflow:visible;visibility:visible;isolation:auto;mix-blend-mode:normal;color-interpolation:sRGB;color-interpolation-filters:linearRGB;solid-color:#000000;solid-opacity:1;vector-effect:none;fill:#ff6600;fill-opacity:1;fill-rule:nonzero;stroke:none;stroke-width:1.3724;stroke-linecap:butt;stroke-linejoin:miter;stroke-miterlimit:4;stroke-dasharray:none;stroke-dashoffset:0;stroke-opacity:0.196356;color-rendering:auto;image-rendering:auto;shape-rendering:auto;text-rendering:auto;enable-background:accumulate;stop-color:#000000;stop-opacity:1"
         d="m -28.959971,36.531805 c -0.480409,-0.218221 -0.501149,-0.270019 -0.863773,-2.157388 -0.263119,-1.369459 -0.263119,-1.369459 -0.500468,-1.508991 -2.650952,-1.558414 -4.24237,-4.498389 -4.035659,-7.455446 0.03187,-0.455958 -0.120076,-0.523408 -0.331536,-0.147166 -0.533264,0.948817 -2.182596,1.720711 -2.584624,1.209613 -0.25305,-0.321699 -0.06481,-0.630849 0.419006,-0.688149 0.405002,-0.04797 0.90184,-0.297158 1.203185,-0.603463 0.29701,-0.301901 0.302642,-0.280249 -0.100278,-0.385467 -1.338483,-0.349527 -1.723923,-1.332822 -0.83666,-2.134407 0.783457,-0.707807 2.035678,0.02755 2.193149,1.287905 0.03741,0.2994 0.110587,0.378641 0.154883,0.167713 0.484729,-2.308178 1.373286,-3.780638 3.024012,-5.011199 0.894283,-0.66666 1.251047,-0.758574 1.391726,-0.358552 0.09147,0.2601 0.0082,0.38847 -0.433658,0.668365 -4.57297,2.896863 -4.432425,9.814898 0.257954,12.69724 0.672305,0.413147 0.625748,0.311111 0.968466,2.122473 0.336585,1.778939 0.170428,1.589829 1.396873,1.589829 1.213054,0 1.089177,0.09576 1.296024,-1.001878 0.249767,-1.325405 0.212244,-1.297925 1.65188,-1.209781 1.109483,0.06793 1.692906,0.05111 2.961913,-0.08537 1.145821,-0.123237 1.178853,-0.0954 1.422684,1.199024 0.232046,1.231853 0.072,1.098005 1.31292,1.098005 0.670298,0 1.061425,-0.02029 1.083637,-0.05624 0.01913,-0.03093 0.153775,-0.691789 0.299239,-1.468574 0.408847,-2.183263 0.37042,-1.937245 1.204458,-2.422806 1.104312,-0.642909 2.019431,-1.489155 2.67462,-2.473322 0.469593,-0.705387 0.446933,-0.740482 1.637769,-1.12452 1.583602,-0.510703 1.457959,-0.343484 1.457959,-1.940431 0,-1.525911 0.05259,-1.43683 -1.068908,-1.810598 -1.006628,-0.335483 -1.117966,-0.435082 -1.45783,-1.304123 -0.607126,-1.552434 -1.10838,-2.119058 -1.37703,-1.556621 -0.398619,0.834527 -0.995513,1.185028 -2.011651,1.181254 -2.201627,-0.0082 -3.573847,-1.825913 -3.152416,-4.175902 0.075,-0.418247 0.075,-0.418247 -0.117233,-0.468271 -0.540381,-0.140622 -0.558499,-0.137813 -0.740462,0.114772 -0.309597,0.429747 -0.613787,0.739264 -1.048389,1.066746 -0.24068,0.181359 -0.400286,0.335252 -0.360674,0.347768 0.871999,0.275546 0.906384,0.298756 0.906384,0.611809 0,0.155899 -0.106423,0.28983 -0.278645,0.350667 -0.04951,0.0175 -0.340531,-0.04061 -0.646711,-0.129103 -1.964551,-0.567826 -4.254884,-0.545712 -6.178466,0.05966 -0.469196,0.147661 -0.710602,0.0304 -0.710602,-0.345178 0,-0.178548 0.201079,-0.334223 0.565871,-0.438094 0.177846,-0.05064 0.342496,-0.103246 0.365887,-0.116904 0.02339,-0.01365 -0.109992,-0.140992 -0.296408,-0.282967 -2.486977,-1.894076 -2.922127,-5.406805 -0.968718,-7.819952 2.360744,-2.9163549 6.939458,-2.6253187 8.908075,0.566221 0.636735,1.032281 -0.02304,1.416934 -0.695997,0.405772 -2.392314,-3.5946128 -7.734904,-2.589716 -8.555886,1.609289 -0.516635,2.642392 1.450146,5.358359 3.74905,5.177135 0.636837,-0.0502 1.007944,-0.05012 1.670997,4.36e-4 1.873353,0.142584 3.566231,-1.561273 3.82261,-3.84739 0.06702,-0.597655 0.389941,-0.827065 0.71152,-0.505488 0.196412,0.196413 0.04897,1.307057 -0.273323,2.058949 -0.106373,0.248154 -0.106373,0.248154 0.120155,0.306898 0.12459,0.03231 0.306178,0.07972 0.403525,0.105349 0.147992,0.03897 0.236311,0.01733 0.538927,-0.131984 4.252996,-2.09864 5.553436,-1.434167 4.835899,2.470954 -0.08807,0.479289 -0.08807,0.479289 0.07855,0.673657 0.694649,0.81036 1.207353,1.653491 1.483835,2.440139 0.185866,0.528825 0.250491,0.582434 0.996623,0.82673 1.4730997,0.48232 1.6179131,0.713887 1.6150172,2.582526 -0.00295,1.906697 -0.1084642,2.050386 -1.9337602,2.633521 -1.011621,0.323185 -1.050912,0.341096 -1.185636,0.540521 -0.941814,1.394096 -1.839312,2.257112 -3.135467,3.015 -0.463174,0.270828 -0.463174,0.270828 -0.744917,1.785284 -0.432418,2.324371 -0.373526,2.260652 -2.112907,2.286163 -1.761163,0.02584 -1.83466,-0.02474 -2.118905,-1.458013 -0.09561,-0.482119 -0.196086,-0.873041 -0.223276,-0.868719 -0.542521,0.08625 -1.658081,0.133563 -2.793728,0.11848 l -1.396985,-0.01854 -0.166191,0.846508 c -0.259888,1.323737 -0.359155,1.390725 -2.058105,1.388848 -0.922953,-9.79e-4 -1.101811,-0.01491 -1.289398,-0.100115 z m -6.35507,-12.860551 c -0.238344,-0.487159 -0.568729,-0.627004 -0.808395,-0.342178 -0.258614,0.307349 -0.05862,0.536529 0.621303,0.71198 0.365182,0.09423 0.390063,0.04506 0.187092,-0.369802 z m 19.511652,-1.747284 c 0.950785,-0.420578 1.689705,-5.015544 0.806553,-5.015544 -0.604779,0 -3.423137,1.028074 -3.738207,1.363616 -0.325621,0.346776 -0.295725,1.904948 0.04953,2.581706 0.489792,0.960072 1.925731,1.493281 2.882124,1.070222 z"
         id="path1282"
         inkscape:export-xdpi="97"
         inkscape:export-ydpi="97" />
      <path
         style="color:#000000;font-style:normal;font-variant:normal;font-weight:normal;font-stretch:normal;font-size:medium;line-height:normal;font-family:sans-serif;font-variant-ligatures:normal;font-variant-position:normal;font-variant-caps:normal;font-variant-numeric:normal;font-variant-alternates:normal;font-variant-east-asian:normal;font-feature-settings:normal;font-variation-settings:normal;text-indent:0;text-align:start;text-decoration:none;text-decoration-line:none;text-decoration-style:solid;text-decoration-color:#000000;letter-spacing:normal;word-spacing:normal;text-transform:none;writing-mode:lr-tb;direction:ltr;text-orientation:mixed;dominant-baseline:auto;baseline-shift:baseline;text-anchor:start;white-space:normal;shape-padding:0;shape-margin:0;inline-size:0;clip-rule:nonzero;display:inline;overflow:visible;visibility:visible;isolation:auto;mix-blend-mode:normal;color-interpolation:sRGB;color-interpolation-filters:linearRGB;solid-color:#000000;solid-opacity:1;vector-effect:none;fill:#ff6600;fill-opacity:1;fill-rule:nonzero;stroke:none;stroke-width:1.3724;stroke-linecap:butt;stroke-linejoin:miter;stroke-miterlimit:4;stroke-dasharray:none;stroke-dashoffset:0;stroke-opacity:0.196356;color-rendering:auto;image-rendering:auto;shape-rendering:auto;text-rendering:auto;enable-background:accumulate;stop-color:#000000;stop-opacity:1"
         d="m -25.242627,9.610416 c -1.478063,0.073796 -2.935838,0.73593 -3.968982,2.012229 -1.954008,2.413888 -1.5187,5.927904 0.969024,7.822549 0.09317,0.07096 0.173143,0.138165 0.226793,0.189384 0.02683,0.02561 0.04707,0.0472 0.05909,0.06313 0.006,0.008 0.0098,0.0146 0.01148,0.01934 8.27e-4,0.0024 0.001,0.0042 8.48e-4,0.0055 -1.95e-4,0.0013 -6.53e-4,0.0019 -0.0017,0.0025 -0.0055,0.0032 -0.02018,0.0092 -0.04166,0.01679 -0.02148,0.0076 -0.04975,0.01704 -0.0829,0.02763 -0.06629,0.02118 -0.151915,0.04717 -0.240821,0.07248 -0.182536,0.05197 -0.324292,0.116868 -0.420428,0.191296 -0.09614,0.07443 -0.146661,0.158545 -0.146661,0.248473 0,0.18816 0.06058,0.312137 0.180244,0.370266 0.119668,0.05813 0.297637,0.0503 0.532443,-0.02359 1.923216,-0.605254 4.213416,-0.627238 6.177609,-0.05951 0.153133,0.04426 0.302297,0.08095 0.419577,0.104363 0.05864,0.01171 0.109465,0.02007 0.148574,0.02444 0.03911,0.0044 0.06633,0.0049 0.07949,2.17e-4 0.172767,-0.06103 0.279931,-0.195719 0.279931,-0.352411 0,-0.0783 -0.0022,-0.138527 -0.01913,-0.189384 -0.01697,-0.05086 -0.04896,-0.09216 -0.107976,-0.131995 -0.118036,-0.07967 -0.344484,-0.15427 -0.780491,-0.292046 -0.0022,-6.52e-4 -0.0035,-0.0016 -0.0043,-0.003 -7.62e-4,-0.0014 -8.7e-4,-0.0035 -4.35e-4,-0.0062 9.79e-4,-0.0053 0.0048,-0.0129 0.01127,-0.02232 0.01302,-0.01883 0.03682,-0.04478 0.06929,-0.07609 0.06495,-0.06263 0.164945,-0.14656 0.285244,-0.237209 0.434711,-0.327563 0.73905,-0.637146 1.048731,-1.067011 0.04548,-0.06313 0.08072,-0.110694 0.116266,-0.144109 0.03555,-0.03342 0.07131,-0.05264 0.118392,-0.05994 0.09416,-0.01459 0.233777,0.0196 0.50396,0.08991 0.04806,0.01251 0.08411,0.02187 0.109677,0.03528 0.02556,0.01341 0.0406,0.03065 0.04782,0.05951 0.01445,0.05772 -0.0039,0.162417 -0.04145,0.37154 -0.210786,1.175395 0.0269,2.217803 0.592808,2.967438 0.565906,0.749637 1.45996,1.20639 2.561251,1.210484 0.50827,0.0019 0.911917,-0.08486 1.238327,-0.276531 0.326411,-0.191671 0.57555,-0.4882 0.774965,-0.905683 0.06702,-0.140317 0.148044,-0.20979 0.241459,-0.211489 0.09341,-0.0017 0.19989,0.06451 0.317127,0.197035 0.234473,0.265053 0.511607,0.79484 0.815136,1.570971 0.169948,0.43456 0.282813,0.676983 0.479305,0.852759 0.196492,0.175775 0.476308,0.284559 0.979652,0.452311 0.28039,0.09345 0.487374,0.157961 0.639993,0.225942 0.152621,0.06798 0.250862,0.139354 0.314152,0.246561 0.126582,0.214413 0.113503,0.573551 0.113503,1.336525 0,0.39926 0.0079,0.688094 -0.0051,0.904835 -0.01296,0.21674 -0.04669,0.361228 -0.129656,0.471652 -0.08297,0.110424 -0.215368,0.187192 -0.426167,0.268241 -0.210799,0.08105 -0.499773,0.166276 -0.895694,0.293959 -0.595435,0.192025 -0.887754,0.296924 -1.089966,0.442108 -0.202211,0.145184 -0.314026,0.330471 -0.548809,0.683142 -0.655029,0.983928 -1.570016,1.830044 -2.674115,2.472829 -0.208459,0.121361 -0.362275,0.196889 -0.482494,0.276317 -0.120218,0.07943 -0.20671,0.162768 -0.279718,0.299061 -0.146014,0.272586 -0.238534,0.756931 -0.442958,1.848565 -0.07273,0.388383 -0.142803,0.747706 -0.197036,1.013872 -0.02712,0.133083 -0.05022,0.242956 -0.0678,0.321379 -0.0088,0.03921 -0.01632,0.07058 -0.0221,0.0931 -0.0029,0.01126 -0.0054,0.02031 -0.0074,0.02699 -0.0021,0.0067 -0.0037,0.011 -0.0047,0.01254 -0.0022,0.0036 -0.01045,0.0082 -0.02444,0.01212 -0.014,0.004 -0.03358,0.0076 -0.05866,0.01105 -0.05017,0.0069 -0.122106,0.01286 -0.214252,0.01764 -0.184291,0.0096 -0.44961,0.01467 -0.784742,0.01467 -0.310261,0 -0.533106,0.0084 -0.696107,0.0017 -0.163002,-0.0067 -0.26595,-0.02856 -0.337533,-0.08842 -0.07158,-0.05987 -0.11201,-0.158054 -0.148999,-0.318616 -0.03699,-0.160562 -0.07058,-0.383226 -0.128594,-0.691219 -0.06096,-0.323611 -0.108757,-0.568088 -0.16409,-0.750946 -0.05533,-0.182858 -0.118205,-0.304099 -0.209576,-0.381105 -0.09137,-0.07701 -0.211171,-0.10948 -0.379405,-0.114991 -0.168234,-0.0055 -0.384988,0.01574 -0.671452,0.04655 -1.268965,0.136479 -1.85227,0.153372 -2.961697,0.08545 -0.359904,-0.02204 -0.62746,-0.04039 -0.830441,-0.03465 -0.202981,0.0057 -0.341417,0.03547 -0.442746,0.109677 -0.101329,0.07421 -0.165206,0.192774 -0.219353,0.375366 -0.05415,0.182593 -0.09867,0.429379 -0.161115,0.760723 -0.05172,0.274438 -0.08285,0.47435 -0.119241,0.619589 -0.03639,0.14524 -0.07811,0.23577 -0.150912,0.292047 -0.0728,0.05628 -0.176938,0.07856 -0.339021,0.08672 -0.162082,0.0082 -0.381981,0.0021 -0.685267,0.0021 -0.306656,0 -0.526274,0.01176 -0.688243,0.0017 -0.16197,-0.01006 -0.26588,-0.04169 -0.342421,-0.128807 -0.07654,-0.08711 -0.125731,-0.230161 -0.176631,-0.462513 -0.0509,-0.232352 -0.103746,-0.554027 -0.187896,-0.998781 -0.171357,-0.905673 -0.245271,-1.33309 -0.360701,-1.586063 -0.05771,-0.126487 -0.125785,-0.209342 -0.221479,-0.286308 -0.09569,-0.07696 -0.219,-0.147961 -0.387057,-0.251236 -4.689307,-2.881701 -4.829697,-9.798058 -0.257799,-12.694241 0.220981,-0.139985 0.35233,-0.242169 0.417239,-0.342209 0.06491,-0.10004 0.06283,-0.197889 0.017,-0.32818 -0.03525,-0.100242 -0.08407,-0.169961 -0.151762,-0.20745 -0.06769,-0.03749 -0.154021,-0.04268 -0.263564,-0.01445 -0.219088,0.05644 -0.531814,0.246256 -0.979014,0.57963 -1.65102,1.23078 -2.539827,2.703736 -3.024614,5.012188 -0.01105,0.05261 -0.02409,0.08705 -0.03741,0.10415 -0.0067,0.0085 -0.01312,0.01261 -0.01955,0.01297 -0.0064,3.26e-4 -0.01327,-0.0029 -0.02019,-0.01041 -0.01384,-0.01499 -0.02782,-0.04635 -0.0406,-0.09246 -0.01278,-0.04612 -0.02445,-0.107155 -0.0338,-0.181945 -0.0788,-0.6307 -0.43136,-1.130084 -0.862536,-1.383289 -0.431175,-0.253203 -0.941257,-0.26004 -1.33355,0.09437 -0.443988,0.401114 -0.569648,0.848318 -0.416602,1.238752 0.153045,0.390435 0.584468,0.723816 1.254056,0.898671 0.100743,0.02631 0.176076,0.04463 0.227431,0.06206 0.02568,0.0087 0.04539,0.01732 0.0593,0.02636 0.01391,0.009 0.02184,0.01851 0.02466,0.02933 0.0028,0.01083 4.13e-4,0.02315 -0.0072,0.03826 -0.0076,0.01511 -0.02052,0.03279 -0.03847,0.05378 -0.03591,0.04196 -0.09195,0.09732 -0.166216,0.172804 -0.301005,0.30596 -0.797726,0.555107 -1.202194,0.603011 -0.242246,0.02869 -0.410654,0.120396 -0.486956,0.24571 -0.0763,0.125313 -0.05987,0.283856 0.06695,0.445083 0.100996,0.128397 0.280114,0.176029 0.499922,0.16069 0.219807,-0.01534 0.480442,-0.09353 0.745207,-0.217441 0.529529,-0.247822 1.075356,-0.678193 1.342265,-1.153094 0.05281,-0.09396 0.101925,-0.160126 0.145173,-0.199375 0.02162,-0.01962 0.0418,-0.03239 0.06015,-0.03868 0.01835,-0.0063 0.03485,-0.0061 0.04952,4.35e-4 0.02936,0.01303 0.05181,0.05174 0.06483,0.116054 0.01302,0.06432 0.01668,0.153924 0.0087,0.267816 -0.20676,2.957756 1.384847,5.898427 4.036361,7.457171 0.118675,0.06977 0.177496,0.103887 0.239971,0.292259 0.06248,0.188372 0.12818,0.530855 0.259739,1.215584 0.181313,0.943688 0.277211,1.4284 0.387907,1.70488 0.110489,0.27596 0.236537,0.344177 0.475904,0.452948 v 4.35e-4 l 0.0011,4.36e-4 c 0.09395,0.04267 0.185772,0.06757 0.369415,0.08183 0.183643,0.01427 0.459077,0.018 0.920562,0.01849 0.849498,9.8e-4 1.299321,-0.01522 1.569696,-0.197672 0.135188,-0.09123 0.225312,-0.224002 0.297785,-0.416602 0.07247,-0.1926 0.127384,-0.445075 0.19236,-0.776028 l 0.166003,-0.845106 1.395403,0.01849 c 1.135711,0.01508 2.251207,-0.0321 2.793996,-0.118391 3.26e-4,-5.2e-5 9.79e-4,-5.3e-5 0.0017,4.35e-4 7.61e-4,4.36e-4 0.0017,0.0013 0.0028,0.0025 0.0021,0.0026 0.0045,0.0068 0.0072,0.01233 0.0055,0.01108 0.01199,0.02778 0.01934,0.04952 0.01471,0.0435 0.03291,0.107067 0.05314,0.185771 0.04046,0.157408 0.08929,0.37558 0.137096,0.616613 0.07106,0.358331 0.128964,0.630311 0.203413,0.836393 0.07445,0.20608 0.165707,0.346293 0.303098,0.440832 0.274784,0.189078 0.733733,0.195074 1.614333,0.182157 0.434834,-0.0064 0.757208,-0.0071 1.003245,-0.04102 0.246036,-0.03396 0.415854,-0.101138 0.544557,-0.240396 0.257409,-0.278515 0.350457,-0.84389 0.566664,-2.006066 0.140871,-0.757227 0.211409,-1.135828 0.304375,-1.358631 0.09296,-0.222803 0.208183,-0.290115 0.439769,-0.425529 1.296351,-0.758001 2.194078,-1.621228 3.135991,-3.015474 0.06733,-0.09967 0.110433,-0.153465 0.263352,-0.223179 0.152919,-0.06972 0.415606,-0.155111 0.921413,-0.316703 0.912679,-0.291577 1.395745,-0.473325 1.651103,-0.821088 0.2553593,-0.347763 0.282283,-0.86075 0.2837576,-1.814131 0.00145,-0.934364 -0.033866,-1.459655 -0.2542126,-1.812005 -0.220348,-0.352351 -0.625421,-0.531021 -1.362033,-0.772202 -0.373045,-0.12214 -0.575515,-0.196553 -0.707797,-0.306287 -0.132283,-0.109732 -0.194665,-0.254893 -0.287583,-0.519263 -0.276578,-0.786917 -0.789489,-1.630242 -1.48425,-2.440735 -0.04165,-0.04859 -0.07285,-0.08501 -0.0948,-0.119667 -0.02195,-0.03466 -0.03465,-0.06739 -0.03953,-0.109251 -0.0098,-0.08372 0.01229,-0.203526 0.05633,-0.443171 0.179403,-0.976382 0.232689,-1.750366 0.145173,-2.329357 -0.08752,-0.578991 -0.316055,-0.963215 -0.700146,-1.15947 -0.384092,-0.196256 -0.923408,-0.204594 -1.632399,-0.03273 -0.708991,0.171861 -1.587847,0.52404 -2.65116,1.048732 -0.151278,0.07464 -0.248966,0.117318 -0.327118,0.136458 -0.07815,0.01914 -0.136801,0.01477 -0.210638,-0.0047 -0.09735,-0.02564 -0.278831,-0.07312 -0.403424,-0.105426 -0.05663,-0.01469 -0.09901,-0.02556 -0.129019,-0.03762 -0.03001,-0.01206 -0.04736,-0.02523 -0.05462,-0.04378 -0.0073,-0.01856 -0.0046,-0.04319 0.0068,-0.07886 0.01137,-0.03567 0.03122,-0.08207 0.05781,-0.14411 0.161233,-0.376144 0.278752,-0.84197 0.331369,-1.238328 0.02631,-0.198179 0.0364,-0.379003 0.02763,-0.522665 -0.0088,-0.143662 -0.03632,-0.25015 -0.08608,-0.299911 -0.08057,-0.08057 -0.161284,-0.126887 -0.238272,-0.141347 -0.07699,-0.01446 -0.150115,0.0029 -0.215102,0.0491 -0.129974,0.09234 -0.22747,0.299648 -0.261014,0.598758 -0.256294,2.285369 -1.948606,3.988413 -3.820834,3.845915 -0.663102,-0.05056 -1.034404,-0.05084 -1.671295,-6.53e-4 -1.148734,0.09055 -2.214549,-0.542627 -2.928753,-1.528886 -0.714205,-0.986281 -1.076543,-2.325461 -0.818327,-3.646138 0.41036,-2.098831 1.950683,-3.399171 3.687351,-3.725823 1.736668,-0.326653 3.669529,0.320483 4.865314,2.11723 0.16834,0.252942 0.335858,0.418656 0.482705,0.508849 0.146847,0.09019 0.273277,0.104904 0.358787,0.05505 0.08551,-0.04985 0.12944,-0.163858 0.112228,-0.329668 -0.01721,-0.16581 -0.09557,-0.383681 -0.254849,-0.641907 -1.107691,-1.795796 -3.041466,-2.6735609 -4.941833,-2.57868 z m 2.18e-4,0.0034 c 1.899147,-0.094826 3.831639,0.782506 4.938644,2.577192 0.159088,0.257915 0.237293,0.475164 0.254424,0.640206 0.01713,0.165043 -0.02657,0.27753 -0.110526,0.32648 -0.08396,0.04895 -0.208943,0.03476 -0.355174,-0.05505 -0.146233,-0.08981 -0.313504,-0.255147 -0.481643,-0.507786 -1.196529,-1.797867 -3.130976,-2.445612 -4.868927,-2.118718 -1.737951,0.326894 -3.279492,1.628411 -3.690114,3.728586 -0.258419,1.321715 0.104208,2.661861 0.818962,3.648879 0.714754,0.987018 1.781771,1.621043 2.931942,1.530374 0.636785,-0.0502 1.007653,-0.05013 1.670659,4.35e-4 1.874477,0.14267 3.567982,-1.562025 3.824446,-3.848891 0.03348,-0.298544 0.130889,-0.504821 0.259525,-0.596208 0.06432,-0.04569 0.136454,-0.06275 0.212553,-0.04846 0.0761,0.01429 0.156351,0.05985 0.236569,0.140072 0.04845,0.04845 0.07606,0.154464 0.08481,0.297785 0.0087,0.143322 -0.0011,0.324008 -0.02742,0.522028 -0.05257,0.39604 -0.170092,0.861515 -0.331156,1.237265 -0.02659,0.06204 -0.04656,0.108577 -0.05803,0.144535 -0.01147,0.03596 -0.01456,0.06139 -0.0068,0.08119 0.0077,0.0198 0.02637,0.03349 0.05675,0.0457 0.03038,0.01221 0.07281,0.02315 0.129444,0.03783 0.124588,0.03231 0.306081,0.07979 0.403423,0.105425 0.07416,0.01953 0.133679,0.02394 0.21234,0.0047 0.07866,-0.01927 0.176629,-0.06221 0.327968,-0.136884 1.063184,-0.524628 1.941736,-0.876547 2.650309,-1.048306 0.708574,-0.171759 1.246898,-0.163152 1.629849,0.03252 0.38295,0.195672 0.610817,0.578589 0.698233,1.15692 0.08742,0.57833 0.03419,1.351901 -0.145173,2.328081 -0.04403,0.239645 -0.06599,0.359328 -0.05611,0.444021 0.0049,0.04235 0.0178,0.07597 0.03996,0.110952 0.02216,0.03499 0.05357,0.0715 0.09522,0.120093 0.694536,0.810229 1.207012,1.653079 1.4834,2.439457 0.09295,0.264456 0.155829,0.410613 0.288859,0.520965 0.133029,0.110353 0.335772,0.18477 0.70886,0.306925 0.736487,0.24114 1.140509,0.419541 1.360119,0.770714 0.219611,0.351173 0.2552354,0.875818 0.253788,1.810092 -0.00147,0.953317 -0.028659,1.465678 -0.28312,1.812218 -0.254459,0.346539 -0.736784,0.528255 -1.649403,0.819813 -0.505813,0.161593 -0.768525,0.246808 -0.921837,0.316702 -0.153313,0.06989 -0.197448,0.124698 -0.26484,0.224455 -0.941713,1.393947 -1.838755,2.256637 -3.134716,3.014411 -0.231587,0.135414 -0.347993,0.203498 -0.441258,0.427017 -0.09326,0.223518 -0.163715,0.602254 -0.304587,1.359483 -0.216211,1.162196 -0.309717,1.727268 -0.565813,2.004363 -0.128048,0.138548 -0.296798,0.20543 -0.542432,0.239334 -0.245635,0.03391 -0.568177,0.03465 -1.003033,0.04102 -0.880565,0.01292 -1.338888,0.0066 -1.612206,-0.181519 -0.136659,-0.09403 -0.227299,-0.23343 -0.301611,-0.439133 -0.07431,-0.205703 -0.132141,-0.477659 -0.2032,-0.835967 -0.04781,-0.241085 -0.09683,-0.459323 -0.137308,-0.616826 -0.02024,-0.07875 -0.03838,-0.142332 -0.05314,-0.185982 -0.0074,-0.02183 -0.01395,-0.0386 -0.01956,-0.04995 -0.0028,-0.0057 -0.0055,-0.01003 -0.0079,-0.01297 -0.0012,-0.0015 -0.0024,-0.0026 -0.0036,-0.0034 -0.0012,-7.62e-4 -0.0024,-0.0013 -0.0038,-0.0011 -0.542254,0.08621 -1.657987,0.133686 -2.793571,0.118604 l -1.398379,-0.0187 -0.166428,0.848081 c -0.06497,0.330917 -0.119823,0.583187 -0.192147,0.77539 -0.07232,0.192204 -0.162026,0.324149 -0.29651,0.414901 -0.268968,0.181505 -0.718331,0.197975 -1.567783,0.197036 -0.461468,-4.35e-4 -0.736929,-0.0042 -0.92035,-0.01849 -0.183096,-0.01422 -0.274253,-0.0388 -0.367715,-0.08119 l -6.42e-4,-4.36e-4 c -0.240166,-0.109093 -0.364622,-0.175855 -0.475053,-0.451672 -0.110432,-0.275818 -0.206384,-0.760773 -0.387695,-1.704454 -0.131559,-0.68473 -0.197309,-1.026922 -0.259951,-1.215798 -0.06264,-0.188875 -0.122572,-0.224406 -0.241247,-0.294171 -2.650392,-1.558063 -4.241538,-4.497607 -4.034876,-7.453963 0.008,-0.114088 0.0044,-0.203854 -0.0087,-0.268666 -0.01312,-0.06481 -0.03566,-0.104807 -0.06674,-0.118603 -0.01554,-0.0069 -0.03309,-0.0072 -0.05208,-6.53e-4 -0.01899,0.0065 -0.03957,0.0197 -0.06143,0.03953 -0.04372,0.03967 -0.09289,0.106066 -0.14581,0.200224 -0.266355,0.473916 -0.811818,0.904052 -1.340778,1.151606 -0.264479,0.123777 -0.524754,0.201933 -0.743932,0.217229 -0.219176,0.01529 -0.397141,-0.03226 -0.497158,-0.159415 -0.126228,-0.160471 -0.142038,-0.317247 -0.06653,-0.441258 0.07551,-0.124011 0.242833,-0.215399 0.484406,-0.244009 0.405536,-0.04803 0.902634,-0.297423 1.204319,-0.604072 0.07424,-0.07547 0.130338,-0.13063 0.166428,-0.172805 0.01805,-0.02109 0.03104,-0.03888 0.0389,-0.05441 0.0079,-0.01554 0.01054,-0.0289 0.0074,-0.04081 -0.0031,-0.01191 -0.01202,-0.02214 -0.02636,-0.03146 -0.01433,-0.0093 -0.03413,-0.01781 -0.05994,-0.02657 -0.05163,-0.01753 -0.126926,-0.03598 -0.227643,-0.06228 -0.668895,-0.174673 -1.099239,-0.507554 -1.251718,-0.896545 -0.152479,-0.388989 -0.02752,-0.834455 0.415752,-1.234926 0.391163,-0.353393 0.899133,-0.346347 1.329299,-0.09373 0.430167,0.252611 0.782378,0.750869 0.861048,1.380525 0.0094,0.07491 0.02095,0.136226 0.0338,0.182582 0.01285,0.04636 0.02678,0.07785 0.04145,0.09374 0.0073,0.0079 0.01518,0.01212 0.02296,0.01169 0.0078,-4.35e-4 0.01509,-0.0055 0.02211,-0.01445 0.01403,-0.01801 0.02695,-0.05279 0.03805,-0.105638 0.484673,-2.307905 1.372907,-3.779719 3.023339,-5.010062 0.447083,-0.333287 0.759704,-0.522819 0.977739,-0.578992 0.109017,-0.02809 0.1943,-0.02292 0.261014,0.01403 0.06671,0.03695 0.115187,0.105769 0.150274,0.205537 0.04565,0.12981 0.04775,0.22606 -0.01658,0.325205 -0.06433,0.09914 -0.195528,0.201236 -0.41639,0.341146 -4.574042,2.897542 -4.433386,9.817206 0.258039,12.70019 0.168096,0.1033 0.291259,0.174318 0.386632,0.251024 0.09537,0.07671 0.162892,0.158964 0.220416,0.285032 0.115048,0.252136 0.189128,0.679523 0.360488,1.585213 0.08414,0.444714 0.136959,0.766476 0.187896,0.998994 0.05094,0.232517 0.09997,0.375812 0.177268,0.463787 0.0773,0.08798 0.18264,0.120217 0.344972,0.130295 0.162332,0.01008 0.381889,-0.0019 0.688456,-0.0019 0.30324,0 0.522941,0.0061 0.685267,-0.0021 0.162326,-0.0082 0.267427,-0.03037 0.341146,-0.08736 0.07372,-0.05699 0.115724,-0.148442 0.152187,-0.293959 0.03646,-0.145517 0.06753,-0.345417 0.119242,-0.619802 0.06244,-0.331357 0.106849,-0.578027 0.160902,-0.760298 0.05405,-0.182271 0.117612,-0.299875 0.218078,-0.373454 0.100466,-0.07358 0.238146,-0.103305 0.440832,-0.109039 0.202687,-0.0057 0.470313,0.0124 0.830228,0.03443 1.109537,0.06793 1.693075,0.05125 2.962124,-0.08523 0.286448,-0.03081 0.503398,-0.05226 0.671239,-0.04676 0.167841,0.0055 0.286473,0.03779 0.377067,0.11414 0.09059,0.07635 0.153269,0.197051 0.208513,0.379619 0.05524,0.182566 0.103133,0.426921 0.16409,0.75052 0.05801,0.307933 0.09155,0.530419 0.128594,0.691219 0.03704,0.1608 0.07754,0.260086 0.150062,0.320741 0.07253,0.06065 0.17662,0.08235 0.339871,0.08906 0.16325,0.0067 0.385909,-0.0017 0.696107,-0.0017 0.335166,0 0.600554,-0.0049 0.784954,-0.01445 0.0922,-0.0048 0.16411,-0.01088 0.214465,-0.01785 0.02518,-0.0035 0.04483,-0.0072 0.05909,-0.01127 0.01426,-0.004 0.02321,-0.008 0.02657,-0.01339 0.0014,-0.0023 0.003,-0.0066 0.0051,-0.01339 0.0021,-0.0068 0.0045,-0.01592 0.0074,-0.02721 0.0058,-0.02258 0.01331,-0.05408 0.0221,-0.09331 0.01759,-0.07846 0.04068,-0.188071 0.0678,-0.321167 0.05424,-0.266192 0.124302,-0.625685 0.197036,-1.014085 0.204423,-1.09163 0.29704,-1.57589 0.442533,-1.847502 0.07275,-0.135804 0.15873,-0.21855 0.278656,-0.297785 0.119925,-0.07924 0.273933,-0.154897 0.482492,-0.276317 1.104526,-0.643034 2.019831,-1.489485 2.675179,-2.473892 0.234811,-0.352716 0.346394,-0.537572 0.547959,-0.682292 0.201565,-0.144719 0.493503,-0.249456 1.088903,-0.44147 0.395881,-0.12767 0.684877,-0.213034 0.895907,-0.294172 0.211031,-0.08114 0.344083,-0.158076 0.427654,-0.269304 0.08357,-0.111226 0.117534,-0.256557 0.130507,-0.473565 0.01297,-0.217007 0.0051,-0.505832 0.0051,-0.905047 0,-0.762935 0.01336,-1.122261 -0.114139,-1.338226 -0.06375,-0.107983 -0.162699,-0.179924 -0.315641,-0.248048 -0.15294,-0.06812 -0.360059,-0.132506 -0.640418,-0.225943 -0.503283,-0.167731 -0.782576,-0.276517 -0.978377,-0.451673 -0.1958,-0.175155 -0.308538,-0.417001 -0.478454,-0.851483 -0.303596,-0.7763 -0.580678,-1.306276 -0.815774,-1.572034 -0.117549,-0.132878 -0.224577,-0.199828 -0.319678,-0.198098 -0.0951,0.0017 -0.177345,0.0725 -0.244648,0.213402 -0.199205,0.417044 -0.447964,0.712928 -0.773689,0.904196 -0.325725,0.191268 -0.728546,0.277991 -1.236414,0.276105 -1.100336,-0.0041 -1.993235,-0.460436 -2.558488,-1.209208 -0.565253,-0.748772 -0.802814,-1.79008 -0.59217,-2.964675 0.0375,-0.209123 0.05631,-0.313681 0.04145,-0.373028 -0.0074,-0.02967 -0.02358,-0.04791 -0.04974,-0.06164 -0.02616,-0.01373 -0.06226,-0.0232 -0.110315,-0.03571 -0.270198,-0.07031 -0.40975,-0.104923 -0.505236,-0.09012 -0.04774,0.0074 -0.08439,0.02725 -0.120304,0.061 -0.03591,0.03376 -0.07119,0.08138 -0.116691,0.144535 -0.309512,0.429631 -0.613601,0.738974 -1.048093,1.066373 -0.120382,0.09071 -0.22055,0.174633 -0.28567,0.237421 -0.03256,0.03139 -0.05622,0.05752 -0.0695,0.07673 -0.0066,0.0096 -0.01077,0.01735 -0.0119,0.02359 -5.44e-4,0.0031 -3.26e-4,0.006 8.71e-4,0.0083 0.0012,0.0023 0.0034,0.004 0.0062,0.0049 0.435992,0.13777 0.662484,0.212541 0.77964,0.291622 0.05858,0.03954 0.08976,0.07993 0.106488,0.130081 0.01673,0.05015 0.01892,0.11009 0.01892,0.188321 0,0.155108 -0.105703,0.288578 -0.277381,0.349223 -0.01159,0.0041 -0.03927,0.0037 -0.07822,-6.53e-4 -0.03895,-0.0044 -0.08936,-0.01254 -0.147936,-0.02423 -0.117152,-0.02339 -0.266531,-0.06013 -0.419577,-0.104364 -1.96491,-0.56793 -4.255575,-0.545757 -6.179522,0.05973 -0.234391,0.07377 -0.411558,0.08107 -0.529892,0.02359 -0.118335,-0.05748 -0.178331,-0.179663 -0.178331,-0.367078 0,-0.08862 0.04978,-0.171695 0.145385,-0.245709 0.0956,-0.07401 0.236896,-0.138976 0.419153,-0.190872 0.08894,-0.02532 0.174693,-0.05107 0.241034,-0.07227 0.03317,-0.0106 0.06136,-0.01998 0.0829,-0.02763 0.02153,-0.0077 0.03631,-0.0136 0.04251,-0.01722 0.0019,-0.0011 0.0031,-0.003 0.0034,-0.0051 3.26e-4,-0.0021 -1.2e-4,-0.0045 -0.0011,-0.0072 -0.0019,-0.0054 -0.006,-0.01208 -0.01212,-0.02019 -0.01224,-0.01622 -0.03262,-0.03787 -0.05951,-0.06355 -0.0538,-0.05136 -0.133756,-0.118578 -0.227005,-0.189596 -2.486261,-1.89348 -2.921228,-5.405014 -0.968419,-7.817421 1.032507,-1.275511 2.489318,-1.9374128 3.966432,-2.011166 z m 10.245635,7.292869 c -0.151689,0 -0.441124,0.06436 -0.79537,0.166003 -0.354245,0.101641 -0.773245,0.24054 -1.183063,0.390033 -0.409818,0.149492 -0.810616,0.309567 -1.12865,0.453161 -0.159019,0.0718 -0.297298,0.139538 -0.405763,0.199798 -0.108464,0.06026 -0.187117,0.11291 -0.226792,0.155164 -0.08186,0.08718 -0.140922,0.249921 -0.178544,0.455498 -0.03762,0.205576 -0.05364,0.454063 -0.04867,0.712899 0.0099,0.517672 0.103665,1.076541 0.276529,1.415384 0.24515,0.480533 0.72692,0.853913 1.267023,1.05447 0.540103,0.200557 1.138568,0.228136 1.617308,0.01637 0.238692,-0.105586 0.463081,-0.471929 0.652321,-0.962011 0.18924,-0.490081 0.343161,-1.103906 0.43977,-1.704666 0.09661,-0.60076 0.135947,-1.188429 0.09586,-1.626023 -0.02004,-0.218796 -0.06002,-0.400123 -0.122642,-0.526916 -0.06262,-0.126793 -0.148165,-0.199161 -0.259314,-0.199161 z m 0,0.0034 c 0.109639,0 0.194042,0.07132 0.256338,0.197461 0.0623,0.126137 0.102197,0.307088 0.122217,0.525641 0.04004,0.437105 7.62e-4,1.024405 -0.09586,1.624959 -0.09658,0.600554 -0.250441,1.214268 -0.439557,1.70403 -0.189117,0.489761 -0.413709,0.855393 -0.650409,0.960096 -0.477654,0.21129 -1.075344,0.183935 -1.614757,-0.01637 -0.539413,-0.200301 -1.020467,-0.573444 -1.265109,-1.052982 -0.172391,-0.337916 -0.26618,-0.896598 -0.276105,-1.413896 -0.005,-0.25865 0.0109,-0.507002 0.04846,-0.712262 0.03756,-0.20526 0.09674,-0.367375 0.177693,-0.453586 0.03909,-0.04163 0.11761,-0.09434 0.225943,-0.154525 0.108333,-0.06019 0.246589,-0.127815 0.405549,-0.199587 0.31792,-0.143541 0.718686,-0.303479 1.128438,-0.452947 0.409753,-0.149469 0.828503,-0.288637 1.182639,-0.390246 0.354136,-0.101609 0.643817,-0.16579 0.794519,-0.16579 z M -35.92995,23.19227 c -0.06878,0.01943 -0.134822,0.0642 -0.19491,0.135609 -0.06479,0.077 -0.100932,0.149296 -0.107977,0.217227 -0.007,0.06793 0.01517,0.131559 0.06674,0.190659 0.103146,0.118201 0.323486,0.219164 0.663587,0.306926 0.09134,0.02357 0.161346,0.03821 0.212127,0.04038 0.02539,0.0011 0.04602,-8.7e-4 0.06206,-0.0066 0.01604,-0.0057 0.0276,-0.01519 0.03443,-0.02869 0.01366,-0.027 0.0089,-0.06951 -0.01169,-0.131145 -0.02056,-0.06163 -0.05722,-0.142395 -0.107977,-0.246135 -0.119282,-0.243805 -0.261524,-0.400937 -0.404486,-0.46145 -0.07148,-0.03026 -0.143131,-0.03622 -0.211914,-0.01679 z m 8.49e-4,0.0032 c 0.06802,-0.01923 0.13871,-0.0132 0.209576,0.01679 0.141732,0.05999 0.283937,0.216397 0.402998,0.45975 0.05073,0.10369 0.0871,0.184598 0.107552,0.245922 0.02045,0.06132 0.02474,0.103008 0.0119,0.128382 -0.0064,0.01269 -0.01712,0.02153 -0.03252,0.02699 -0.0154,0.0055 -0.03545,0.0075 -0.06058,0.0064 -0.05025,-0.0021 -0.120234,-0.01684 -0.211489,-0.04039 -0.339826,-0.08769 -0.559498,-0.188774 -0.661675,-0.305862 -0.05109,-0.05854 -0.07305,-0.120932 -0.0661,-0.187896 0.0069,-0.06696 0.04283,-0.138644 0.107339,-0.215316 0.05974,-0.071 0.124979,-0.115528 0.192997,-0.134757 z"
         id="path1284"
         inkscape:export-xdpi="97"
         inkscape:export-ydpi="97" />
    </g>
    <text
       xml:space="preserve"
       style="font-size:85.9537px;line-height:1.25;font-family:'Frank Ruhl Hofshi';-inkscape-font-specification:'Frank Ruhl Hofshi, Normal';fill:#dbdee3;fill-opacity:0.421053;stroke:#abb3be;stroke-width:0.924;stroke-miterlimit:4;stroke-dasharray:none;stroke-opacity:0.317814"
       x="35.179825"
       y="210.8447"
       id="text1215"><tspan
         sodipodi:role="line"
         id="tspan1213"
         x="35.179825"
         y="210.8447"
         style="fill:#dbdee3;fill-opacity:0.421053;stroke:#abb3be;stroke-width:0.924;stroke-miterlimit:4;stroke-dasharray:none;stroke-opacity:0.317814" /></text>
    <text
       xml:space="preserve"
       style="font-size:31.3436px;line-height:1.25;font-family:'Frank Ruhl Hofshi';-inkscape-font-specification:'Frank Ruhl Hofshi, Normal';fill:#ff6600;fill-opacity:1;stroke:none;stroke-width:5.51693;stroke-miterlimit:4;stroke-dasharray:none;stroke-opacity:0.196356"
       x="9.1311264"
       y="-13.230054"
       id="text1215-8"
       transform="scale(0.95762087,1.0442546)"
       inkscape:export-xdpi="97"
       inkscape:export-ydpi="97"><tspan
         sodipodi:role="line"
         id="tspan1213-4"
         x="9.1311264"
         y="-13.230054"
         style="fill:#ff6600;fill-opacity:1;stroke:none;stroke-width:5.51693;stroke-miterlimit:4;stroke-dasharray:none;stroke-opacity:0.196356" /><tspan
         sodipodi:role="line"
         x="9.1311264"
         y="25.949476"
         style="fill:#ff6600;fill-opacity:1;stroke:none;stroke-width:5.51693;stroke-miterlimit:4;stroke-dasharray:none;stroke-opacity:0.196356"
         id="tspan1272">$</tspan></text>
    <text
       xml:space="preserve"
       style="font-style:normal;font-variant:normal;font-weight:normal;font-stretch:normal;font-size:4.10856px;line-height:1.25;font-family:'Poor Richard';-inkscape-font-specification:'Poor Richard, Normal';font-variant-ligatures:normal;font-variant-caps:normal;font-variant-numeric:normal;font-variant-east-asian:normal;fill:#999999;fill-opacity:1;stroke:none;stroke-width:0.72317;stroke-miterlimit:4;stroke-dasharray:none;stroke-opacity:0.196356"
       x="38.962688"
       y="31.778767"
       id="text1215-8-5-5"
       transform="scale(1.0773661,0.92818959)"
       inkscape:export-xdpi="97"
       inkscape:export-ydpi="97"><tspan
         sodipodi:role="line"
         x="38.962688"
         y="31.778767"
         style="font-style:normal;font-variant:normal;font-weight:normal;font-stretch:normal;font-size:4.10856px;font-family:'Poor Richard';-inkscape-font-specification:'Poor Richard, Normal';font-variant-ligatures:normal;font-variant-caps:normal;font-variant-numeric:normal;font-variant-east-asian:normal;fill:#999999;fill-opacity:1;stroke:none;stroke-width:0.72317;stroke-miterlimit:4;stroke-dasharray:none;stroke-opacity:0.196356"
         id="tspan1272-5-1" /></text>
    <path
       style="fill:#ff6600;fill-opacity:0.421053;stroke:#ffffff;stroke-width:1.1967;stroke-miterlimit:4;stroke-dasharray:none;stroke-opacity:0.196356"
       d="M 42.225953,40.288376 C 38.73746,39.225415 36.887711,36.82567 36.48786,32.844142 c -0.433471,-4.315978 0.308423,-5.130761 6.775887,-7.442192 5.742173,-2.052213 6.233174,-2.141069 6.840691,-1.237987 1.484724,2.207088 -0.532615,13.199751 -2.823596,15.386189 -0.965144,0.921147 -3.324099,1.265594 -5.054889,0.738224 z"
       id="path946" />
    <path
       style="fill:#ff6600;fill-opacity:1;stroke:#ff6600;stroke-width:2.21638px;stroke-linecap:butt;stroke-linejoin:miter;stroke-opacity:1"
       d="M -3.1199774,31.112386 3.3723928,27.734511"
       id="path948"
       sodipodi:nodetypes="cc" />
    <path
       style="fill:#ff6600;fill-opacity:0.459514;stroke:#ff6600;stroke-width:1.1967;stroke-miterlimit:4;stroke-dasharray:none;stroke-opacity:0.00607288"
       d="M 4.3309738,87.126525 C 3.8017268,86.808579 3.4463064,85.624955 2.7550213,81.878053 2.2641127,79.217201 1.6167795,76.709655 1.3165233,76.305714 1.0162765,75.901772 0.04553985,75.097333 -0.84063983,74.518049 -3.3245849,72.894331 -5.8520908,70.377345 -7.7422806,67.645142 c -3.3938154,-4.905626 -4.7558134,-9.59129 -4.5542284,-15.667823 0.260329,-7.846552 3.568026,-14.364257 9.5807688,-18.878485 2.72924088,-2.049045 5.5600535,-3.459223 5.7975249,-2.888036 0.1051911,0.252984 0.8021435,0.930541 1.5488189,1.505649 l 1.3576105,1.045712 -1.0909188,0.34501 c -0.6000138,0.189763 -1.3251784,0.693287 -1.6114999,1.11888 -0.4777189,0.710138 -0.4765495,0.839337 0.013714,1.568085 0.495994,0.737308 0.7977809,0.728626 4.2084494,-0.120611 4.9359642,-1.229053 12.4113822,-1.225508 17.4115042,0.0084 3.230719,0.797158 3.731687,0.821055 4.150811,0.198037 0.755149,-1.122547 0.204884,-2.297917 -1.23608,-2.640455 l -1.293379,-0.307413 1.572298,-1.433472 c 0.864763,-0.788375 1.956505,-1.96743 2.426101,-2.620038 0.631345,-0.877435 1.13882,-1.146049 1.947711,-1.031046 l 1.093906,0.155544 -0.109783,2.929587 c -0.27682,7.387101 3.429872,12.150833 9.835369,12.640076 3.729269,0.284854 5.349242,-0.359817 7.168381,-2.852411 1.414115,-1.937671 1.416662,-1.938877 2.225747,-1.055375 0.445492,0.486465 1.473284,2.404935 2.283946,4.263235 0.810671,1.858291 1.770422,3.653953 2.132785,3.990364 0.36236,0.336428 1.861473,1.038385 3.331348,1.559985 1.541743,0.547134 2.844189,1.296799 3.078273,1.771876 0.235183,0.477273 0.405781,2.274874 0.405781,4.275665 0,4.328597 -0.19808,4.613899 -4.149781,5.976584 -4.14754,1.430219 -4.456328,1.645882 -6.619931,4.623563 -2.187537,3.010619 -5.3488,5.930361 -8.388019,7.747176 -1.157639,0.692061 -2.304004,1.544208 -2.547493,1.893763 -0.243497,0.349501 -0.910145,2.991725 -1.481453,5.871501 l -1.038757,5.235958 -2.738587,0.402716 c -3.806082,0.559695 -4.333027,0.18965 -5.036397,-3.536724 -0.305264,-1.617377 -0.832877,-3.229953 -1.172426,-3.583488 -0.491253,-0.511489 -2.388373,-0.594115 -9.285976,-0.404553 -4.767735,0.13102 -8.814689,0.437746 -8.99323,0.681642 -0.178562,0.243894 -0.616781,1.784151 -0.973856,3.422905 -0.515713,2.36689 -0.816104,3.047967 -1.460787,3.312334 -1.1532276,0.47288 -4.9033692,0.444796 -5.7149663,-0.04288 z"
       id="path950" />
  </g>
</svg>
